<?xml version="1.0" standalone="no"?>
<!DOCTYPE svg PUBLIC "-//W3C//DTD SVG 20010904//EN"
 "http://www.w3.org/TR/2001/REC-SVG-20010904/DTD/svg10.dtd">
<svg version="1.0" xmlns="http://www.w3.org/2000/svg"
 width="128.000000pt" height="128.000000pt" viewBox="0 0 128.000000 128.000000"
 preserveAspectRatio="xMidYMid meet">

<g transform="translate(0.000000,128.000000) scale(0.100000,-0.100000)"
fill="#000000" stroke="none">
<path d="M525 1260 c-112 -37 -207 -134 -240 -243 -10 -33 -15 -93 -15 -176 0
-107 3 -131 19 -158 11 -17 29 -34 40 -38 11 -3 22 -18 26 -35 10 -47 80 -147
126 -180 65 -46 140 -65 204 -51 71 16 137 60 180 120 19 27 51 61 69 75 27
20 40 42 56 95 19 59 22 86 18 202 -3 120 -6 140 -30 192 -79 168 -279 255
-453 197z m76 -259 c42 -32 109 -62 182 -80 l71 -19 16 -48 c14 -46 17 -49 53
-52 34 -3 37 -6 37 -33 0 -40 -16 -69 -39 -69 -13 0 -24 -15 -36 -47 -24 -66
-29 -70 -89 -83 -44 -9 -57 -8 -86 6 -73 37 -162 -35 -98 -80 28 -20 70 -21
106 -2 15 7 42 16 61 20 l35 6 -25 -26 c-55 -61 -157 -80 -234 -45 -54 24
-118 98 -146 169 -27 68 -38 84 -54 78 -16 -6 -35 36 -35 74 0 26 4 29 38 32
l37 3 5 74 5 75 58 11 c34 7 67 21 80 33 26 27 28 27 58 3z"/>
<path d="M484 785 c-10 -24 6 -35 51 -35 44 0 64 17 42 39 -16 16 -86 14 -93
-4z"/>
<path d="M702 788 c-19 -24 2 -40 49 -36 36 2 44 7 44 23 0 16 -8 21 -41 23
-25 2 -45 -2 -52 -10z"/>
<path d="M238 350 c-99 -50 -164 -89 -174 -105 -20 -30 -67 -213 -60 -231 8
-21 1264 -21 1272 0 7 18 -40 201 -60 231 -11 16 -76 55 -178 106 -132 66
-163 78 -173 67 -7 -7 -39 -74 -70 -148 -76 -180 -75 -177 -87 -156 -7 12 -3
26 12 52 30 47 30 98 2 127 -18 18 -34 22 -83 22 -54 0 -63 -3 -85 -28 -30
-35 -30 -53 1 -111 17 -33 22 -52 16 -63 -11 -20 -10 -21 -86 157 -56 132 -71
161 -84 159 -3 0 -77 -36 -163 -79z"/>
</g>
</svg>
