<?xml version="1.0" encoding="utf-8"?>
<svg xmlns="http://www.w3.org/2000/svg" viewBox="0 -1.3 325.689 352.433">
  <desc>Created with Fabric.js 5.2.4</desc>
  <g transform="matrix(1, 0, 0, 1, 247.564529, 253.51474)" id="e51f3511-3d3d-4983-a87b-81d944e254dc">
    <rect style="stroke: none; stroke-width: 1; stroke-dasharray: none; stroke-linecap: butt; stroke-dashoffset: 0; stroke-linejoin: miter; stroke-miterlimit: 4; fill: rgb(255,255,255); fill-rule: nonzero; opacity: 1; visibility: hidden;" vector-effect="non-scaling-stroke" x="-250" y="-250" rx="0" ry="0" width="500" height="500"/>
  </g>
  <g id="52041676-53f4-415e-b3a6-7315148d1b9c" transform="matrix(1, 0, 0, 1, -2.435472, 3.514727)"/>
  <g transform="matrix(1, 0, 0, 1, -2.435472, 3.514727)">
    <g style=""/>
  </g>
  <g transform="matrix(1, 0, 0, 1, -2.435472, 3.514727)">
    <g style=""/>
  </g>
  <g transform="matrix(0.067107, 0, 0, -0.065553, 11.823158, 346.209351)" style="" fill="#000000" stroke="none">
    <desc>Created with Fabric.js 5.2.4</desc>
  </g>
  <g transform="matrix(1, 0, 0, 1, 530.183655, 135.263077)" id="group-1" fill="#000000" stroke="none">
    <rect style="stroke: none; stroke-width: 1; stroke-dasharray: none; stroke-linecap: butt; stroke-dashoffset: 0; stroke-linejoin: miter; stroke-miterlimit: 4; fill: rgb(255,255,255); fill-rule: nonzero; opacity: 1; visibility: hidden;" vector-effect="non-scaling-stroke" x="-250" y="-250" rx="0" ry="0" width="500" height="500"/>
  </g>
  <g id="group-2" transform="matrix(1, 0, 0, 0.999999, 280.183624, -114.736961)" fill="#000000" stroke="none"/>
  <g transform="matrix(1, 0, 0, 0.999999, 280.183624, -114.736961)" fill="#000000" stroke="none">
    <g style=""/>
  </g>
  <g transform="matrix(1, 0, 0, 0.999999, 280.183624, -114.736961)" fill="#000000" stroke="none">
    <g style=""/>
  </g>
  <g transform="matrix(0.061864, 0, 0, -0.065171, 4.472661, 341.725769)" fill="#000000" stroke="none" style="">
    <path d="M2177 5060 c-118 -37 -210 -120 -264 -236 -24 -51 -28 -75 -33 -184 l-5 -125 -65 -23 c-100 -35 -335 -154 -435 -221 -125 -83 -214 -155 -329 -269 -342 -336 -550 -744 -625 -1222 l-16 -105 -70 -6 c-154 -12 -254 -118 -255 -269 0 -149 115 -269 257 -270 l52 0 3 -151 c3 -140 4 -152 25 -168 11 -10 83 -40 160 -66 76 -27 141 -53 145 -59 4 -6 46 -104 92 -218 l86 -206 -65 -136 c-39 -81 -65 -148 -65 -168 0 -29 26 -59 258 -290 216 -216 262 -258 286 -258 15 0 91 30 168 66 l139 66 214 -88 214 -88 52 -146 c28 -80 60 -153 71 -162 18 -16 52 -18 388 -18 336 0 370 2 388 18 11 9 43 81 71 162 l52 145 214 89 215 88 138 -66 c77 -36 152 -66 168 -66 24 0 69 40 286 258 232 231 258 261 258 290 0 20 -26 87 -65 168 l-65 136 86 206 c46 114 88 212 92 218 4 5 69 32 145 58 76 27 148 57 160 66 21 17 22 28 25 169 l3 151 52 0 c142 0 257 121 257 270 0 151 -101 257 -255 269 l-70 6 -12 85 c-74 518 -337 1001 -728 1338 -191 164 -404 292 -635 383 l-95 37 -5 123 c-5 113 -8 130 -37 192 -37 77 -116 163 -184 197 -89 46 -125 50 -464 49 -284 0 -327 -2 -378 -19z m762 -161 c65 -33 98 -67 130 -139 20 -44 21 -63 21 -721 0 -749 2 -728 -66 -807 -19 -23 -58 -52 -88 -67 l-53 -26 -335 3 -335 3 -48 30 c-57 35 -110 100 -125 153 -15 55 -12 1377 3 1419 25 66 73 119 137 152 l63 31 317 0 317 0 62 -31z m-1057 -1071 l3 -523 32 -67 c53 -113 144 -194 263 -234 49 -17 89 -19 380 -19 291 0 331 2 380 19 119 40 210 121 263 234 l32 67 3 523 c2 458 5 522 18 522 26 0 225 -93 324 -152 258 -153 494 -377 663 -633 82 -124 179 -326 227 -471 38 -118 90 -346 90 -398 l0 -26 -2001 0 -2001 0 7 53 c14 109 47 253 85 367 178 544 589 994 1115 1221 49 21 95 39 102 39 10 0 13 -120 15 -522z m2974 -1342 c28 -28 34 -42 34 -75 0 -23 -7 -55 -15 -71 -33 -65 149 -60 -2315 -60 -2437 0 -2276 -4 -2314 54 -9 14 -16 45 -16 72 0 39 5 51 34 80 l34 34 2262 0 2262 0 34 -34z m-3446 -400 c0 -19 7 -68 15 -108 47 -227 154 -426 315 -588 522 -525 1376 -439 1788 178 93 140 163 330 180 487 l7 60 428 3 428 2 -3 -101 -3 -102 -60 -22 c-33 -12 -95 -34 -138 -49 -68 -25 -80 -33 -96 -65 -35 -68 -211 -502 -211 -519 0 -9 28 -77 62 -150 l62 -133 -201 -200 -200 -201 -128 61 c-70 34 -139 61 -152 61 -24 0 -526 -203 -549 -221 -7 -6 -34 -73 -60 -149 l-49 -140 -285 0 -285 0 -49 140 c-26 76 -53 144 -60 149 -22 19 -525 221 -549 221 -13 0 -82 -27 -152 -61 l-128 -61 -200 201 -201 200 62 133 c34 73 62 141 62 150 0 17 -176 451 -211 519 -16 32 -28 40 -96 65 -43 15 -105 38 -138 50 l-60 22 -3 101 -3 101 431 0 430 0 0 -34z m2145 -18 c-55 -404 -352 -734 -753 -839 -110 -29 -292 -36 -410 -15 -211 37 -382 127 -537 281 -164 165 -256 348 -289 578 l-7 47 1001 0 1002 0 -7 -52z"/>
  </g>
</svg>