<?xml version="1.0" encoding="UTF-8" standalone="no" ?>
<!DOCTYPE svg PUBLIC "-//W3C//DTD SVG 1.1//EN" "http://www.w3.org/Graphics/SVG/1.1/DTD/svg11.dtd">
<svg xmlns="http://www.w3.org/2000/svg" xmlns:xlink="http://www.w3.org/1999/xlink" version="1.1" width="500" height="500" viewBox="0 0 500 500" xml:space="preserve">
<desc>Created with Fabric.js 5.2.4</desc>
<defs>
</defs>
<rect x="0" y="0" width="100%" height="100%" fill="transparent"></rect>
<g transform="matrix(1 0 0 1 250 250)" id="e51f3511-3d3d-4983-a87b-81d944e254dc"  >
<rect style="stroke: none; stroke-width: 1; stroke-dasharray: none; stroke-linecap: butt; stroke-dashoffset: 0; stroke-linejoin: miter; stroke-miterlimit: 4; fill: rgb(255,255,255); fill-rule: nonzero; opacity: 1; visibility: hidden;" vector-effect="non-scaling-stroke"  x="-250" y="-250" rx="0" ry="0" width="500" height="500" />
</g>
<g transform="matrix(Infinity NaN NaN Infinity 0 0)" id="52041676-53f4-415e-b3a6-7315148d1b9c"  >
</g>
<g transform="matrix(0.96 0 0 0.96 250 250)"  >
<g style="" vector-effect="non-scaling-stroke"   >
		<g transform="matrix(1 0 0 1 0 0)"  >
<path style="stroke: none; stroke-width: 1; stroke-dasharray: none; stroke-linecap: butt; stroke-dashoffset: 0; stroke-linejoin: miter; stroke-miterlimit: 4; fill: rgb(72,23,0); fill-rule: nonzero; opacity: 1;" vector-effect="non-scaling-stroke"  transform=" translate(-191.35, -226.66)" d="M 0 0 C 1.38970539 -0.07324935 1.38970539 -0.07324935 2.80748564 -0.14797848 C 5.92823861 -0.3094668 9.04931509 -0.46286398 12.17054749 -0.61479187 C 13.26277681 -0.66905397 14.35500614 -0.72331608 15.48033333 -0.77922249 C 36.57757833 -1.81704801 57.68340697 -2.4798624 78.79950678 -2.97832473 C 82.27871985 -3.06065525 85.75785593 -3.14589693 89.23695374 -3.23295593 C 89.92918644 -3.25022754 90.62141914 -3.26749915 91.33462859 -3.28529414 C 101.02482576 -3.53336533 110.69558548 -3.94512988 120.37334685 -4.49192627 C 225.34359967 -10.41671271 225.34359967 -10.41671271 261.58480835 20.4468689 C 287.55413573 43.78194076 301.58315902 70.59000364 303.46774417 105.51242119 C 304.09401205 121.45070013 303.18191614 137.31165481 301.95934349 153.19904786 C 301.17904796 163.52024547 300.82067696 173.84582908 300.4834218 184.18945456 C 299.78465382 205.3518083 298.60083293 226.46096855 297.06141663 247.57783508 C 298.27724678 247.56627884 298.27724678 247.56627884 299.51763916 247.55448914 C 300.58806961 247.54849701 301.65850006 247.54250488 302.7613678 247.53633118 C 303.81942123 247.52862701 304.87747467 247.52092285 305.96759033 247.51298523 C 310.23337318 247.60240053 314.22143757 248.26981445 318.37391663 249.20283508 C 319.18368958 249.38104797 319.99346252 249.55926086 320.82777405 249.74287415 C 338.59729434 253.87215223 354.53690211 262.36280458 368.06141663 274.57783508 C 368.90317444 275.3370929 369.74493225 276.09635071 370.61219788 276.87861633 C 391.15644096 296.40043985 401.52378334 322.59129414 403.24891663 350.62471008 C 403.88917975 380.23687952 392.5182902 407.67713156 372.41615295 429.2636261 C 352.84249046 449.46101675 325.68790619 460.15865036 297.7469635 460.88056946 C 273.1131411 461.00096937 246.87822303 453.01210161 228.06141663 436.57783508 C 227.0630068 435.43956587 226.09095123 434.27772967 225.14421654 433.09613228 C 219.86333424 426.63279275 215.26474584 421.96246847 206.69325376 421.01642299 C 201.8586791 420.77699294 197.05730772 420.84363449 192.22010803 420.9601593 C 190.04385217 420.96079542 187.867587 420.9551947 185.69136047 420.94387817 C 179.81842863 420.93028487 173.9492901 421.00179371 168.07709551 421.08811712 C 161.91768209 421.16276311 155.75840221 421.154378 149.59861755 421.15403748 C 137.94189996 421.16516046 126.28674854 421.2439769 114.63054883 421.35035336 C 93.74418105 421.53831097 72.85714317 421.60177818 51.97005594 421.65383732 C 44.64434047 421.67466608 37.31941638 421.72221916 29.99401402 421.79262805 C 25.43981594 421.83350941 20.88561604 421.85868194 16.3312912 421.88055992 C 14.22213015 421.89438369 12.11300145 421.91521318 10.00398636 421.94361687 C 7.12151439 421.98171678 4.2399139 421.99502635 1.35722351 422.00260925 C 0.5262854 422.01991935 -0.30465272 422.03722944 -1.16077077 422.05506408 C -6.84649859 422.03456913 -11.316371 421.01665245 -15.93858337 417.57783508 C -21.68348632 411.17083506 -20.4927323 402.75769782 -20.43978882 394.62884521 C -20.4436829 392.98127976 -20.4493242 391.33371766 -20.45655972 389.68616349 C -20.47131686 385.16421491 -20.46113162 380.64261448 -20.446823 376.12067711 C -20.43571868 371.24195843 -20.44765399 366.3632888 -20.45666504 361.48457336 C -20.47060285 351.92960809 -20.46303745 342.37477491 -20.44798946 332.81981593 C -20.43113618 321.69551279 -20.43433873 310.57124261 -20.43808354 299.44693065 C -20.44396304 279.60064617 -20.42978661 259.75442512 -20.40513611 239.90815735 C -20.38121185 220.64446129 -20.374133 201.38084997 -20.3846283 182.11714172 C -20.3960337 161.14535553 -20.39797248 140.17360853 -20.3835302 119.20182282 C -20.38200434 116.96626509 -20.38048398 114.73070735 -20.37896919 112.49514961 C -20.37821138 111.3951788 -20.37745356 110.29520799 -20.37667279 109.16190473 C -20.37192729 101.40507451 -20.37378325 93.64826177 -20.37803459 85.89143181 C -20.38295766 76.44108978 -20.37699285 66.99082792 -20.3571403 57.54050427 C -20.34725862 52.71751416 -20.34217267 47.89464621 -20.35003281 43.07164955 C -20.35707833 38.65826316 -20.35031146 34.24512352 -20.33242918 29.83176971 C -20.32837738 28.23363713 -20.32939679 26.63548215 -20.33594804 25.03735786 C -20.34408398 22.86724254 -20.33380432 20.69796155 -20.31890011 18.52789974 C -20.31787098 17.32190528 -20.31684185 16.11591082 -20.31578153 14.87337106 C -19.74629487 9.89783302 -18.10137521 6.65341753 -14.43858337 3.26533508 C -9.8743864 0.18450213 -5.33061333 0.26607253 0 0 Z M -7.65882957 13.19670933 C -9.34652254 16.33685173 -9.31347895 18.60520312 -9.31331348 22.16803837 C -9.31737421 22.83190907 -9.32143494 23.49577977 -9.32561871 24.17976776 C -9.33559986 26.41423665 -9.32411755 28.64808259 -9.31280518 30.88253784 C -9.31554455 32.4966516 -9.31959558 34.11076357 -9.32484883 35.7248711 C -9.33546236 40.16812688 -9.32728948 44.61118228 -9.31609833 49.05442941 C -9.30727495 53.84315463 -9.31569441 58.63185309 -9.32196045 63.420578 C -9.33146116 72.80447956 -9.3248376 82.18830437 -9.31269751 91.57220025 C -9.29909497 102.49214409 -9.3007138 113.41206952 -9.30283084 124.33201968 C -9.30602255 143.81070245 -9.2943423 163.28934869 -9.27476501 182.76802063 C -9.25575747 201.68469862 -9.24867793 220.60133378 -9.2542572 239.51802063 C -9.26030989 260.10080905 -9.26014749 280.68357862 -9.24877137 301.26636547 C -9.24756403 303.4595079 -9.24635805 305.65265034 -9.24515343 307.84579277 C -9.24454989 308.9249578 -9.24394635 310.00412283 -9.24332452 311.11598982 C -9.23943928 318.73442875 -9.23984133 326.35286068 -9.24173927 333.97130013 C -9.24385759 343.25014018 -9.23866476 352.52894266 -9.22412572 361.80777211 C -9.21686362 366.54528666 -9.21282012 371.28274637 -9.21736908 376.02026558 C -9.22142749 380.35214655 -9.21633167 384.683914 -9.203743 389.0157777 C -9.20080053 390.58770385 -9.20126906 392.1596406 -9.20538608 393.73156411 C -9.21045461 395.85900463 -9.20335686 397.98605964 -9.19305897 400.11347294 C -9.19219219 401.29793068 -9.19132541 402.48238842 -9.19043237 403.70273882 C -9.15296567 406.77623712 -9.15296567 406.77623712 -6.93858337 409.57783508 C -4.10361433 409.8720484 -1.48701799 409.96886969 1.3502655 409.93859863 C 2.21768745 409.94116191 3.0851094 409.94372518 3.97881687 409.94636613 C 6.90253182 409.95133072 9.82573707 409.9347672 12.74940491 409.91841125 C 14.83834318 409.91756556 16.92728234 409.918039 19.01622009 409.91973877 C 24.70194821 409.9206024 30.38748791 409.90291727 36.07317209 409.8820169 C 42.00958212 409.86331118 47.94599608 409.86150449 53.88243103 409.85794067 C 65.13051747 409.84860222 76.37851683 409.82396411 87.62656486 409.7938922 C 100.42925748 409.76040415 113.23195417 409.74387628 126.03467965 409.7288059 C 152.37697366 409.6974161 178.71919027 409.64462068 205.06141663 409.57783508 C 204.83151031 409.06889206 204.601604 408.55994904 204.36473083 408.0355835 C 203.3098929 405.69563172 202.25984869 403.35355771 201.20985413 401.01142883 C 200.66736023 399.81084839 200.66736023 399.81084839 200.11390686 398.58601379 C 188.39468849 372.38814879 187.27391238 342.71060611 197.08119202 315.7191925 C 207.42321295 288.9322864 227.02035571 269.14418143 252.78016663 256.72627258 C 263.69458849 252.01761713 274.16379542 250.2818399 286.06141663 247.57783508 C 286.06141663 191.47783508 286.06141663 135.37783508 286.06141663 77.57783508 C 256.85641663 77.08283508 256.85641663 77.08283508 227.06141663 76.57783508 C 222.06141663 73.57783508 222.06141663 73.57783508 221.06141663 70.57783508 C 220.94481729 68.66129457 220.88474914 66.74111355 220.85609436 64.82124329 C 220.83614914 63.64024551 220.81620392 62.45924774 220.7956543 61.24246216 C 220.77058556 59.32985847 220.77058556 59.32985847 220.74501038 57.37861633 C 220.72422928 56.07329453 220.70344818 54.76797272 220.68203735 53.4230957 C 220.6268939 49.95601155 220.57745067 46.48886862 220.52919006 43.02168274 C 220.47891853 39.48240439 220.423262 35.94321119 220.36805725 32.40400696 C 220.26057025 25.46202352 220.15910435 18.51996314 220.06141663 11.57783508 C 191.32145063 11.48663784 162.58150166 11.4158239 133.84141953 11.37357377 C 130.45047757 11.36857078 127.05953589 11.3633935 123.66859436 11.35810852 C 122.99350235 11.35705928 122.31841035 11.35601004 121.62286101 11.354929 C 110.68348039 11.3375109 99.74418363 11.30596554 88.80485281 11.2692239 C 77.58495298 11.23185345 66.36509514 11.20990703 55.14512998 11.2014811 C 48.8409647 11.19625518 42.53698978 11.18392797 36.23288536 11.15491486 C 30.304341 11.12785014 24.37606617 11.11937199 18.4474659 11.12540436 C 16.26692111 11.12430011 14.08636769 11.11629335 11.90587616 11.10101318 C 8.93758649 11.08122541 5.97032571 11.08585496 3.00201416 11.09681702 C 2.13139837 11.08516565 1.26078258 11.07351429 0.36378449 11.06150985 C -4.0460928 10.99480843 -4.0460928 10.99480843 -7.65882957 13.19670933 Z M 231.06141663 20.57783508 C 231.06141663 35.75783508 231.06141663 50.93783508 231.06141663 66.57783508 C 246.24141663 66.57783508 261.42141663 66.57783508 277.06141663 66.57783508 C 272.06608274 60.73687588 272.06608274 60.73687588 266.8160553 55.20307922 C 265.65036263 54.03265831 265.65036263 54.03265831 264.46112061 52.83859253 C 263.23266167 51.61316994 263.23266167 51.61316994 261.97938538 50.36299133 C 261.12460098 49.50725021 260.26981659 48.65150909 259.38912964 47.76983643 C 257.59435284 45.97438254 255.79832627 44.18017718 254.00111389 42.38716125 C 251.23684687 39.62828888 248.47800504 36.86407119 245.71961975 34.09931946 C 243.97319587 32.35355566 242.22646219 30.60810171 240.47938538 28.86299133 C 239.6502916 28.03187332 238.82119781 27.20075531 237.96697998 26.3444519 C 237.20561234 25.58623642 236.44424469 24.82802094 235.6598053 24.04682922 C 234.65103584 23.03925316 234.65103584 23.03925316 233.62188721 22.01132202 C 232.29183588 20.46508378 232.29183588 20.46508378 231.06141663 20.57783508 Z M 232.06141663 283.57783508 C 230.89739319 284.62197571 230.89739319 284.62197571 229.70985413 285.68721008 C 212.17644946 302.1963265 202.24493488 325.4995517 200.83876038 349.35517883 C 200.20763835 377.2617484 210.53888199 402.24232479 229.76063538 422.40986633 C 236.23257596 428.56057191 243.2922765 433.21929861 251.06141663 437.57783508 C 251.86965881 438.04963196 252.677901 438.52142883 253.51063538 439.00752258 C 273.75228205 450.07341431 299.84432081 451.89512326 321.88172913 445.90205383 C 346.68086878 438.38138235 367.42272884 421.84363332 380.24061584 399.26875305 C 384.2437291 391.77076196 386.76467271 383.73370213 389.06141663 375.57783508 C 389.32954163 374.63681946 389.59766663 373.69580383 389.87391663 372.72627258 C 395.34161067 348.80511112 388.91500523 323.07423417 376.59266663 302.41767883 C 372.81777674 296.45019714 368.03645852 291.54522307 363.06141663 286.57783508 C 362.491651 285.93717102 361.92188538 285.29650696 361.33485413 284.63642883 C 346.25313458 267.96919518 321.86553951 259.58603619 299.92860413 258.40986633 C 274.612309 258.24461636 250.76829934 266.26337406 232.06141663 283.57783508 Z" stroke-linecap="round" />
</g>
		<g transform="matrix(1 0 0 1 104.71 127.02)"  >
<path style="stroke: none; stroke-width: 1; stroke-dasharray: none; stroke-linecap: butt; stroke-dashoffset: 0; stroke-linejoin: miter; stroke-miterlimit: 4; fill: rgb(72,23,0); fill-rule: nonzero; opacity: 1;" vector-effect="non-scaling-stroke"  transform=" translate(-8.25, -77.47)" d="M 0 0 C 0.65452148 -0.0004985 1.30904297 -0.00099701 1.98339844 -0.00151062 C 3.36526531 0.00082668 4.74713669 0.0105351 6.12890625 0.02709961 C 8.24257524 0.05069835 10.35498268 0.04765805 12.46875 0.04101562 C 22.83111153 0.08402227 22.83111153 0.08402227 26.25 2.36328125 C 27.29976964 5.51259018 27.35131595 7.75142581 27.3125 11.05078125 C 27.30347656 12.04464844 27.29445313 13.03851563 27.28515625 14.0625 C 27.27355469 14.82175781 27.26195312 15.58101563 27.25 16.36328125 C 28.1575 16.48703125 29.065 16.61078125 30 16.73828125 C 33.25 17.36328125 33.25 17.36328125 35.375 18.48828125 C 37.20360382 19.54528713 37.20360382 19.54528713 39.19140625 19.11328125 C 42.17832794 18.0250669 43.47130925 15.99070584 45.39453125 13.54296875 C 47.74281472 12.04995484 49.49893789 11.95858284 52.21459961 12.48144531 C 56.87641083 14.50117209 60.19274317 18.67104448 63.625 22.30078125 C 64.44355469 23.13802734 65.26210938 23.97527344 66.10546875 24.83789062 C 72.98260128 31.92601312 72.98260128 31.92601312 73.75 36.05078125 C 73.00715014 40.9721616 69.90899431 43.20833208 66.25 46.36328125 C 66.683125 47.51957031 66.683125 47.51957031 67.125 48.69921875 C 67.49625 49.70210938 67.8675 50.705 68.25 51.73828125 C 68.62125 52.73601562 68.9925 53.73375 69.375 54.76171875 C 70.25 57.36328125 70.25 57.36328125 70.25 59.36328125 C 71.08144531 59.34007812 71.91289062 59.316875 72.76953125 59.29296875 C 74.39955078 59.26589844 74.39955078 59.26589844 76.0625 59.23828125 C 77.14144531 59.21507812 78.22039062 59.191875 79.33203125 59.16796875 C 82.25 59.36328125 82.25 59.36328125 85.25 61.36328125 C 85.65405273 64.48022461 85.65405273 64.48022461 85.68359375 68.453125 C 85.6888356 69.15345352 85.69407745 69.85378204 85.69947815 70.57533264 C 85.70590435 72.05728835 85.70455354 73.53929502 85.69604492 75.02124023 C 85.68754351 77.28917393 85.71626727 79.55458165 85.74804688 81.82226562 C 85.74965921 83.26171799 85.74908074 84.70117483 85.74609375 86.140625 C 85.74794678 87.45281006 85.7497998 88.76499512 85.75170898 90.11694336 C 85.25 93.36328125 85.25 93.36328125 83.39379883 95.28271484 C 79.2651023 97.36375468 74.80440161 97.09218592 70.25 97.36328125 C 68.27 102.80828125 68.27 102.80828125 66.25 108.36328125 C 67.405 109.55953125 68.56 110.75578125 69.75 111.98828125 C 72.15566778 114.47986574 73.17081839 115.72851685 73.60375977 119.19921875 C 72.93368929 125.19239564 67.82338476 128.68621246 63.6875 132.73828125 C 62.34461914 134.12853516 62.34461914 134.12853516 60.97460938 135.546875 C 60.09482422 136.42214844 59.21503906 137.29742187 58.30859375 138.19921875 C 57.50736084 138.9989209 56.70612793 139.79862305 55.88061523 140.62255859 C 52.46572115 142.88225185 50.26783006 142.79376304 46.25 142.36328125 C 44.03515625 140.83203125 44.03515625 140.83203125 42.3125 138.86328125 C 41.72597656 138.21359375 41.13945312 137.56390625 40.53515625 136.89453125 C 39.89900391 136.1365625 39.89900391 136.1365625 39.25 135.36328125 C 38.20199219 135.79640625 38.20199219 135.79640625 37.1328125 136.23828125 C 36.22273438 136.60953125 35.31265625 136.98078125 34.375 137.36328125 C 33.47007812 137.73453125 32.56515625 138.10578125 31.6328125 138.48828125 C 29.25 139.36328125 29.25 139.36328125 27.25 139.36328125 C 27.28480469 140.02714844 27.31960938 140.69101562 27.35546875 141.375 C 27.38253906 142.25800781 27.40960938 143.14101563 27.4375 144.05078125 C 27.48970703 145.35595703 27.48970703 145.35595703 27.54296875 146.6875 C 27.17074279 150.08716374 26.41916377 151.70648026 24.25 154.36328125 C 21.00366211 154.96264648 21.00366211 154.96264648 17.02734375 154.921875 C 16.3260585 154.91954361 15.62477325 154.91721222 14.90223694 154.91481018 C 13.42192394 154.90507785 11.94164794 154.88330165 10.46166992 154.8503418 C 8.19198722 154.80087904 5.92447011 154.7888595 3.65429688 154.78320312 C -7.43871429 154.67456696 -7.43871429 154.67456696 -9.75 152.36328125 C -9.9453125 149.32421875 -9.9453125 149.32421875 -9.875 145.73828125 C -9.85695313 144.54976562 -9.83890625 143.36125 -9.8203125 142.13671875 C -9.79710937 141.22148437 -9.77390625 140.30625 -9.75 139.36328125 C -10.43707031 139.15832031 -11.12414062 138.95335937 -11.83203125 138.7421875 C -13.18361328 138.33806641 -13.18361328 138.33806641 -14.5625 137.92578125 C -15.45582031 137.65894531 -16.34914063 137.39210938 -17.26953125 137.1171875 C -19.10473055 136.55940252 -20.93033726 135.9698355 -22.75 135.36328125 C -23.17410156 135.86859375 -23.59820312 136.37390625 -24.03515625 136.89453125 C -24.62167969 137.54421875 -25.20820313 138.19390625 -25.8125 138.86328125 C -26.38097656 139.51296875 -26.94945312 140.16265625 -27.53515625 140.83203125 C -30.73696027 143.04562416 -32.92254475 142.73372932 -36.75 142.36328125 C -39.38061523 140.62255859 -39.38061523 140.62255859 -41.80859375 138.19921875 C -42.68837891 137.32394531 -43.56816406 136.44867188 -44.47460938 135.546875 C -45.36986328 134.62003906 -46.26511719 133.69320312 -47.1875 132.73828125 C -48.57098633 131.38283203 -48.57098633 131.38283203 -49.98242188 130 C -56.65287432 123.2357366 -56.65287432 123.2357366 -57.10375977 119.18554688 C -56.67380538 115.75540699 -55.79530578 114.76087569 -53.25 112.48828125 C -52.27546875 111.59496094 -52.27546875 111.59496094 -51.28125 110.68359375 C -50.7759375 110.24789062 -50.270625 109.8121875 -49.75 109.36328125 C -49.95496094 108.74839844 -50.15992188 108.13351562 -50.37109375 107.5 C -51.49739583 104.12109375 -52.62369792 100.7421875 -53.75 97.36328125 C -54.49765625 97.32589844 -55.2453125 97.28851563 -56.015625 97.25 C -57.00046875 97.18425781 -57.9853125 97.11851562 -59 97.05078125 C -59.97453125 96.99277344 -60.9490625 96.93476563 -61.953125 96.875 C -65.19457078 96.28194218 -66.45315685 95.71873121 -68.75 93.36328125 C -69.25170898 90.22460938 -69.25170898 90.22460938 -69.24609375 86.39453125 C -69.24754898 85.71781372 -69.24900421 85.04109619 -69.25050354 84.34387207 C -69.24884555 82.91491383 -69.23729506 81.48593756 -69.21655273 80.05712891 C -69.18759755 77.87064727 -69.19594259 75.68659083 -69.20898438 73.5 C -69.20274659 72.11066531 -69.19435532 70.72133827 -69.18359375 69.33203125 C -69.17384521 68.06810547 -69.16409668 66.80417969 -69.15405273 65.50195312 C -68.75 62.36328125 -68.75 62.36328125 -67.40527344 60.4597168 C -64.88061203 58.78740789 -62.55232262 58.8365244 -59.5625 58.67578125 C -57.93248047 58.57716797 -57.93248047 58.57716797 -56.26953125 58.4765625 C -55.02236328 58.42048828 -55.02236328 58.42048828 -53.75 58.36328125 C -53.02273948 56.78855185 -52.31879578 55.20303846 -51.625 53.61328125 C -51.23054688 52.7315625 -50.83609375 51.84984375 -50.4296875 50.94140625 C -49.51269016 48.42010858 -49.51269016 48.42010858 -50.46875 46.21875 C -51.87266818 44.10322002 -51.87266818 44.10322002 -54.375 41.42578125 C -56.75 38.36328125 -56.75 38.36328125 -57.17016602 35.99169922 C -56.34186118 30.81010138 -51.761106 27.52474279 -48.16235352 23.95898438 C -46.69312367 22.49388909 -45.2619413 20.9976178 -43.83007812 19.49609375 C -42.90517578 18.56796875 -41.98027344 17.63984375 -41.02734375 16.68359375 C -40.18421631 15.83039551 -39.34108887 14.97719727 -38.47241211 14.09814453 C -35.75 12.36328125 -35.75 12.36328125 -32.04492188 12.50512695 C -27.32539309 13.73431662 -25.89981913 15.75251298 -22.75 19.36328125 C -22.13511719 19.15832031 -21.52023437 18.95335937 -20.88671875 18.7421875 C -15.81835938 17.05273438 -15.81835938 17.05273438 -10.75 15.36328125 C -10.71261719 14.53183594 -10.67523438 13.70039063 -10.63671875 12.84375 C -10.57097656 11.75707031 -10.50523437 10.67039062 -10.4375 9.55078125 C -10.35048828 7.93236328 -10.35048828 7.93236328 -10.26171875 6.28125 C -9.17041225 0.05830378 -5.79640917 -0.01413945 0 0 Z M 1.25 12.36328125 C 0.92 15.99328125 0.59 19.62328125 0.25 23.36328125 C -0.636875 23.73453125 -1.52375 24.10578125 -2.4375 24.48828125 C -4.95843628 25.55107924 -7.40807864 26.68777925 -9.86328125 27.8984375 C -11.53970703 28.71634766 -11.53970703 28.71634766 -13.25 29.55078125 C -14.84328125 30.34548828 -14.84328125 30.34548828 -16.46875 31.15625 C -20.19423424 32.52669599 -22.81011407 32.79183025 -26.75 32.36328125 C -29.55905055 30.6986587 -31.38996808 28.67514925 -33.75 26.36328125 C -36.72 29.33328125 -39.69 32.30328125 -42.75 35.36328125 C -41.265 36.87921875 -41.265 36.87921875 -39.75 38.42578125 C -37.53653737 41.05459673 -36.77903237 42.22339802 -36.0625 45.67578125 C -36.85142014 49.90726199 -38.40715282 53.0259818 -40.44140625 56.7890625 C -42.06587124 59.98465184 -43.13694479 63.22474396 -44.171875 66.6484375 C -44.75 68.36328125 -44.75 68.36328125 -45.75 69.36328125 C -49.74102718 69.82708785 -53.74210968 70.06796302 -57.75 70.36328125 C -57.75 74.98328125 -57.75 79.60328125 -57.75 84.36328125 C -55.97625 84.50765625 -54.2025 84.65203125 -52.375 84.80078125 C -47 85.23828125 -47 85.23828125 -44.75 86.36328125 C -43.8663163 88.56519937 -43.06701892 90.80132765 -42.3125 93.05078125 C -40.74493317 97.7043417 -38.95900829 101.98291823 -36.75 106.36328125 C -36.1875 109.30078125 -36.1875 109.30078125 -36.75 112.36328125 C -38.56044459 114.96087566 -40.54345006 117.06479173 -42.75 119.36328125 C -38.295 123.81828125 -38.295 123.81828125 -33.75 128.36328125 C -32.574375 127.35265625 -31.39875 126.34203125 -30.1875 125.30078125 C -27.14102693 123.03600426 -26.15022762 122.37757509 -22.25 122.23828125 C -18.90499199 123.3134624 -16.09177461 124.64941069 -13.015625 126.30859375 C -8.78152467 128.27964045 -4.26885393 129.23356777 0.25 130.36328125 C 0.745 136.79828125 0.745 136.79828125 1.25 143.36328125 C 5.87 143.36328125 10.49 143.36328125 15.25 143.36328125 C 15.311875 141.61015625 15.37375 139.85703125 15.4375 138.05078125 C 15.54296875 135.0625 15.54296875 135.0625 16.25 132.36328125 C 19.70615979 129.62109962 23.7581696 128.31028573 27.875 126.80078125 C 31.35070007 125.52423695 34.16262362 124.42153217 37.25 122.36328125 C 41.79157334 122.44738446 43.72676084 122.90683858 47.1875 125.92578125 C 47.868125 126.73015625 48.54875 127.53453125 49.25 128.36328125 C 53.54238623 126.71236347 56.1293915 123.62573559 59.25 120.36328125 C 58.15098719 117.79891803 57.24502431 116.35889093 55.125 114.48828125 C 53.25 112.36328125 53.25 112.36328125 52.6875 109.73828125 C 53.36752278 105.65814454 54.93752447 102.66632494 56.875 99.0390625 C 58.66706566 95.55166199 60.05954913 91.95786735 61.453125 88.296875 C 62.25 86.36328125 62.25 86.36328125 63.25 85.36328125 C 65.09891946 85.12964244 66.95488031 84.9502449 68.8125 84.80078125 C 71.5040625 84.58421875 71.5040625 84.58421875 74.25 84.36328125 C 74.25 79.74328125 74.25 75.12328125 74.25 70.36328125 C 70.29 70.03328125 66.33 69.70328125 62.25 69.36328125 C 61.693125 67.78546875 61.693125 67.78546875 61.125 66.17578125 C 59.27291486 61.12300528 56.81738086 56.39078164 54.359375 51.609375 C 53.02059065 47.69201657 53.2478288 45.35314595 54.25 41.36328125 C 55.6729983 38.97917591 57.31530342 37.39719304 59.25 35.36328125 C 56.28 32.39328125 53.31 29.42328125 50.25 26.36328125 C 49.239375 27.35328125 48.22875 28.34328125 47.1875 29.36328125 C 44.55868452 31.57674388 43.38988323 32.33424888 39.9375 33.05078125 C 35.70482045 32.26163761 32.58614529 30.70735925 28.82421875 28.66796875 C 25.63095108 27.0495296 22.39813671 26.0225893 18.96484375 25.0390625 C 17.25 24.36328125 17.25 24.36328125 16.25 22.36328125 C 15.80846556 19.03814533 15.54991469 15.70518777 15.25 12.36328125 C 10.63 12.36328125 6.01 12.36328125 1.25 12.36328125 Z" stroke-linecap="round" />
</g>
		<g transform="matrix(1 0 0 1 -82.78 -168.03)"  >
<path style="stroke: none; stroke-width: 1; stroke-dasharray: none; stroke-linecap: butt; stroke-dashoffset: 0; stroke-linejoin: miter; stroke-miterlimit: 4; fill: rgb(72,23,0); fill-rule: nonzero; opacity: 1;" vector-effect="non-scaling-stroke"  transform=" translate(-81.33, -19.56)" d="M 0 0 C 1.08507631 -0.00935994 1.08507631 -0.00935994 2.19207335 -0.01890898 C 4.61670212 -0.03486756 7.04032954 -0.0222243 9.46496582 -0.00964355 C 11.20289192 -0.01506343 12.94081342 -0.02218533 14.6787262 -0.03088379 C 19.39979607 -0.04913617 24.12051672 -0.04204174 28.84159279 -0.02936745 C 33.77917049 -0.01924969 38.71671802 -0.02862972 43.65429688 -0.03491211 C 51.9465472 -0.04219208 60.23865508 -0.03259162 68.53088379 -0.0135498 C 78.1217444 0.0082196 87.71226491 0.00116848 97.30311728 -0.02085543 C 105.53337058 -0.03899945 113.76352141 -0.04157264 121.99378824 -0.03110075 C 126.91123436 -0.02486033 131.82852054 -0.02404526 136.74595642 -0.0372467 C 141.36879355 -0.04879007 145.99119162 -0.04080729 150.61398125 -0.01766968 C 152.31193245 -0.01237447 154.00992053 -0.01391023 155.70785713 -0.02272034 C 158.02326847 -0.03362792 160.33726696 -0.01997212 162.65258789 0 C 164.59715252 0.00226215 164.59715252 0.00226215 166.58100128 0.00457001 C 170.38053519 0.59390075 171.57451154 1.44198694 173.82629395 4.50793457 C 174.55097351 8.63346734 174.4430354 12.74102367 174.40270996 16.9251709 C 174.38885296 18.93686756 174.4229061 20.94389714 174.46105957 22.9552002 C 174.45912598 24.22943848 174.45719238 25.50367676 174.4552002 26.81652832 C 174.45628784 28.56147583 174.45628784 28.56147583 174.45739746 30.3416748 C 173.62095703 34.53811426 172.13839421 35.84419192 168.82629395 38.50793457 C 165.49198151 39.13434696 165.49198151 39.13434696 161.61499023 39.13612366 C 160.89962428 39.14321804 160.18425832 39.15031243 159.4472146 39.1576218 C 157.05544604 39.17519308 154.66530456 39.15710341 152.27355957 39.13903809 C 150.55681112 39.14417728 148.84006795 39.15145857 147.12333679 39.16072083 C 142.46415628 39.17924311 137.80554766 39.16629112 133.14639091 39.14663053 C 128.27068283 39.13024952 123.39501112 39.13905616 118.51928711 39.14414978 C 110.33132793 39.14867135 102.14359715 39.13279696 93.95568848 39.1048584 C 84.4892156 39.07280622 75.02315467 39.07282203 65.55665255 39.09007317 C 56.45032873 39.10593671 47.34415595 39.0992058 38.23783875 39.08213615 C 34.36231974 39.07526339 30.48692173 39.07630042 26.61140442 39.08368111 C 22.04762604 39.09134203 17.48431649 39.07922423 12.92061806 39.0518322 C 11.24566858 39.04494524 9.57067534 39.04485375 7.89572716 39.05204773 C 5.60916073 39.06073701 3.32404295 39.04479749 1.03759766 39.02259827 C -0.24180946 39.01979135 -1.52121658 39.01698442 -2.83939362 39.01409245 C -6.7642822 38.41828347 -8.43673768 37.34400339 -11.17370605 34.50793457 C -11.80480957 31.36340332 -11.80480957 31.36340332 -11.8026123 27.69543457 C -11.80502426 27.04469971 -11.80743622 26.39396484 -11.80992126 25.72351074 C -11.80894457 24.35178515 -11.79559258 22.98001929 -11.77062988 21.60852051 C -11.73630101 19.51372866 -11.74997544 17.42315497 -11.76940918 15.32824707 C -11.76251032 13.99229169 -11.75283755 12.65634716 -11.7401123 11.32043457 C -11.72923584 10.11000488 -11.71835938 8.8995752 -11.70715332 7.65246582 C -10.53714292 0.75556241 -6.36596414 0.00740566 0 0 Z M -0.17370605 11.50793457 C -0.17370605 16.78793457 -0.17370605 22.06793457 -0.17370605 27.50793457 C 53.61629395 27.50793457 107.40629395 27.50793457 162.82629395 27.50793457 C 162.82629395 22.22793457 162.82629395 16.94793457 162.82629395 11.50793457 C 109.03629395 11.50793457 55.24629395 11.50793457 -0.17370605 11.50793457 Z" stroke-linecap="round" />
</g>
		<g transform="matrix(1 0 0 1 -41.54 -4.02)"  >
<path style="stroke: none; stroke-width: 1; stroke-dasharray: none; stroke-linecap: butt; stroke-dashoffset: 0; stroke-linejoin: miter; stroke-miterlimit: 4; fill: rgb(72,23,0); fill-rule: nonzero; opacity: 1;" vector-effect="non-scaling-stroke"  transform=" translate(-99.24, -6.33)" d="M 0 0 C 0.87770477 -0.00382555 1.75540954 -0.00765109 2.65971142 -0.01159257 C 5.6123176 -0.02194376 8.56473008 -0.0179264 11.51734924 -0.01396179 C 13.62950318 -0.01830709 15.74165554 -0.02348962 17.85380554 -0.02944946 C 23.59959868 -0.04287019 29.34532616 -0.04341473 35.09113193 -0.04088616 C 39.88262371 -0.03981855 44.67410209 -0.04469442 49.46559101 -0.04949158 C 60.7665453 -0.06059736 72.06746635 -0.06101813 83.36842346 -0.05497742 C 95.03877841 -0.04893531 106.70901287 -0.06125226 118.37934726 -0.08254749 C 128.38873708 -0.10014243 138.39808846 -0.10616818 148.40749317 -0.10290974 C 154.39021997 -0.10109341 160.37286081 -0.10376791 166.35557365 -0.11762428 C 171.98046641 -0.13016378 177.60517084 -0.12829534 183.23006058 -0.11521339 C 185.29729462 -0.1128396 187.36454175 -0.11561084 189.43176079 -0.12383652 C 192.24834807 -0.13423789 195.06429564 -0.12625667 197.88085938 -0.11352539 C 198.70371553 -0.12089968 199.52657169 -0.12827396 200.37436289 -0.13587171 C 203.66190388 -0.10449367 206.08501638 0.03788576 209.01551914 1.59658527 C 210.50392151 3.26069641 210.50392151 3.26069641 210.94142151 6.26069641 C 210.45673004 9.58429507 210.06825838 10.25195121 207.50392151 12.26069641 C 204.58868334 12.5578334 201.88653081 12.66952204 198.96987915 12.64837646 C 198.08809083 12.653762 197.20630251 12.65914754 196.29779333 12.66469628 C 193.33128753 12.67904932 190.36522334 12.67185407 187.3986969 12.66474915 C 185.27668904 12.67044887 183.15468425 12.67741158 181.03268433 12.68554688 C 175.26000626 12.70353734 169.48747971 12.70229884 163.714782 12.69660449 C 158.90091647 12.69352111 154.0870804 12.69959559 149.27321905 12.70564324 C 137.91951242 12.71970622 126.565881 12.71811245 115.21217346 12.70674133 C 103.48724768 12.69525814 91.76255058 12.70933526 80.03765494 12.73613781 C 69.98154779 12.75826749 59.92551257 12.76493836 49.8693828 12.7590614 C 43.85868796 12.7556841 37.84813973 12.75815808 31.83746529 12.77531242 C 26.18625369 12.79073592 20.53538183 12.78687707 14.88418388 12.76800728 C 12.80727582 12.76430864 10.73034283 12.76746673 8.65345764 12.77789307 C 5.82355801 12.79101755 2.99479728 12.77963157 0.16494751 12.76190186 C -0.6617996 12.77150686 -1.4885467 12.78111187 -2.34034675 12.79100794 C -5.94203493 12.74440711 -8.08092459 12.56017064 -11.04129887 10.42468357 C -12.49607849 8.26069641 -12.49607849 8.26069641 -12.43357849 5.13569641 C -10.44536393 -0.9614949 -5.43215561 -0.02488208 0 0 Z" stroke-linecap="round" />
</g>
		<g transform="matrix(1 0 0 1 -41.6 -107.03)"  >
<path style="stroke: none; stroke-width: 1; stroke-dasharray: none; stroke-linecap: butt; stroke-dashoffset: 0; stroke-linejoin: miter; stroke-miterlimit: 4; fill: rgb(72,23,0); fill-rule: nonzero; opacity: 1;" vector-effect="non-scaling-stroke"  transform=" translate(-98.15, -6.44)" d="M 0 0 C 0.86968652 -0.00467997 1.73937305 -0.00935994 2.63541371 -0.01418173 C 5.55503477 -0.02616555 8.47418938 -0.01666121 11.39381409 -0.00723267 C 13.48478978 -0.01129689 15.57576333 -0.01663793 17.66673279 -0.02316284 C 23.35058805 -0.0368608 29.03428028 -0.03152729 34.71813846 -0.02202559 C 40.66155363 -0.01444085 46.60495465 -0.02147139 52.54837036 -0.02618408 C 62.53121959 -0.03164551 72.51400229 -0.02444028 82.49684143 -0.01016235 C 94.04280445 0.0061604 105.58860852 0.00087988 117.13456768 -0.01564157 C 127.04124006 -0.0292507 136.94786456 -0.03117875 146.85454327 -0.02332556 C 152.77412303 -0.01864533 158.69362807 -0.01803375 164.61320305 -0.02793503 C 170.1790283 -0.03659387 175.74464844 -0.03060242 181.31045151 -0.01325226 C 183.35468645 -0.00928146 185.39893862 -0.01043157 187.44316673 -0.01704025 C 190.2308998 -0.02522239 193.01797317 -0.01497431 195.80566406 0 C 196.61714336 -0.00669217 197.42862266 -0.01338433 198.26469225 -0.02027929 C 202.80068318 0.0270702 205.92960061 0.42409916 209.46632385 3.38095093 C 209.96632385 6.38095093 209.96632385 6.38095093 209.46632385 9.38095093 C 208.1682815 11.04468113 208.1682815 11.04468113 206.46632385 12.38095093 C 203.55108568 12.67808791 200.84893315 12.78977655 197.93228149 12.76863098 C 197.05049317 12.77401652 196.16870485 12.77940206 195.26019567 12.78495079 C 192.29368987 12.79930384 189.32762568 12.79210858 186.36109924 12.78500366 C 184.23909138 12.79070339 182.11708659 12.7976661 179.99508667 12.80580139 C 174.22240861 12.82379186 168.44988206 12.82255335 162.67718434 12.81685901 C 157.86331881 12.81377563 153.04948274 12.81985011 148.23562139 12.82589775 C 136.88191476 12.83996074 125.52828334 12.83836697 114.17457581 12.82699585 C 102.44965002 12.81551266 90.72495292 12.82958978 79.00005728 12.85639232 C 68.94395014 12.878522 58.88791492 12.88519287 48.83178514 12.87931591 C 42.8210903 12.87593862 36.81054207 12.8784126 30.79986763 12.89556694 C 25.14865604 12.91099044 19.49778417 12.90713159 13.84658623 12.8882618 C 11.76967816 12.88456316 9.69274518 12.88772125 7.61585999 12.89814758 C 4.78596036 12.91127207 1.95719963 12.89988608 -0.87265015 12.88215637 C -1.69939725 12.89176138 -2.52614436 12.90136639 -3.37794441 12.91126245 C -7.00231502 12.86436814 -9.11525819 12.68903198 -12.07499027 10.50978184 C -13.53367615 8.38095093 -13.53367615 8.38095093 -13.53367615 5.81845093 C -10.9934041 -0.37346219 -5.95470314 -0.04897304 0 0 Z" stroke-linecap="round" />
</g>
		<g transform="matrix(1 0 0 1 104.76 127.23)"  >
<path style="stroke: none; stroke-width: 1; stroke-dasharray: none; stroke-linecap: butt; stroke-dashoffset: 0; stroke-linejoin: miter; stroke-miterlimit: 4; fill: rgb(72,23,0); fill-rule: nonzero; opacity: 1;" vector-effect="non-scaling-stroke"  transform=" translate(22.41, -34.74)" d="M 0 0 C 10.13547075 7.45057784 16.56270545 16.76000954 18.546875 29.421875 C 19.65432553 41.71031644 16.36111343 52.85971481 8.546875 62.421875 C 0.07494292 70.87959243 -9.98131476 75.42192391 -21.953125 75.734375 C -32.34212261 75.61922601 -41.86988854 72.63401691 -49.453125 65.421875 C -50.14148438 64.77347656 -50.82984375 64.12507813 -51.5390625 63.45703125 C -59.09965793 55.68563855 -63.12403314 46.41422736 -63.578125 35.55859375 C -63.07123458 22.83881238 -58.97423754 12.33256292 -49.640625 3.546875 C -35.78880929 -7.68578647 -15.21287871 -9.78662898 0 0 Z M -46.0625 17.3828125 C -50.90378659 24.48155295 -52.64346912 31.91941702 -51.453125 40.421875 C -49.37514099 48.40693715 -45.70292969 54.50013427 -38.890625 59.18359375 C -30.52065326 63.95848454 -22.20327406 65.21925197 -12.8125 62.71875 C -10.51844785 61.79800798 -8.53726524 60.74738819 -6.453125 59.421875 C -5.82921875 59.03257812 -5.2053125 58.64328125 -4.5625 58.2421875 C 1.15514037 54.0409648 4.31834536 48.05234128 6.546875 41.421875 C 7.96029879 32.16448867 6.41195672 24.77941401 0.96875 17.234375 C -4.33512489 10.73593369 -10.94999823 6.12524924 -19.51171875 5.19921875 C -30.18882341 4.77361492 -39.34138675 9.06985664 -46.0625 17.3828125 Z" stroke-linecap="round" />
</g>
		<g transform="matrix(1 0 0 1 -41.6 -55.52)"  >
<path style="stroke: none; stroke-width: 1; stroke-dasharray: none; stroke-linecap: butt; stroke-dashoffset: 0; stroke-linejoin: miter; stroke-miterlimit: 4; fill: rgb(72,23,0); fill-rule: nonzero; opacity: 1;" vector-effect="non-scaling-stroke"  transform=" translate(-102.77, -5.84)" d="M 0 0 C 1.25469561 0.00566899 1.25469561 0.00566899 2.5347386 0.0114525 C 3.42046161 0.00762695 4.30618463 0.0038014 5.21874774 -0.00014007 C 8.20443216 -0.01050819 11.18992564 -0.00647073 14.175623 -0.0025093 C 16.30895612 -0.00685366 18.44228768 -0.01203588 20.5756169 -0.01799697 C 26.38338339 -0.03142782 32.19108498 -0.03196111 37.998864 -0.02943367 C 42.84010638 -0.02836672 47.68133547 -0.03324021 52.52257502 -0.03803909 C 63.93997474 -0.04914841 75.35734157 -0.04956368 86.77474409 -0.04352492 C 98.56949773 -0.03748269 110.36413216 -0.04979928 122.15886545 -0.07109499 C 132.27097863 -0.08868414 142.38305376 -0.0947166 152.49518168 -0.09145725 C 158.54104835 -0.08963995 164.58682998 -0.09232484 170.63268286 -0.10617179 C 176.31665449 -0.11870188 182.00043965 -0.11685187 187.68440825 -0.1037609 C 189.77463727 -0.10138502 191.86487922 -0.1041657 193.95509344 -0.11238402 C 196.80054639 -0.12276798 199.64536394 -0.11481842 202.49079329 -0.10207289 C 203.3250263 -0.10944718 204.15925932 -0.11682146 205.01877213 -0.12441921 C 210.63416567 -0.07121697 210.63416567 -0.07121697 212.79125941 1.60416329 C 214.74368388 4.13849799 214.40550165 6.17725638 214.07625777 9.27214891 C 211.47485083 11.87355585 209.67036369 11.51894725 206.12634242 11.54895991 C 205.28598773 11.54586271 204.44563304 11.5427655 203.57981306 11.53957444 C 202.6900065 11.54410556 201.80019993 11.54863667 200.88342953 11.55330509 C 197.88393301 11.5660261 194.88461627 11.56432379 191.88509566 11.56267625 C 189.74190987 11.56865667 187.59872625 11.57546108 185.45554549 11.58303148 C 179.62092637 11.60074743 173.78636585 11.60538918 167.95172244 11.60666305 C 163.08811113 11.60855821 158.22451359 11.61591125 153.36090755 11.62300724 C 141.8907731 11.63930978 130.42067005 11.64417446 118.95052534 11.64275438 C 107.10121065 11.6415522 95.25207789 11.66266507 83.40280926 11.6942417 C 73.24398635 11.72035318 63.08522304 11.73112384 52.92636681 11.72984356 C 46.85252244 11.72933245 40.77883967 11.73509768 34.70502859 11.75619966 C 28.9947532 11.77549599 23.28479499 11.77576569 17.57450873 11.76116639 C 15.4746003 11.75906652 13.37467247 11.7638487 11.2747975 11.77588731 C 8.41604842 11.79121945 5.55840959 11.78211189 2.69968611 11.76662523 C 1.44250016 11.78205591 1.44250016 11.78205591 0.15991652 11.79779834 C -5.42010867 11.73063245 -5.42010867 11.73063245 -7.97442526 9.40530664 C -9.22364143 6.59826199 -8.90703339 5.1463846 -7.92374223 2.27214891 C -5.32660113 -0.32499219 -3.53835727 0.02722375 0 0 Z" stroke-linecap="round" />
</g>
		<g transform="matrix(1 0 0 1 -71.78 47.47)"  >
<path style="stroke: none; stroke-width: 1; stroke-dasharray: none; stroke-linecap: butt; stroke-dashoffset: 0; stroke-linejoin: miter; stroke-miterlimit: 4; fill: rgb(72,23,0); fill-rule: nonzero; opacity: 1;" vector-effect="non-scaling-stroke"  transform=" translate(-72.32, -5.82)" d="M 0 0 C 1.31943604 -0.00708481 2.63887207 -0.01416962 3.99829102 -0.02146912 C 5.46916233 -0.01917507 6.94003331 -0.01666534 8.41090393 -0.01396179 C 9.95311226 -0.01830686 11.49531843 -0.02348932 13.03752136 -0.02944946 C 17.23377573 -0.04287301 21.42994022 -0.04341441 25.62621188 -0.04088616 C 29.12537906 -0.03981869 32.62452788 -0.04469408 36.12369114 -0.04949158 C 44.37683194 -0.06059844 52.62992723 -0.06101761 60.8830719 -0.05497742 C 69.40594895 -0.04893586 77.928661 -0.06125053 86.45150989 -0.08254749 C 93.76110147 -0.10014321 101.07064043 -0.10616805 108.38025242 -0.10290974 C 112.7493911 -0.10109344 117.11841209 -0.10376738 121.48753166 -0.11762428 C 125.59563787 -0.13016507 129.70348622 -0.12829435 133.81158829 -0.11521339 C 135.32129693 -0.11283982 136.8310235 -0.11561013 138.34071159 -0.12383652 C 140.39801652 -0.13424045 142.45444602 -0.12625592 144.51171875 -0.11352539 C 146.24033221 -0.113777 146.24033221 -0.113777 148.00386715 -0.1140337 C 150.8193512 0.26069641 150.8193512 0.26069641 152.72529697 1.55752277 C 153.8193512 3.26069641 153.8193512 3.26069641 153.6318512 6.88569641 C 153.3637262 7.99944641 153.0956012 9.11319641 152.8193512 10.26069641 C 150.03501171 11.65286616 147.75532485 11.39630627 144.63870239 11.40786743 C 143.31926636 11.41502274 141.99983032 11.42217804 140.64041138 11.42955017 C 139.16954064 11.43239054 137.69866965 11.43510226 136.22779846 11.43769836 C 134.68559109 11.4439617 133.14338523 11.45060838 131.60118103 11.45761108 C 127.40495612 11.47502943 123.20874262 11.48557448 119.01249051 11.49381661 C 116.39293738 11.49896355 113.77338782 11.50503933 111.1538372 11.51132774 C 102.96379689 11.53037962 94.77376561 11.54461242 86.58370739 11.55293971 C 77.11809727 11.56272207 67.65272039 11.58906751 58.1871925 11.62944061 C 50.87760959 11.65955249 43.56809373 11.67440377 36.25844997 11.67772073 C 31.88925173 11.68007629 27.52030265 11.6891024 23.15117073 11.7141819 C 19.04302978 11.73738265 14.93530347 11.74172846 10.82711411 11.73142052 C 9.31739235 11.73092313 7.80765072 11.73730299 6.2979908 11.75097656 C 4.24048533 11.76857322 2.18448797 11.76165244 0.12698364 11.7484436 C -1.60162982 11.75202613 -1.60162982 11.75202613 -3.36516476 11.75568104 C -6.1806488 11.26069641 -6.1806488 11.26069641 -8.08659458 9.39427471 C -9.1806488 7.26069641 -9.1806488 7.26069641 -8.9931488 4.63569641 C -7.28954826 -0.34405903 -4.79474667 0.00854403 0 0 Z" stroke-linecap="round" />
</g>
		<g transform="matrix(1 0 0 1 -81.6 98.84)"  >
<path style="stroke: none; stroke-width: 1; stroke-dasharray: none; stroke-linecap: butt; stroke-dashoffset: 0; stroke-linejoin: miter; stroke-miterlimit: 4; fill: rgb(72,23,0); fill-rule: nonzero; opacity: 1;" vector-effect="non-scaling-stroke"  transform=" translate(-62.11, -6.43)" d="M 0 0 C 1.70344322 -0.01475121 1.70344322 -0.01475121 3.44129944 -0.02980042 C 4.68298386 -0.02013245 5.92466827 -0.01046448 7.20397949 -0.00050354 C 8.51487045 -0.00590652 9.82576141 -0.01130951 11.17637634 -0.01687622 C 14.76943703 -0.03083738 18.36201922 -0.01965689 21.95505333 -0.00316501 C 25.71548208 0.01068649 29.47588307 0.00422531 33.23632812 0.0007019 C 39.55130728 -0.00200015 45.86609635 0.01147484 52.18103027 0.03465271 C 59.48154396 0.06126254 66.78173984 0.0630096 74.0822854 0.05126435 C 81.10571514 0.04048432 88.12902995 0.04667536 95.15245056 0.06081963 C 98.14121722 0.06657752 101.12989971 0.06649832 104.1186676 0.06175423 C 108.29181212 0.05609492 112.46448217 0.07530423 116.63757324 0.09715271 C 117.87925766 0.09265106 119.12094208 0.08814941 120.4002533 0.08351135 C 122.10369652 0.0983683 122.10369652 0.0983683 123.84155273 0.11352539 C 124.82820671 0.11595529 125.81486069 0.11838518 126.83141327 0.12088871 C 129.86828702 0.56693427 131.24871336 1.35402978 133.42077637 3.50120544 C 133.92077637 6.50120544 133.92077637 6.50120544 133.42077637 9.50120544 C 130.35945334 12.52973947 128.05660962 12.87614405 123.83482361 12.87542725 C 122.12921265 12.88594872 122.12921265 12.88594872 120.3891449 12.89668274 C 119.14588943 12.889039 117.90263397 12.88139526 116.6217041 12.8735199 C 114.65295822 12.8789959 114.65295822 12.8789959 112.6444397 12.88458252 C 109.04738451 12.8939849 105.45060174 12.88457225 101.85356784 12.87125039 C 98.09000531 12.85993276 94.32645613 12.86404358 90.56288147 12.86599731 C 84.24373931 12.86688008 77.92470448 12.85580261 71.60559082 12.83738708 C 64.29715581 12.81621054 56.98887791 12.81271162 49.68041843 12.81894904 C 42.65166614 12.82464086 35.62296924 12.81899979 28.59422493 12.8077755 C 25.6018579 12.80312802 22.60952473 12.80225629 19.61715508 12.80436134 C 15.44150411 12.80659226 11.26607387 12.79214546 7.0904541 12.77586365 C 5.84517441 12.77834106 4.59989471 12.78081848 3.31687927 12.78337097 C 1.61549805 12.77274376 1.61549805 12.77274376 -0.12025452 12.76190186 C -1.10783029 12.75984899 -2.09540606 12.75779612 -3.11290836 12.75568104 C -5.57922363 12.50120544 -5.57922363 12.50120544 -8.57922363 10.50120544 C -9.51672363 7.62620544 -9.51672363 7.62620544 -9.57922363 4.50120544 C -6.69052896 0.70666405 -4.69027309 0.00099488 0 0 Z" stroke-linecap="round" />
</g>
		<g transform="matrix(1 0 0 1 -81.81 150.47)"  >
<path style="stroke: none; stroke-width: 1; stroke-dasharray: none; stroke-linecap: butt; stroke-dashoffset: 0; stroke-linejoin: miter; stroke-miterlimit: 4; fill: rgb(72,23,0); fill-rule: nonzero; opacity: 1;" vector-effect="non-scaling-stroke"  transform=" translate(-63.01, -5.82)" d="M 0 0 C 1.16101227 -0.00708481 2.32202454 -0.01416962 3.51821899 -0.02146912 C 4.79828827 -0.0189917 6.07835754 -0.01651428 7.3972168 -0.01396179 C 8.75385825 -0.01830717 10.11049725 -0.02348973 11.46713257 -0.02944946 C 15.15714092 -0.04286859 18.84704704 -0.04341499 22.53707504 -0.04088616 C 25.6138317 -0.03981856 28.69056748 -0.04469432 31.76731968 -0.04949158 C 39.02319961 -0.06059654 46.27902778 -0.06101843 53.53491211 -0.05497742 C 61.02967047 -0.04893367 68.52424128 -0.06125646 76.01896763 -0.08254749 C 82.44617444 -0.10013705 88.87332141 -0.1061691 95.30055141 -0.10290974 C 99.14260898 -0.10109272 102.98453274 -0.1037746 106.8265686 -0.11762428 C 110.43811438 -0.13015544 114.04936673 -0.12830375 117.66090775 -0.11521339 C 119.62383023 -0.11170181 121.58676147 -0.12305978 123.5496521 -0.13478088 C 125.2911705 -0.12425941 125.2911705 -0.12425941 127.06787109 -0.11352539 C 128.08108932 -0.11369313 129.09430756 -0.11386087 130.13822937 -0.1140337 C 130.92881241 0.00962724 131.71939545 0.13328817 132.53393555 0.26069641 C 134.53393555 3.26069641 134.53393555 3.26069641 134.28393555 6.88569641 C 133.91268555 8.55632141 133.91268555 8.55632141 133.53393555 10.26069641 C 130.93183247 11.56174795 129.02765338 11.39546622 126.11256409 11.40786743 C 124.96141113 11.41502274 123.81025818 11.42217804 122.6242218 11.42955017 C 121.35507431 11.43223907 120.08592682 11.43492798 118.77832031 11.43769836 C 117.43315454 11.44396224 116.0879905 11.45060897 114.74282837 11.45761108 C 111.08377718 11.47502439 107.42473906 11.4855731 103.76565671 11.49381661 C 101.48112272 11.49896463 99.19659281 11.50504036 96.91206169 11.51132774 C 89.76853632 11.53037824 82.6250213 11.54461132 75.48147541 11.55293971 C 67.22706074 11.56272154 58.97291355 11.58906601 50.71859318 11.62944061 C 44.34318483 11.65955843 37.96785336 11.67440433 31.59237522 11.67772073 C 27.78207505 11.68007562 23.97206069 11.68909283 20.16183662 11.7141819 C 16.57897433 11.73739321 12.99658746 11.74172438 9.41366959 11.73142052 C 7.46879776 11.73068594 5.52395044 11.74982468 3.57917786 11.76948547 C 2.42520508 11.76254166 1.2712323 11.75559784 0.08229065 11.7484436 C -0.92263144 11.75083196 -1.92755354 11.75322031 -2.96292782 11.75568104 C -5.46606445 11.26069641 -5.46606445 11.26069641 -7.3245554 9.39427471 C -8.46606445 7.26069641 -8.46606445 7.26069641 -8.27856445 4.63569641 C -6.67394134 -0.05474037 -4.55097981 0.00922069 0 0 Z" stroke-linecap="round" />
</g>
		<g transform="matrix(1 0 0 1 -169.8 -3.89)"  >
<path style="stroke: none; stroke-width: 1; stroke-dasharray: none; stroke-linecap: butt; stroke-dashoffset: 0; stroke-linejoin: miter; stroke-miterlimit: 4; fill: rgb(72,23,0); fill-rule: nonzero; opacity: 1;" vector-effect="non-scaling-stroke"  transform=" translate(3.51, -5.2)" d="M 0 0 C 2 2 2 2 2.3125 4.9375 C 2 8 2 8 0.8125 9.875 C -1.65507108 11.40659584 -3.14519831 11.42822025 -6 11 C -7.8125 9.875 -7.8125 9.875 -9 8 C -9.4375 5 -9.4375 5 -9 2 C -6.12524616 -1.3006433 -4.03854228 -1.38160657 0 0 Z" stroke-linecap="round" />
</g>
		<g transform="matrix(1 0 0 1 -169.64 150.48)"  >
<path style="stroke: none; stroke-width: 1; stroke-dasharray: none; stroke-linecap: butt; stroke-dashoffset: 0; stroke-linejoin: miter; stroke-miterlimit: 4; fill: rgb(72,23,0); fill-rule: nonzero; opacity: 1;" vector-effect="non-scaling-stroke"  transform=" translate(-0.2, -5.75)" d="M 0 0 C 3.5625 0.1875 3.5625 0.1875 5.5625 2.1875 C 5.8125 5.6875 5.8125 5.6875 5.5625 9.1875 C 3.5625 11.1875 3.5625 11.1875 0.625 11.5 C -2.4375 11.1875 -2.4375 11.1875 -4.375 10.125 C -6.06931173 7.03537273 -5.17701685 4.51532582 -4.4375 1.1875 C -3.4375 0.1875 -3.4375 0.1875 0 0 Z" stroke-linecap="round" />
</g>
		<g transform="matrix(1 0 0 1 -169.83 98.97)"  >
<path style="stroke: none; stroke-width: 1; stroke-dasharray: none; stroke-linecap: butt; stroke-dashoffset: 0; stroke-linejoin: miter; stroke-miterlimit: 4; fill: rgb(72,23,0); fill-rule: nonzero; opacity: 1;" vector-effect="non-scaling-stroke"  transform=" translate(4.54, -5.06)" d="M 0 0 C 1.41441874 2.82883747 1.31900332 4.87376745 1 8 C -0.6875 9.9375 -0.6875 9.9375 -3 11 C -6.37036311 10.75925978 -7.58798021 10.41201979 -10 8 C -10.375 5.0625 -10.375 5.0625 -10 2 C -6.95805567 -1.62693363 -4.34226025 -1.25443074 0 0 Z" stroke-linecap="round" />
</g>
		<g transform="matrix(1 0 0 1 -169.88 -106.85)"  >
<path style="stroke: none; stroke-width: 1; stroke-dasharray: none; stroke-linecap: butt; stroke-dashoffset: 0; stroke-linejoin: miter; stroke-miterlimit: 4; fill: rgb(72,23,0); fill-rule: nonzero; opacity: 1;" vector-effect="non-scaling-stroke"  transform=" translate(2.34, -5.49)" d="M 0 0 C 2.25 1.25 2.25 1.25 3.25 2.25 C 3.5 5.6875 3.5 5.6875 3.25 9.25 C 0.01746204 11.40502531 -1.00150923 11.71856135 -4.75 11.25 C -6.5625 10.125 -6.5625 10.125 -7.75 8.25 C -8.25 5.25 -8.25 5.25 -7.75 2.25 C -4.93014202 -0.32815587 -3.73790549 -1.01942877 0 0 Z" stroke-linecap="round" />
</g>
		<g transform="matrix(1 0 0 1 -169.63 47.45)"  >
<path style="stroke: none; stroke-width: 1; stroke-dasharray: none; stroke-linecap: butt; stroke-dashoffset: 0; stroke-linejoin: miter; stroke-miterlimit: 4; fill: rgb(72,23,0); fill-rule: nonzero; opacity: 1;" vector-effect="non-scaling-stroke"  transform=" translate(3.34, -5.54)" d="M 0 0 C 2 2 2 2 2.25 5.5 C 2 9 2 9 0 11 C -3.09771665 11.32954432 -5.17331023 11.45334601 -7.9375 9.9375 C -9.64787795 6.81857551 -8.80513863 4.34442199 -8 1 C -5.23749964 -0.38125018 -3.05268901 -0.19079306 0 0 Z" stroke-linecap="round" />
</g>
		<g transform="matrix(1 0 0 1 -169.62 -55.39)"  >
<path style="stroke: none; stroke-width: 1; stroke-dasharray: none; stroke-linecap: butt; stroke-dashoffset: 0; stroke-linejoin: miter; stroke-miterlimit: 4; fill: rgb(72,23,0); fill-rule: nonzero; opacity: 1;" vector-effect="non-scaling-stroke"  transform=" translate(4.34, -4.7)" d="M 0 0 C 1 1 1 1 1.1875 4.4375 C 1 8 1 8 -1 10 C -4.5 10.3125 -4.5 10.3125 -8 10 C -10 7 -10 7 -9.75 3.375 C -9.5025 2.26125 -9.255 1.1475 -9 0 C -5.90842747 -1.54578627 -3.31526981 -0.60277633 0 0 Z" stroke-linecap="round" />
</g>
</g>
</g>
<g transform="matrix(0 0 NaN NaN 385.42 0)"  >
<g style=""   >
</g>
</g>
<g transform="matrix(0 0 NaN NaN 385.42 0)"  >
<g style=""   >
</g>
</g>
</svg>