<?xml version="1.0" encoding="utf-8"?>
<svg xmlns="http://www.w3.org/2000/svg" viewBox="0 -1.3 325.689 352.433">
  <desc>Created with Fabric.js 5.2.4</desc>
  <g transform="matrix(1, 0, 0, 1, 247.564529, 253.51474)" id="e51f3511-3d3d-4983-a87b-81d944e254dc">
    <rect style="stroke: none; stroke-width: 1; stroke-dasharray: none; stroke-linecap: butt; stroke-dashoffset: 0; stroke-linejoin: miter; stroke-miterlimit: 4; fill: rgb(255,255,255); fill-rule: nonzero; opacity: 1; visibility: hidden;" vector-effect="non-scaling-stroke" x="-250" y="-250" rx="0" ry="0" width="500" height="500"/>
  </g>
  <g id="52041676-53f4-415e-b3a6-7315148d1b9c" transform="matrix(1, 0, 0, 1, -2.435472, 3.514727)"/>
  <g transform="matrix(0.93902, 0, 0, 0.966664, 9.661012, 7.220737)" style="">
    <g transform="matrix(0.765865, 0, 0, 0.756316, 165.560806, 172.839706)" vector-effect="non-scaling-stroke">
      <path style="stroke: none; stroke-width: 1; stroke-dasharray: none; stroke-linecap: butt; stroke-dashoffset: 0; stroke-linejoin: miter; stroke-miterlimit: 4; fill-rule: nonzero; opacity: 1;" vector-effect="non-scaling-stroke" transform=" translate(-191.35, -226.66)" d="M 0 0 C 1.39 -0.073 110.681 -0.94 120.373 -0.835 C 223.422 0.287 220.652 -7.525 261.585 20.447 C 290.41 40.145 296.891 71.168 298.776 106.09 C 299.402 122.029 299.187 226.461 297.647 247.578 C 298.149 247.573 216.358 264.024 199.218 298.819 C 174.802 348.384 211.729 421.572 206.693 421.016 C 201.859 420.777 197.057 420.844 192.22 420.96 C 190.044 420.961 187.868 420.955 185.691 420.944 C 179.818 420.93 173.949 421.002 168.077 421.088 C 161.918 421.163 155.758 421.154 149.599 421.154 C 137.942 421.165 126.287 421.244 114.631 421.35 C 93.744 421.538 72.857 421.602 51.97 421.654 C 44.644 421.675 37.319 421.722 29.994 421.793 C 25.44 421.834 20.886 421.859 16.331 421.881 C 14.222 421.894 12.113 421.915 10.004 421.944 C 7.122 421.982 4.24 421.995 1.357 422.003 C 0.526 422.02 -0.305 422.037 -1.161 422.055 C -6.846 422.035 -11.316 421.017 -15.939 417.578 C -21.683 411.171 -20.493 402.758 -20.44 394.629 C -20.444 392.981 -20.449 391.334 -20.457 389.686 C -20.471 385.164 -20.461 380.643 -20.447 376.121 C -20.436 371.242 -20.448 366.363 -20.457 361.485 C -20.471 351.93 -20.463 342.375 -20.448 332.82 C -20.431 321.696 -20.434 310.571 -20.438 299.447 C -20.444 279.601 -20.43 259.754 -20.405 239.908 C -20.381 220.644 -20.374 201.381 -20.385 182.117 C -20.396 161.145 -20.398 140.174 -20.384 119.202 C -20.382 116.966 -20.38 114.731 -20.379 112.495 C -20.378 111.395 -20.377 110.295 -20.377 109.162 C -20.372 101.405 -20.374 93.648 -20.378 85.891 C -20.383 76.441 -20.377 66.991 -20.357 57.541 C -20.347 52.718 -20.342 47.895 -20.35 43.072 C -20.357 38.658 -20.35 34.245 -20.332 29.832 C -20.328 28.234 -20.329 26.635 -20.336 25.037 C -20.344 22.867 -20.334 20.698 -20.319 18.528 C -20.318 17.322 -20.317 16.116 -20.316 14.873 C -19.746 9.898 -18.101 6.653 -14.439 3.265 C -9.874 0.185 -5.331 0.266 0 0 Z M -7.659 13.197 C -9.347 16.337 -9.313 18.605 -9.313 22.168 C -9.317 22.832 -9.321 23.496 -9.326 24.18 C -9.336 26.414 -9.324 28.648 -9.313 30.883 C -9.316 32.497 -9.32 34.111 -9.325 35.725 C -9.335 40.168 -9.327 44.611 -9.316 49.054 C -9.307 53.843 -9.316 58.632 -9.322 63.421 C -9.331 72.804 -9.325 82.188 -9.313 91.572 C -9.299 102.492 -9.301 113.412 -9.303 124.332 C -9.306 143.811 -9.294 163.289 -9.275 182.768 C -9.256 201.685 -9.249 220.601 -9.254 239.518 C -9.26 260.101 -9.26 280.684 -9.249 301.266 C -9.248 303.46 -9.246 305.653 -9.245 307.846 C -9.245 308.925 -9.244 310.004 -9.243 311.116 C -9.239 318.734 -9.24 326.353 -9.242 333.971 C -9.244 343.25 -9.239 352.529 -9.224 361.808 C -9.217 366.545 -9.213 371.283 -9.217 376.02 C -9.221 380.352 -9.216 384.684 -9.204 389.016 C -9.201 390.588 -9.201 392.16 -9.205 393.732 C -9.21 395.859 -9.203 397.986 -9.193 400.113 C -9.192 401.298 -9.191 402.482 -9.19 403.703 C -9.153 406.776 -9.153 406.776 -6.939 409.578 C -4.104 409.872 -1.487 409.969 1.35 409.939 C 2.218 409.941 3.085 409.944 3.979 409.946 C 6.903 409.951 9.826 409.935 12.749 409.918 C 14.838 409.918 16.927 409.918 19.016 409.92 C 24.702 409.921 30.387 409.903 36.073 409.882 C 42.01 409.863 47.946 409.862 53.882 409.858 C 65.131 409.849 76.379 409.824 87.627 409.794 C 100.429 409.76 113.232 409.744 126.035 409.729 C 152.377 409.697 178.719 409.645 205.061 409.578 C 201.584 407.754 179.975 329.314 195.124 304.486 C 210.079 279.974 230.283 273.109 256.043 260.691 C 266.958 255.983 274.164 250.282 286.061 247.578 C 286.061 191.478 286.061 135.378 286.061 77.578 C 256.856 77.083 256.856 77.083 227.061 76.578 C 222.061 73.578 222.061 73.578 221.061 70.578 C 220.945 68.661 220.885 66.741 220.856 64.821 C 220.836 63.64 220.816 62.459 220.796 61.242 C 220.771 59.33 220.771 59.33 220.745 57.379 C 220.724 56.073 220.703 54.768 220.682 53.423 C 220.627 49.956 220.577 46.489 220.529 43.022 C 220.479 39.482 220.423 35.943 220.368 32.404 C 220.261 25.462 220.159 18.52 220.061 11.578 C 191.321 11.487 162.582 11.416 133.841 11.374 C 130.45 11.369 127.06 11.363 123.669 11.358 C 122.994 11.357 122.318 11.356 121.623 11.355 C 110.683 11.338 99.744 11.306 88.805 11.269 C 77.585 11.232 66.365 11.21 55.145 11.201 C 48.841 11.196 42.537 11.184 36.233 11.155 C 30.304 11.128 24.376 11.119 18.447 11.125 C 16.267 11.124 14.086 11.116 11.906 11.101 C 8.938 11.081 5.97 11.086 3.002 11.097 C 2.131 11.085 1.261 11.074 0.364 11.062 C -4.046 10.995 -4.046 10.995 -7.659 13.197 Z M 231.061 20.578 C 231.061 35.758 231.061 50.938 231.061 66.578 C 246.241 66.578 261.421 66.578 277.061 66.578 C 272.066 60.737 272.066 60.737 266.816 55.203 C 265.65 54.033 265.65 54.033 264.461 52.839 C 263.233 51.613 263.233 51.613 261.979 50.363 C 261.125 49.507 260.27 48.652 259.389 47.77 C 257.594 45.974 255.798 44.18 254.001 42.387 C 251.237 39.628 248.478 36.864 245.72 34.099 C 243.973 32.354 242.226 30.608 240.479 28.863 C 239.65 28.032 238.821 27.201 237.967 26.344 C 237.206 25.586 236.444 24.828 235.66 24.047 C 234.651 23.039 234.651 23.039 233.622 22.011 C 232.292 20.465 232.292 20.465 231.061 20.578 Z" stroke-linecap="round"/>
    </g>
    <g transform="matrix(1, 0, 0, 1, -246.376617, 5.996997)">
      <g transform="matrix(0.765865, 0, 0, 0.756316, 489.632416, 261.410706)" vector-effect="non-scaling-stroke">
        <path style="stroke: none; stroke-width: 1; stroke-dasharray: none; stroke-linecap: butt; stroke-dashoffset: 0; stroke-linejoin: miter; stroke-miterlimit: 4; fill-rule: nonzero; opacity: 1;" vector-effect="non-scaling-stroke" transform=" translate(-8.25, -77.47)" d="M 0 0 C 0.65452148 -0.0004985 1.30904297 -0.00099701 1.98339844 -0.00151062 C 3.36526531 0.00082668 4.74713669 0.0105351 6.12890625 0.02709961 C 8.24257524 0.05069835 10.35498268 0.04765805 12.46875 0.04101562 C 22.83111153 0.08402227 22.83111153 0.08402227 26.25 2.36328125 C 27.29976964 5.51259018 27.35131595 7.75142581 27.3125 11.05078125 C 27.30347656 12.04464844 27.29445313 13.03851563 27.28515625 14.0625 C 27.27355469 14.82175781 27.26195312 15.58101563 27.25 16.36328125 C 28.1575 16.48703125 29.065 16.61078125 30 16.73828125 C 33.25 17.36328125 33.25 17.36328125 35.375 18.48828125 C 37.20360382 19.54528713 37.20360382 19.54528713 39.19140625 19.11328125 C 42.17832794 18.0250669 43.47130925 15.99070584 45.39453125 13.54296875 C 47.74281472 12.04995484 49.49893789 11.95858284 52.21459961 12.48144531 C 56.87641083 14.50117209 60.19274317 18.67104448 63.625 22.30078125 C 64.44355469 23.13802734 65.26210938 23.97527344 66.10546875 24.83789062 C 72.98260128 31.92601312 72.98260128 31.92601312 73.75 36.05078125 C 73.00715014 40.9721616 69.90899431 43.20833208 66.25 46.36328125 C 66.683125 47.51957031 66.683125 47.51957031 67.125 48.69921875 C 67.49625 49.70210938 67.8675 50.705 68.25 51.73828125 C 68.62125 52.73601562 68.9925 53.73375 69.375 54.76171875 C 70.25 57.36328125 70.25 57.36328125 70.25 59.36328125 C 71.08144531 59.34007812 71.91289062 59.316875 72.76953125 59.29296875 C 74.39955078 59.26589844 74.39955078 59.26589844 76.0625 59.23828125 C 77.14144531 59.21507812 78.22039062 59.191875 79.33203125 59.16796875 C 82.25 59.36328125 82.25 59.36328125 85.25 61.36328125 C 85.65405273 64.48022461 85.65405273 64.48022461 85.68359375 68.453125 C 85.6888356 69.15345352 85.69407745 69.85378204 85.69947815 70.57533264 C 85.70590435 72.05728835 85.70455354 73.53929502 85.69604492 75.02124023 C 85.68754351 77.28917393 85.71626727 79.55458165 85.74804688 81.82226562 C 85.74965921 83.26171799 85.74908074 84.70117483 85.74609375 86.140625 C 85.74794678 87.45281006 85.7497998 88.76499512 85.75170898 90.11694336 C 85.25 93.36328125 85.25 93.36328125 83.39379883 95.28271484 C 79.2651023 97.36375468 74.80440161 97.09218592 70.25 97.36328125 C 68.27 102.80828125 68.27 102.80828125 66.25 108.36328125 C 67.405 109.55953125 68.56 110.75578125 69.75 111.98828125 C 72.15566778 114.47986574 73.17081839 115.72851685 73.60375977 119.19921875 C 72.93368929 125.19239564 67.82338476 128.68621246 63.6875 132.73828125 C 62.34461914 134.12853516 62.34461914 134.12853516 60.97460938 135.546875 C 60.09482422 136.42214844 59.21503906 137.29742187 58.30859375 138.19921875 C 57.50736084 138.9989209 56.70612793 139.79862305 55.88061523 140.62255859 C 52.46572115 142.88225185 50.26783006 142.79376304 46.25 142.36328125 C 44.03515625 140.83203125 44.03515625 140.83203125 42.3125 138.86328125 C 41.72597656 138.21359375 41.13945312 137.56390625 40.53515625 136.89453125 C 39.89900391 136.1365625 39.89900391 136.1365625 39.25 135.36328125 C 38.20199219 135.79640625 38.20199219 135.79640625 37.1328125 136.23828125 C 36.22273438 136.60953125 35.31265625 136.98078125 34.375 137.36328125 C 33.47007812 137.73453125 32.56515625 138.10578125 31.6328125 138.48828125 C 29.25 139.36328125 29.25 139.36328125 27.25 139.36328125 C 27.28480469 140.02714844 27.31960938 140.69101562 27.35546875 141.375 C 27.38253906 142.25800781 27.40960938 143.14101563 27.4375 144.05078125 C 27.48970703 145.35595703 27.48970703 145.35595703 27.54296875 146.6875 C 27.17074279 150.08716374 26.41916377 151.70648026 24.25 154.36328125 C 21.00366211 154.96264648 21.00366211 154.96264648 17.02734375 154.921875 C 16.3260585 154.91954361 15.62477325 154.91721222 14.90223694 154.91481018 C 13.42192394 154.90507785 11.94164794 154.88330165 10.46166992 154.8503418 C 8.19198722 154.80087904 5.92447011 154.7888595 3.65429688 154.78320312 C -7.43871429 154.67456696 -7.43871429 154.67456696 -9.75 152.36328125 C -9.9453125 149.32421875 -9.9453125 149.32421875 -9.875 145.73828125 C -9.85695313 144.54976562 -9.83890625 143.36125 -9.8203125 142.13671875 C -9.79710937 141.22148437 -9.77390625 140.30625 -9.75 139.36328125 C -10.43707031 139.15832031 -11.12414062 138.95335937 -11.83203125 138.7421875 C -13.18361328 138.33806641 -13.18361328 138.33806641 -14.5625 137.92578125 C -15.45582031 137.65894531 -16.34914063 137.39210938 -17.26953125 137.1171875 C -19.10473055 136.55940252 -20.93033726 135.9698355 -22.75 135.36328125 C -23.17410156 135.86859375 -23.59820312 136.37390625 -24.03515625 136.89453125 C -24.62167969 137.54421875 -25.20820313 138.19390625 -25.8125 138.86328125 C -26.38097656 139.51296875 -26.94945312 140.16265625 -27.53515625 140.83203125 C -30.73696027 143.04562416 -32.92254475 142.73372932 -36.75 142.36328125 C -39.38061523 140.62255859 -39.38061523 140.62255859 -41.80859375 138.19921875 C -42.68837891 137.32394531 -43.56816406 136.44867188 -44.47460938 135.546875 C -45.36986328 134.62003906 -46.26511719 133.69320312 -47.1875 132.73828125 C -48.57098633 131.38283203 -48.57098633 131.38283203 -49.98242188 130 C -56.65287432 123.2357366 -56.65287432 123.2357366 -57.10375977 119.18554688 C -56.67380538 115.75540699 -55.79530578 114.76087569 -53.25 112.48828125 C -52.27546875 111.59496094 -52.27546875 111.59496094 -51.28125 110.68359375 C -50.7759375 110.24789062 -50.270625 109.8121875 -49.75 109.36328125 C -49.95496094 108.74839844 -50.15992188 108.13351562 -50.37109375 107.5 C -51.49739583 104.12109375 -52.62369792 100.7421875 -53.75 97.36328125 C -54.49765625 97.32589844 -55.2453125 97.28851563 -56.015625 97.25 C -57.00046875 97.18425781 -57.9853125 97.11851562 -59 97.05078125 C -59.97453125 96.99277344 -60.9490625 96.93476563 -61.953125 96.875 C -65.19457078 96.28194218 -66.45315685 95.71873121 -68.75 93.36328125 C -69.25170898 90.22460938 -69.25170898 90.22460938 -69.24609375 86.39453125 C -69.24754898 85.71781372 -69.24900421 85.04109619 -69.25050354 84.34387207 C -69.24884555 82.91491383 -69.23729506 81.48593756 -69.21655273 80.05712891 C -69.18759755 77.87064727 -69.19594259 75.68659083 -69.20898438 73.5 C -69.20274659 72.11066531 -69.19435532 70.72133827 -69.18359375 69.33203125 C -69.17384521 68.06810547 -69.16409668 66.80417969 -69.15405273 65.50195312 C -68.75 62.36328125 -68.75 62.36328125 -67.40527344 60.4597168 C -64.88061203 58.78740789 -62.55232262 58.8365244 -59.5625 58.67578125 C -57.93248047 58.57716797 -57.93248047 58.57716797 -56.26953125 58.4765625 C -55.02236328 58.42048828 -55.02236328 58.42048828 -53.75 58.36328125 C -53.02273948 56.78855185 -52.31879578 55.20303846 -51.625 53.61328125 C -51.23054688 52.7315625 -50.83609375 51.84984375 -50.4296875 50.94140625 C -49.51269016 48.42010858 -49.51269016 48.42010858 -50.46875 46.21875 C -51.87266818 44.10322002 -51.87266818 44.10322002 -54.375 41.42578125 C -56.75 38.36328125 -56.75 38.36328125 -57.17016602 35.99169922 C -56.34186118 30.81010138 -51.761106 27.52474279 -48.16235352 23.95898438 C -46.69312367 22.49388909 -45.2619413 20.9976178 -43.83007812 19.49609375 C -42.90517578 18.56796875 -41.98027344 17.63984375 -41.02734375 16.68359375 C -40.18421631 15.83039551 -39.34108887 14.97719727 -38.47241211 14.09814453 C -35.75 12.36328125 -35.75 12.36328125 -32.04492188 12.50512695 C -27.32539309 13.73431662 -25.89981913 15.75251298 -22.75 19.36328125 C -22.13511719 19.15832031 -21.52023437 18.95335937 -20.88671875 18.7421875 C -15.81835938 17.05273438 -15.81835938 17.05273438 -10.75 15.36328125 C -10.71261719 14.53183594 -10.67523438 13.70039063 -10.63671875 12.84375 C -10.57097656 11.75707031 -10.50523437 10.67039062 -10.4375 9.55078125 C -10.35048828 7.93236328 -10.35048828 7.93236328 -10.26171875 6.28125 C -9.17041225 0.05830378 -5.79640917 -0.01413945 0 0 Z M 1.25 12.36328125 C 0.92 15.99328125 0.59 19.62328125 0.25 23.36328125 C -0.636875 23.73453125 -1.52375 24.10578125 -2.4375 24.48828125 C -4.95843628 25.55107924 -7.40807864 26.68777925 -9.86328125 27.8984375 C -11.53970703 28.71634766 -11.53970703 28.71634766 -13.25 29.55078125 C -14.84328125 30.34548828 -14.84328125 30.34548828 -16.46875 31.15625 C -20.19423424 32.52669599 -22.81011407 32.79183025 -26.75 32.36328125 C -29.55905055 30.6986587 -31.38996808 28.67514925 -33.75 26.36328125 C -36.72 29.33328125 -39.69 32.30328125 -42.75 35.36328125 C -41.265 36.87921875 -41.265 36.87921875 -39.75 38.42578125 C -37.53653737 41.05459673 -36.77903237 42.22339802 -36.0625 45.67578125 C -36.85142014 49.90726199 -38.40715282 53.0259818 -40.44140625 56.7890625 C -42.06587124 59.98465184 -43.13694479 63.22474396 -44.171875 66.6484375 C -44.75 68.36328125 -44.75 68.36328125 -45.75 69.36328125 C -49.74102718 69.82708785 -53.74210968 70.06796302 -57.75 70.36328125 C -57.75 74.98328125 -57.75 79.60328125 -57.75 84.36328125 C -55.97625 84.50765625 -54.2025 84.65203125 -52.375 84.80078125 C -47 85.23828125 -47 85.23828125 -44.75 86.36328125 C -43.8663163 88.56519937 -43.06701892 90.80132765 -42.3125 93.05078125 C -40.74493317 97.7043417 -38.95900829 101.98291823 -36.75 106.36328125 C -36.1875 109.30078125 -36.1875 109.30078125 -36.75 112.36328125 C -38.56044459 114.96087566 -40.54345006 117.06479173 -42.75 119.36328125 C -38.295 123.81828125 -38.295 123.81828125 -33.75 128.36328125 C -32.574375 127.35265625 -31.39875 126.34203125 -30.1875 125.30078125 C -27.14102693 123.03600426 -26.15022762 122.37757509 -22.25 122.23828125 C -18.90499199 123.3134624 -16.09177461 124.64941069 -13.015625 126.30859375 C -8.78152467 128.27964045 -4.26885393 129.23356777 0.25 130.36328125 C 0.745 136.79828125 0.745 136.79828125 1.25 143.36328125 C 5.87 143.36328125 10.49 143.36328125 15.25 143.36328125 C 15.311875 141.61015625 15.37375 139.85703125 15.4375 138.05078125 C 15.54296875 135.0625 15.54296875 135.0625 16.25 132.36328125 C 19.70615979 129.62109962 23.7581696 128.31028573 27.875 126.80078125 C 31.35070007 125.52423695 34.16262362 124.42153217 37.25 122.36328125 C 41.79157334 122.44738446 43.72676084 122.90683858 47.1875 125.92578125 C 47.868125 126.73015625 48.54875 127.53453125 49.25 128.36328125 C 53.54238623 126.71236347 56.1293915 123.62573559 59.25 120.36328125 C 58.15098719 117.79891803 57.24502431 116.35889093 55.125 114.48828125 C 53.25 112.36328125 53.25 112.36328125 52.6875 109.73828125 C 53.36752278 105.65814454 54.93752447 102.66632494 56.875 99.0390625 C 58.66706566 95.55166199 60.05954913 91.95786735 61.453125 88.296875 C 62.25 86.36328125 62.25 86.36328125 63.25 85.36328125 C 65.09891946 85.12964244 66.95488031 84.9502449 68.8125 84.80078125 C 71.5040625 84.58421875 71.5040625 84.58421875 74.25 84.36328125 C 74.25 79.74328125 74.25 75.12328125 74.25 70.36328125 C 70.29 70.03328125 66.33 69.70328125 62.25 69.36328125 C 61.693125 67.78546875 61.693125 67.78546875 61.125 66.17578125 C 59.27291486 61.12300528 56.81738086 56.39078164 54.359375 51.609375 C 53.02059065 47.69201657 53.2478288 45.35314595 54.25 41.36328125 C 55.6729983 38.97917591 57.31530342 37.39719304 59.25 35.36328125 C 56.28 32.39328125 53.31 29.42328125 50.25 26.36328125 C 49.239375 27.35328125 48.22875 28.34328125 47.1875 29.36328125 C 44.55868452 31.57674388 43.38988323 32.33424888 39.9375 33.05078125 C 35.70482045 32.26163761 32.58614529 30.70735925 28.82421875 28.66796875 C 25.63095108 27.0495296 22.39813671 26.0225893 18.96484375 25.0390625 C 17.25 24.36328125 17.25 24.36328125 16.25 22.36328125 C 15.80846556 19.03814533 15.54991469 15.70518777 15.25 12.36328125 C 10.63 12.36328125 6.01 12.36328125 1.25 12.36328125 Z" stroke-linecap="round"/>
      </g>
      <g transform="matrix(0.765865, 0, 0, 0.756316, 489.170959, 261.56955)" vector-effect="non-scaling-stroke">
        <path style="stroke: none; stroke-width: 1; stroke-dasharray: none; stroke-linecap: butt; stroke-dashoffset: 0; stroke-linejoin: miter; stroke-miterlimit: 4; fill-rule: nonzero; opacity: 1;" vector-effect="non-scaling-stroke" transform=" translate(22.41, -34.74)" d="M 0 0 C 10.13547075 7.45057784 16.56270545 16.76000954 18.546875 29.421875 C 19.65432553 41.71031644 16.36111343 52.85971481 8.546875 62.421875 C 0.07494292 70.87959243 -9.98131476 75.42192391 -21.953125 75.734375 C -32.34212261 75.61922601 -41.86988854 72.63401691 -49.453125 65.421875 C -50.14148438 64.77347656 -50.82984375 64.12507813 -51.5390625 63.45703125 C -59.09965793 55.68563855 -63.12403314 46.41422736 -63.578125 35.55859375 C -63.07123458 22.83881238 -58.97423754 12.33256292 -49.640625 3.546875 C -35.78880929 -7.68578647 -15.21287871 -9.78662898 0 0 Z M -46.0625 17.3828125 C -50.90378659 24.48155295 -52.64346912 31.91941702 -51.453125 40.421875 C -49.37514099 48.40693715 -45.70292969 54.50013427 -38.890625 59.18359375 C -30.52065326 63.95848454 -22.20327406 65.21925197 -12.8125 62.71875 C -10.51844785 61.79800798 -8.53726524 60.74738819 -6.453125 59.421875 C -5.82921875 59.03257812 -5.2053125 58.64328125 -4.5625 58.2421875 C 1.15514037 54.0409648 4.31834536 48.05234128 6.546875 41.421875 C 7.96029879 32.16448867 6.41195672 24.77941401 0.96875 17.234375 C -4.33512489 10.73593369 -10.94999823 6.12524924 -19.51171875 5.19921875 C -30.18882341 4.77361492 -39.34138675 9.06985664 -46.0625 17.3828125 Z" stroke-linecap="round"/>
      </g>
    </g>
    <g transform="matrix(0.765865, 0, 0, 0.756316, 101.163002, 45.755928)" vector-effect="non-scaling-stroke">
      <path style="stroke: none; stroke-width: 1; stroke-dasharray: none; stroke-linecap: butt; stroke-dashoffset: 0; stroke-linejoin: miter; stroke-miterlimit: 4; fill-rule: nonzero; opacity: 1;" vector-effect="non-scaling-stroke" transform=" translate(-81.33, -19.56)" d="M 0 0 C 1.08507631 -0.00935994 1.08507631 -0.00935994 2.19207335 -0.01890898 C 4.61670212 -0.03486756 7.04032954 -0.0222243 9.46496582 -0.00964355 C 11.20289192 -0.01506343 12.94081342 -0.02218533 14.6787262 -0.03088379 C 19.39979607 -0.04913617 24.12051672 -0.04204174 28.84159279 -0.02936745 C 33.77917049 -0.01924969 38.71671802 -0.02862972 43.65429688 -0.03491211 C 51.9465472 -0.04219208 60.23865508 -0.03259162 68.53088379 -0.0135498 C 78.1217444 0.0082196 87.71226491 0.00116848 97.30311728 -0.02085543 C 105.53337058 -0.03899945 113.76352141 -0.04157264 121.99378824 -0.03110075 C 126.91123436 -0.02486033 131.82852054 -0.02404526 136.74595642 -0.0372467 C 141.36879355 -0.04879007 145.99119162 -0.04080729 150.61398125 -0.01766968 C 152.31193245 -0.01237447 154.00992053 -0.01391023 155.70785713 -0.02272034 C 158.02326847 -0.03362792 160.33726696 -0.01997212 162.65258789 0 C 164.59715252 0.00226215 164.59715252 0.00226215 166.58100128 0.00457001 C 170.38053519 0.59390075 171.57451154 1.44198694 173.82629395 4.50793457 C 174.55097351 8.63346734 174.4430354 12.74102367 174.40270996 16.9251709 C 174.38885296 18.93686756 174.4229061 20.94389714 174.46105957 22.9552002 C 174.45912598 24.22943848 174.45719238 25.50367676 174.4552002 26.81652832 C 174.45628784 28.56147583 174.45628784 28.56147583 174.45739746 30.3416748 C 173.62095703 34.53811426 172.13839421 35.84419192 168.82629395 38.50793457 C 165.49198151 39.13434696 165.49198151 39.13434696 161.61499023 39.13612366 C 160.89962428 39.14321804 160.18425832 39.15031243 159.4472146 39.1576218 C 157.05544604 39.17519308 154.66530456 39.15710341 152.27355957 39.13903809 C 150.55681112 39.14417728 148.84006795 39.15145857 147.12333679 39.16072083 C 142.46415628 39.17924311 137.80554766 39.16629112 133.14639091 39.14663053 C 128.27068283 39.13024952 123.39501112 39.13905616 118.51928711 39.14414978 C 110.33132793 39.14867135 102.14359715 39.13279696 93.95568848 39.1048584 C 84.4892156 39.07280622 75.02315467 39.07282203 65.55665255 39.09007317 C 56.45032873 39.10593671 47.34415595 39.0992058 38.23783875 39.08213615 C 34.36231974 39.07526339 30.48692173 39.07630042 26.61140442 39.08368111 C 22.04762604 39.09134203 17.48431649 39.07922423 12.92061806 39.0518322 C 11.24566858 39.04494524 9.57067534 39.04485375 7.89572716 39.05204773 C 5.60916073 39.06073701 3.32404295 39.04479749 1.03759766 39.02259827 C -0.24180946 39.01979135 -1.52121658 39.01698442 -2.83939362 39.01409245 C -6.7642822 38.41828347 -8.43673768 37.34400339 -11.17370605 34.50793457 C -11.80480957 31.36340332 -11.80480957 31.36340332 -11.8026123 27.69543457 C -11.80502426 27.04469971 -11.80743622 26.39396484 -11.80992126 25.72351074 C -11.80894457 24.35178515 -11.79559258 22.98001929 -11.77062988 21.60852051 C -11.73630101 19.51372866 -11.74997544 17.42315497 -11.76940918 15.32824707 C -11.76251032 13.99229169 -11.75283755 12.65634716 -11.7401123 11.32043457 C -11.72923584 10.11000488 -11.71835938 8.8995752 -11.70715332 7.65246582 C -10.53714292 0.75556241 -6.36596414 0.00740566 0 0 Z M -0.17370605 11.50793457 C -0.17370605 16.78793457 -0.17370605 22.06793457 -0.17370605 27.50793457 C 53.61629395 27.50793457 107.40629395 27.50793457 162.82629395 27.50793457 C 162.82629395 22.22793457 162.82629395 16.94793457 162.82629395 11.50793457 C 109.03629395 11.50793457 55.24629395 11.50793457 -0.17370605 11.50793457 Z" stroke-linecap="round"/>
    </g>
    <g transform="matrix(0.765865, 0, 0, 0.756316, 132.747269, 169.799316)" vector-effect="non-scaling-stroke">
      <path style="stroke: none; stroke-width: 1; stroke-dasharray: none; stroke-linecap: butt; stroke-dashoffset: 0; stroke-linejoin: miter; stroke-miterlimit: 4; fill-rule: nonzero; opacity: 1;" vector-effect="non-scaling-stroke" transform=" translate(-99.24, -6.33)" d="M 0 0 C 0.87770477 -0.00382555 1.75540954 -0.00765109 2.65971142 -0.01159257 C 5.6123176 -0.02194376 8.56473008 -0.0179264 11.51734924 -0.01396179 C 13.62950318 -0.01830709 15.74165554 -0.02348962 17.85380554 -0.02944946 C 23.59959868 -0.04287019 29.34532616 -0.04341473 35.09113193 -0.04088616 C 39.88262371 -0.03981855 44.67410209 -0.04469442 49.46559101 -0.04949158 C 60.7665453 -0.06059736 72.06746635 -0.06101813 83.36842346 -0.05497742 C 95.03877841 -0.04893531 106.70901287 -0.06125226 118.37934726 -0.08254749 C 128.38873708 -0.10014243 138.39808846 -0.10616818 148.40749317 -0.10290974 C 154.39021997 -0.10109341 160.37286081 -0.10376791 166.35557365 -0.11762428 C 171.98046641 -0.13016378 177.60517084 -0.12829534 183.23006058 -0.11521339 C 185.29729462 -0.1128396 187.36454175 -0.11561084 189.43176079 -0.12383652 C 192.24834807 -0.13423789 195.06429564 -0.12625667 197.88085938 -0.11352539 C 198.70371553 -0.12089968 199.52657169 -0.12827396 200.37436289 -0.13587171 C 203.66190388 -0.10449367 206.08501638 0.03788576 209.01551914 1.59658527 C 210.50392151 3.26069641 210.50392151 3.26069641 210.94142151 6.26069641 C 210.45673004 9.58429507 210.06825838 10.25195121 207.50392151 12.26069641 C 204.58868334 12.5578334 201.88653081 12.66952204 198.96987915 12.64837646 C 198.08809083 12.653762 197.20630251 12.65914754 196.29779333 12.66469628 C 193.33128753 12.67904932 190.36522334 12.67185407 187.3986969 12.66474915 C 185.27668904 12.67044887 183.15468425 12.67741158 181.03268433 12.68554688 C 175.26000626 12.70353734 169.48747971 12.70229884 163.714782 12.69660449 C 158.90091647 12.69352111 154.0870804 12.69959559 149.27321905 12.70564324 C 137.91951242 12.71970622 126.565881 12.71811245 115.21217346 12.70674133 C 103.48724768 12.69525814 91.76255058 12.70933526 80.03765494 12.73613781 C 69.98154779 12.75826749 59.92551257 12.76493836 49.8693828 12.7590614 C 43.85868796 12.7556841 37.84813973 12.75815808 31.83746529 12.77531242 C 26.18625369 12.79073592 20.53538183 12.78687707 14.88418388 12.76800728 C 12.80727582 12.76430864 10.73034283 12.76746673 8.65345764 12.77789307 C 5.82355801 12.79101755 2.99479728 12.77963157 0.16494751 12.76190186 C -0.6617996 12.77150686 -1.4885467 12.78111187 -2.34034675 12.79100794 C -5.94203493 12.74440711 -8.08092459 12.56017064 -11.04129887 10.42468357 C -12.49607849 8.26069641 -12.49607849 8.26069641 -12.43357849 5.13569641 C -10.44536393 -0.9614949 -5.43215561 -0.02488208 0 0 Z" stroke-linecap="round"/>
    </g>
    <g transform="matrix(0.765865, 0, 0, 0.756316, 132.701324, 91.891205)" vector-effect="non-scaling-stroke">
      <path style="stroke: none; stroke-width: 1; stroke-dasharray: none; stroke-linecap: butt; stroke-dashoffset: 0; stroke-linejoin: miter; stroke-miterlimit: 4; fill-rule: nonzero; opacity: 1;" vector-effect="non-scaling-stroke" transform=" translate(-98.15, -6.44)" d="M 0 0 C 0.86968652 -0.00467997 1.73937305 -0.00935994 2.63541371 -0.01418173 C 5.55503477 -0.02616555 8.47418938 -0.01666121 11.39381409 -0.00723267 C 13.48478978 -0.01129689 15.57576333 -0.01663793 17.66673279 -0.02316284 C 23.35058805 -0.0368608 29.03428028 -0.03152729 34.71813846 -0.02202559 C 40.66155363 -0.01444085 46.60495465 -0.02147139 52.54837036 -0.02618408 C 62.53121959 -0.03164551 72.51400229 -0.02444028 82.49684143 -0.01016235 C 94.04280445 0.0061604 105.58860852 0.00087988 117.13456768 -0.01564157 C 127.04124006 -0.0292507 136.94786456 -0.03117875 146.85454327 -0.02332556 C 152.77412303 -0.01864533 158.69362807 -0.01803375 164.61320305 -0.02793503 C 170.1790283 -0.03659387 175.74464844 -0.03060242 181.31045151 -0.01325226 C 183.35468645 -0.00928146 185.39893862 -0.01043157 187.44316673 -0.01704025 C 190.2308998 -0.02522239 193.01797317 -0.01497431 195.80566406 0 C 196.61714336 -0.00669217 197.42862266 -0.01338433 198.26469225 -0.02027929 C 202.80068318 0.0270702 205.92960061 0.42409916 209.46632385 3.38095093 C 209.96632385 6.38095093 209.96632385 6.38095093 209.46632385 9.38095093 C 208.1682815 11.04468113 208.1682815 11.04468113 206.46632385 12.38095093 C 203.55108568 12.67808791 200.84893315 12.78977655 197.93228149 12.76863098 C 197.05049317 12.77401652 196.16870485 12.77940206 195.26019567 12.78495079 C 192.29368987 12.79930384 189.32762568 12.79210858 186.36109924 12.78500366 C 184.23909138 12.79070339 182.11708659 12.7976661 179.99508667 12.80580139 C 174.22240861 12.82379186 168.44988206 12.82255335 162.67718434 12.81685901 C 157.86331881 12.81377563 153.04948274 12.81985011 148.23562139 12.82589775 C 136.88191476 12.83996074 125.52828334 12.83836697 114.17457581 12.82699585 C 102.44965002 12.81551266 90.72495292 12.82958978 79.00005728 12.85639232 C 68.94395014 12.878522 58.88791492 12.88519287 48.83178514 12.87931591 C 42.8210903 12.87593862 36.81054207 12.8784126 30.79986763 12.89556694 C 25.14865604 12.91099044 19.49778417 12.90713159 13.84658623 12.8882618 C 11.76967816 12.88456316 9.69274518 12.88772125 7.61585999 12.89814758 C 4.78596036 12.91127207 1.95719963 12.89988608 -0.87265015 12.88215637 C -1.69939725 12.89176138 -2.52614436 12.90136639 -3.37794441 12.91126245 C -7.00231502 12.86436814 -9.11525819 12.68903198 -12.07499027 10.50978184 C -13.53367615 8.38095093 -13.53367615 8.38095093 -13.53367615 5.81845093 C -10.9934041 -0.37346219 -5.95470314 -0.04897304 0 0 Z" stroke-linecap="round"/>
    </g>
    <g transform="matrix(0.765865, 0, 0, 0.756316, 132.701324, 130.849045)" vector-effect="non-scaling-stroke">
      <path style="stroke: none; stroke-width: 1; stroke-dasharray: none; stroke-linecap: butt; stroke-dashoffset: 0; stroke-linejoin: miter; stroke-miterlimit: 4; fill-rule: nonzero; opacity: 1;" vector-effect="non-scaling-stroke" transform=" translate(-102.77, -5.84)" d="M 0 0 C 1.25469561 0.00566899 1.25469561 0.00566899 2.5347386 0.0114525 C 3.42046161 0.00762695 4.30618463 0.0038014 5.21874774 -0.00014007 C 8.20443216 -0.01050819 11.18992564 -0.00647073 14.175623 -0.0025093 C 16.30895612 -0.00685366 18.44228768 -0.01203588 20.5756169 -0.01799697 C 26.38338339 -0.03142782 32.19108498 -0.03196111 37.998864 -0.02943367 C 42.84010638 -0.02836672 47.68133547 -0.03324021 52.52257502 -0.03803909 C 63.93997474 -0.04914841 75.35734157 -0.04956368 86.77474409 -0.04352492 C 98.56949773 -0.03748269 110.36413216 -0.04979928 122.15886545 -0.07109499 C 132.27097863 -0.08868414 142.38305376 -0.0947166 152.49518168 -0.09145725 C 158.54104835 -0.08963995 164.58682998 -0.09232484 170.63268286 -0.10617179 C 176.31665449 -0.11870188 182.00043965 -0.11685187 187.68440825 -0.1037609 C 189.77463727 -0.10138502 191.86487922 -0.1041657 193.95509344 -0.11238402 C 196.80054639 -0.12276798 199.64536394 -0.11481842 202.49079329 -0.10207289 C 203.3250263 -0.10944718 204.15925932 -0.11682146 205.01877213 -0.12441921 C 210.63416567 -0.07121697 210.63416567 -0.07121697 212.79125941 1.60416329 C 214.74368388 4.13849799 214.40550165 6.17725638 214.07625777 9.27214891 C 211.47485083 11.87355585 209.67036369 11.51894725 206.12634242 11.54895991 C 205.28598773 11.54586271 204.44563304 11.5427655 203.57981306 11.53957444 C 202.6900065 11.54410556 201.80019993 11.54863667 200.88342953 11.55330509 C 197.88393301 11.5660261 194.88461627 11.56432379 191.88509566 11.56267625 C 189.74190987 11.56865667 187.59872625 11.57546108 185.45554549 11.58303148 C 179.62092637 11.60074743 173.78636585 11.60538918 167.95172244 11.60666305 C 163.08811113 11.60855821 158.22451359 11.61591125 153.36090755 11.62300724 C 141.8907731 11.63930978 130.42067005 11.64417446 118.95052534 11.64275438 C 107.10121065 11.6415522 95.25207789 11.66266507 83.40280926 11.6942417 C 73.24398635 11.72035318 63.08522304 11.73112384 52.92636681 11.72984356 C 46.85252244 11.72933245 40.77883967 11.73509768 34.70502859 11.75619966 C 28.9947532 11.77549599 23.28479499 11.77576569 17.57450873 11.76116639 C 15.4746003 11.75906652 13.37467247 11.7638487 11.2747975 11.77588731 C 8.41604842 11.79121945 5.55840959 11.78211189 2.69968611 11.76662523 C 1.44250016 11.78205591 1.44250016 11.78205591 0.15991652 11.79779834 C -5.42010867 11.73063245 -5.42010867 11.73063245 -7.97442526 9.40530664 C -9.22364143 6.59826199 -8.90703339 5.1463846 -7.92374223 2.27214891 C -5.32660113 -0.32499219 -3.53835727 0.02722375 0 0 Z" stroke-linecap="round"/>
    </g>
    <g transform="matrix(0.765865, 0, 0, 0.756316, 109.587517, 208.742035)" vector-effect="non-scaling-stroke">
      <path style="stroke: none; stroke-width: 1; stroke-dasharray: none; stroke-linecap: butt; stroke-dashoffset: 0; stroke-linejoin: miter; stroke-miterlimit: 4; fill-rule: nonzero; opacity: 1;" vector-effect="non-scaling-stroke" transform=" translate(-72.32, -5.82)" d="M 0 0 C 1.31943604 -0.00708481 2.63887207 -0.01416962 3.99829102 -0.02146912 C 5.46916233 -0.01917507 6.94003331 -0.01666534 8.41090393 -0.01396179 C 9.95311226 -0.01830686 11.49531843 -0.02348932 13.03752136 -0.02944946 C 17.23377573 -0.04287301 21.42994022 -0.04341441 25.62621188 -0.04088616 C 29.12537906 -0.03981869 32.62452788 -0.04469408 36.12369114 -0.04949158 C 44.37683194 -0.06059844 52.62992723 -0.06101761 60.8830719 -0.05497742 C 69.40594895 -0.04893586 77.928661 -0.06125053 86.45150989 -0.08254749 C 93.76110147 -0.10014321 101.07064043 -0.10616805 108.38025242 -0.10290974 C 112.7493911 -0.10109344 117.11841209 -0.10376738 121.48753166 -0.11762428 C 125.59563787 -0.13016507 129.70348622 -0.12829435 133.81158829 -0.11521339 C 135.32129693 -0.11283982 136.8310235 -0.11561013 138.34071159 -0.12383652 C 140.39801652 -0.13424045 142.45444602 -0.12625592 144.51171875 -0.11352539 C 146.24033221 -0.113777 146.24033221 -0.113777 148.00386715 -0.1140337 C 150.8193512 0.26069641 150.8193512 0.26069641 152.72529697 1.55752277 C 153.8193512 3.26069641 153.8193512 3.26069641 153.6318512 6.88569641 C 153.3637262 7.99944641 153.0956012 9.11319641 152.8193512 10.26069641 C 150.03501171 11.65286616 147.75532485 11.39630627 144.63870239 11.40786743 C 143.31926636 11.41502274 141.99983032 11.42217804 140.64041138 11.42955017 C 139.16954064 11.43239054 137.69866965 11.43510226 136.22779846 11.43769836 C 134.68559109 11.4439617 133.14338523 11.45060838 131.60118103 11.45761108 C 127.40495612 11.47502943 123.20874262 11.48557448 119.01249051 11.49381661 C 116.39293738 11.49896355 113.77338782 11.50503933 111.1538372 11.51132774 C 102.96379689 11.53037962 94.77376561 11.54461242 86.58370739 11.55293971 C 77.11809727 11.56272207 67.65272039 11.58906751 58.1871925 11.62944061 C 50.87760959 11.65955249 43.56809373 11.67440377 36.25844997 11.67772073 C 31.88925173 11.68007629 27.52030265 11.6891024 23.15117073 11.7141819 C 19.04302978 11.73738265 14.93530347 11.74172846 10.82711411 11.73142052 C 9.31739235 11.73092313 7.80765072 11.73730299 6.2979908 11.75097656 C 4.24048533 11.76857322 2.18448797 11.76165244 0.12698364 11.7484436 C -1.60162982 11.75202613 -1.60162982 11.75202613 -3.36516476 11.75568104 C -6.1806488 11.26069641 -6.1806488 11.26069641 -8.08659458 9.39427471 C -9.1806488 7.26069641 -9.1806488 7.26069641 -8.9931488 4.63569641 C -7.28954826 -0.34405903 -4.79474667 0.00854403 0 0 Z" stroke-linecap="round"/>
    </g>
    <g transform="matrix(0.765865, 0, 0, 0.756316, 102.066719, 247.593979)" vector-effect="non-scaling-stroke">
      <path style="stroke: none; stroke-width: 1; stroke-dasharray: none; stroke-linecap: butt; stroke-dashoffset: 0; stroke-linejoin: miter; stroke-miterlimit: 4; fill-rule: nonzero; opacity: 1;" vector-effect="non-scaling-stroke" transform=" translate(-62.11, -6.43)" d="M 0 0 C 1.70344322 -0.01475121 1.70344322 -0.01475121 3.44129944 -0.02980042 C 4.68298386 -0.02013245 5.92466827 -0.01046448 7.20397949 -0.00050354 C 8.51487045 -0.00590652 9.82576141 -0.01130951 11.17637634 -0.01687622 C 14.76943703 -0.03083738 18.36201922 -0.01965689 21.95505333 -0.00316501 C 25.71548208 0.01068649 29.47588307 0.00422531 33.23632812 0.0007019 C 39.55130728 -0.00200015 45.86609635 0.01147484 52.18103027 0.03465271 C 59.48154396 0.06126254 66.78173984 0.0630096 74.0822854 0.05126435 C 81.10571514 0.04048432 88.12902995 0.04667536 95.15245056 0.06081963 C 98.14121722 0.06657752 101.12989971 0.06649832 104.1186676 0.06175423 C 108.29181212 0.05609492 112.46448217 0.07530423 116.63757324 0.09715271 C 117.87925766 0.09265106 119.12094208 0.08814941 120.4002533 0.08351135 C 122.10369652 0.0983683 122.10369652 0.0983683 123.84155273 0.11352539 C 124.82820671 0.11595529 125.81486069 0.11838518 126.83141327 0.12088871 C 129.86828702 0.56693427 131.24871336 1.35402978 133.42077637 3.50120544 C 133.92077637 6.50120544 133.92077637 6.50120544 133.42077637 9.50120544 C 130.35945334 12.52973947 128.05660962 12.87614405 123.83482361 12.87542725 C 122.12921265 12.88594872 122.12921265 12.88594872 120.3891449 12.89668274 C 119.14588943 12.889039 117.90263397 12.88139526 116.6217041 12.8735199 C 114.65295822 12.8789959 114.65295822 12.8789959 112.6444397 12.88458252 C 109.04738451 12.8939849 105.45060174 12.88457225 101.85356784 12.87125039 C 98.09000531 12.85993276 94.32645613 12.86404358 90.56288147 12.86599731 C 84.24373931 12.86688008 77.92470448 12.85580261 71.60559082 12.83738708 C 64.29715581 12.81621054 56.98887791 12.81271162 49.68041843 12.81894904 C 42.65166614 12.82464086 35.62296924 12.81899979 28.59422493 12.8077755 C 25.6018579 12.80312802 22.60952473 12.80225629 19.61715508 12.80436134 C 15.44150411 12.80659226 11.26607387 12.79214546 7.0904541 12.77586365 C 5.84517441 12.77834106 4.59989471 12.78081848 3.31687927 12.78337097 C 1.61549805 12.77274376 1.61549805 12.77274376 -0.12025452 12.76190186 C -1.10783029 12.75984899 -2.09540606 12.75779612 -3.11290836 12.75568104 C -5.57922363 12.50120544 -5.57922363 12.50120544 -8.57922363 10.50120544 C -9.51672363 7.62620544 -9.51672363 7.62620544 -9.57922363 4.50120544 C -6.69052896 0.70666405 -4.69027309 0.00099488 0 0 Z" stroke-linecap="round"/>
    </g>
    <g transform="matrix(0.765865, 0, 0, 0.756316, 101.905891, 286.642578)" vector-effect="non-scaling-stroke">
      <path style="stroke: none; stroke-width: 1; stroke-dasharray: none; stroke-linecap: butt; stroke-dashoffset: 0; stroke-linejoin: miter; stroke-miterlimit: 4; fill-rule: nonzero; opacity: 1;" vector-effect="non-scaling-stroke" transform=" translate(-63.01, -5.82)" d="M 0 0 C 1.16101227 -0.00708481 2.32202454 -0.01416962 3.51821899 -0.02146912 C 4.79828827 -0.0189917 6.07835754 -0.01651428 7.3972168 -0.01396179 C 8.75385825 -0.01830717 10.11049725 -0.02348973 11.46713257 -0.02944946 C 15.15714092 -0.04286859 18.84704704 -0.04341499 22.53707504 -0.04088616 C 25.6138317 -0.03981856 28.69056748 -0.04469432 31.76731968 -0.04949158 C 39.02319961 -0.06059654 46.27902778 -0.06101843 53.53491211 -0.05497742 C 61.02967047 -0.04893367 68.52424128 -0.06125646 76.01896763 -0.08254749 C 82.44617444 -0.10013705 88.87332141 -0.1061691 95.30055141 -0.10290974 C 99.14260898 -0.10109272 102.98453274 -0.1037746 106.8265686 -0.11762428 C 110.43811438 -0.13015544 114.04936673 -0.12830375 117.66090775 -0.11521339 C 119.62383023 -0.11170181 121.58676147 -0.12305978 123.5496521 -0.13478088 C 125.2911705 -0.12425941 125.2911705 -0.12425941 127.06787109 -0.11352539 C 128.08108932 -0.11369313 129.09430756 -0.11386087 130.13822937 -0.1140337 C 130.92881241 0.00962724 131.71939545 0.13328817 132.53393555 0.26069641 C 134.53393555 3.26069641 134.53393555 3.26069641 134.28393555 6.88569641 C 133.91268555 8.55632141 133.91268555 8.55632141 133.53393555 10.26069641 C 130.93183247 11.56174795 129.02765338 11.39546622 126.11256409 11.40786743 C 124.96141113 11.41502274 123.81025818 11.42217804 122.6242218 11.42955017 C 121.35507431 11.43223907 120.08592682 11.43492798 118.77832031 11.43769836 C 117.43315454 11.44396224 116.0879905 11.45060897 114.74282837 11.45761108 C 111.08377718 11.47502439 107.42473906 11.4855731 103.76565671 11.49381661 C 101.48112272 11.49896463 99.19659281 11.50504036 96.91206169 11.51132774 C 89.76853632 11.53037824 82.6250213 11.54461132 75.48147541 11.55293971 C 67.22706074 11.56272154 58.97291355 11.58906601 50.71859318 11.62944061 C 44.34318483 11.65955843 37.96785336 11.67440433 31.59237522 11.67772073 C 27.78207505 11.68007562 23.97206069 11.68909283 20.16183662 11.7141819 C 16.57897433 11.73739321 12.99658746 11.74172438 9.41366959 11.73142052 C 7.46879776 11.73068594 5.52395044 11.74982468 3.57917786 11.76948547 C 2.42520508 11.76254166 1.2712323 11.75559784 0.08229065 11.7484436 C -0.92263144 11.75083196 -1.92755354 11.75322031 -2.96292782 11.75568104 C -5.46606445 11.26069641 -5.46606445 11.26069641 -7.3245554 9.39427471 C -8.46606445 7.26069641 -8.46606445 7.26069641 -8.27856445 4.63569641 C -6.67394134 -0.05474037 -4.55097981 0.00922069 0 0 Z" stroke-linecap="round"/>
    </g>
    <g transform="matrix(0.765865, 0, 0, 0.756316, 34.517414, 169.897644)" vector-effect="non-scaling-stroke">
      <path style="stroke: none; stroke-width: 1; stroke-dasharray: none; stroke-linecap: butt; stroke-dashoffset: 0; stroke-linejoin: miter; stroke-miterlimit: 4; fill-rule: nonzero; opacity: 1;" vector-effect="non-scaling-stroke" transform=" translate(3.51, -5.2)" d="M 0 0 C 2 2 2 2 2.3125 4.9375 C 2 8 2 8 0.8125 9.875 C -1.65507108 11.40659584 -3.14519831 11.42822025 -6 11 C -7.8125 9.875 -7.8125 9.875 -9 8 C -9.4375 5 -9.4375 5 -9 2 C -6.12524616 -1.3006433 -4.03854228 -1.38160657 0 0 Z" stroke-linecap="round"/>
    </g>
    <g transform="matrix(0.765865, 0, 0, 0.756316, 34.639957, 286.650146)" vector-effect="non-scaling-stroke">
      <path style="stroke: none; stroke-width: 1; stroke-dasharray: none; stroke-linecap: butt; stroke-dashoffset: 0; stroke-linejoin: miter; stroke-miterlimit: 4; fill-rule: nonzero; opacity: 1;" vector-effect="non-scaling-stroke" transform=" translate(-0.2, -5.75)" d="M 0 0 C 3.5625 0.1875 3.5625 0.1875 5.5625 2.1875 C 5.8125 5.6875 5.8125 5.6875 5.5625 9.1875 C 3.5625 11.1875 3.5625 11.1875 0.625 11.5 C -2.4375 11.1875 -2.4375 11.1875 -4.375 10.125 C -6.06931173 7.03537273 -5.17701685 4.51532582 -4.4375 1.1875 C -3.4375 0.1875 -3.4375 0.1875 0 0 Z" stroke-linecap="round"/>
    </g>
    <g transform="matrix(0.765865, 0, 0, 0.756316, 34.494442, 247.692307)" vector-effect="non-scaling-stroke">
      <path style="stroke: none; stroke-width: 1; stroke-dasharray: none; stroke-linecap: butt; stroke-dashoffset: 0; stroke-linejoin: miter; stroke-miterlimit: 4; fill-rule: nonzero; opacity: 1;" vector-effect="non-scaling-stroke" transform=" translate(4.54, -5.06)" d="M 0 0 C 1.41441874 2.82883747 1.31900332 4.87376745 1 8 C -0.6875 9.9375 -0.6875 9.9375 -3 11 C -6.37036311 10.75925978 -7.58798021 10.41201979 -10 8 C -10.375 5.0625 -10.375 5.0625 -10 2 C -6.95805567 -1.62693363 -4.34226025 -1.25443074 0 0 Z" stroke-linecap="round"/>
    </g>
    <g transform="matrix(0.765865, 0, 0, 0.756316, 34.456146, 92.027344)" vector-effect="non-scaling-stroke">
      <path style="stroke: none; stroke-width: 1; stroke-dasharray: none; stroke-linecap: butt; stroke-dashoffset: 0; stroke-linejoin: miter; stroke-miterlimit: 4; fill-rule: nonzero; opacity: 1;" vector-effect="non-scaling-stroke" transform=" translate(2.34, -5.49)" d="M 0 0 C 2.25 1.25 2.25 1.25 3.25 2.25 C 3.5 5.6875 3.5 5.6875 3.25 9.25 C 0.01746204 11.40502531 -1.00150923 11.71856135 -4.75 11.25 C -6.5625 10.125 -6.5625 10.125 -7.75 8.25 C -8.25 5.25 -8.25 5.25 -7.75 2.25 C -4.93014202 -0.32815587 -3.73790549 -1.01942877 0 0 Z" stroke-linecap="round"/>
    </g>
    <g transform="matrix(0.765865, 0, 0, 0.756316, 34.64761, 208.726898)" vector-effect="non-scaling-stroke">
      <path style="stroke: none; stroke-width: 1; stroke-dasharray: none; stroke-linecap: butt; stroke-dashoffset: 0; stroke-linejoin: miter; stroke-miterlimit: 4; fill-rule: nonzero; opacity: 1;" vector-effect="non-scaling-stroke" transform=" translate(3.34, -5.54)" d="M 0 0 C 2 2 2 2 2.25 5.5 C 2 9 2 9 0 11 C -3.09771665 11.32954432 -5.17331023 11.45334601 -7.9375 9.9375 C -9.64787795 6.81857551 -8.80513863 4.34442199 -8 1 C -5.23749964 -0.38125018 -3.05268901 -0.19079306 0 0 Z" stroke-linecap="round"/>
    </g>
    <g transform="matrix(0.765865, 0, 0, 0.756316, 34.655277, 130.947357)" vector-effect="non-scaling-stroke">
      <path style="stroke: none; stroke-width: 1; stroke-dasharray: none; stroke-linecap: butt; stroke-dashoffset: 0; stroke-linejoin: miter; stroke-miterlimit: 4; fill-rule: nonzero; opacity: 1;" vector-effect="non-scaling-stroke" transform=" translate(4.34, -4.7)" d="M 0 0 C 1 1 1 1 1.1875 4.4375 C 1 8 1 8 -1 10 C -4.5 10.3125 -4.5 10.3125 -8 10 C -10 7 -10 7 -9.75 3.375 C -9.5025 2.26125 -9.255 1.1475 -9 0 C -5.90842747 -1.54578627 -3.31526981 -0.60277633 0 0 Z" stroke-linecap="round"/>
    </g>
    <ellipse style="fill: rgba(216, 216, 216, 0); stroke: rgb(0, 0, 0); stroke-width: 10px;" cx="243.299" cy="267.869" rx="79.71" ry="78.46"/>
  </g>
  <g transform="matrix(1, 0, 0, 1, -2.435472, 3.514727)">
    <g style=""/>
  </g>
  <g transform="matrix(1, 0, 0, 1, -2.435472, 3.514727)">
    <g style=""/>
  </g>
</svg>