<?xml version="1.0" standalone="no"?>
<!DOCTYPE svg PUBLIC "-//W3C//DTD SVG 20010904//EN"
 "http://www.w3.org/TR/2001/REC-SVG-20010904/DTD/svg10.dtd">
<svg version="1.0" xmlns="http://www.w3.org/2000/svg"
 width="512.000000pt" height="512.000000pt" viewBox="0 0 512.000000 512.000000"
 preserveAspectRatio="xMidYMid meet">

<g transform="translate(0.000000,512.000000) scale(0.100000,-0.100000)"
fill="#000000" stroke="none">
<path d="M3273 5102 c-70 -25 -123 -63 -162 -117 -59 -83 -61 -96 -61 -451 0
-178 -4 -324 -8 -324 -4 0 -16 15 -27 33 -10 17 -67 80 -125 138 -203 204
-449 334 -726 384 -119 21 -492 31 -655 16 -343 -30 -639 -196 -830 -465 -42
-59 -57 -72 -104 -91 -132 -54 -264 -178 -329 -309 -66 -133 -71 -179 -59
-596 l11 -365 -24 -25 c-50 -55 -69 -117 -69 -230 0 -85 4 -114 21 -151 31
-67 78 -114 146 -149 59 -29 66 -30 194 -30 l133 0 51 -97 c27 -54 74 -129
102 -167 29 -38 57 -75 62 -81 6 -9 -45 -88 -165 -255 l-175 -242 -178 -685
c-136 -523 -177 -694 -172 -721 7 -47 34 -82 77 -104 32 -17 122 -18 1463 -18
1429 0 1430 0 1473 21 47 23 74 55 92 109 13 42 -20 502 -42 585 -18 64 -53
144 -74 167 -23 26 -75 23 -101 -5 -28 -30 -28 -50 2 -124 32 -78 43 -148 60
-383 10 -134 11 -199 4 -207 -8 -10 -58 -13 -189 -13 l-179 0 0 164 c0 150 -2
165 -21 190 -27 34 -71 35 -104 1 -25 -24 -25 -27 -25 -190 l0 -165 -820 0
c-451 0 -820 2 -820 3 0 3 138 538 181 700 l10 37 197 0 c177 0 204 3 262 23
56 19 76 21 135 14 140 -16 340 25 462 94 29 17 80 51 114 76 l61 46 116 -17
c156 -23 182 -30 284 -78 79 -37 90 -40 117 -29 37 16 56 57 42 93 -23 60
-172 120 -391 157 -203 35 -226 47 -250 132 -8 25 -5 31 18 43 79 42 126 127
125 229 l-1 67 91 63 c176 120 329 294 423 480 l44 87 104 0 c95 0 108 2 164
30 68 35 115 82 146 149 31 69 30 236 -2 307 -13 29 -37 64 -53 80 -28 27 -29
31 -29 123 l0 96 167 -3 c136 -3 171 -6 185 -19 15 -14 18 -35 18 -148 0 -121
2 -135 23 -166 15 -23 37 -38 65 -47 71 -23 96 -3 253 198 l136 175 319 5
c297 5 322 6 365 26 56 26 114 76 145 126 54 85 55 97 52 860 l-3 703 -26 56
c-36 76 -90 133 -157 166 l-57 28 -725 2 c-677 2 -728 1 -777 -15z m1494 -151
c26 -12 52 -35 70 -62 l28 -43 3 -688 c2 -450 -1 -702 -8 -727 -13 -51 -43
-87 -91 -111 -35 -19 -59 -20 -339 -20 -388 0 -351 14 -514 -195 l-101 -129
-6 89 c-6 100 -15 127 -53 168 -52 55 -95 67 -263 67 -83 0 -163 4 -176 9 -23
9 -24 13 -30 158 -6 146 -32 294 -71 402 -23 62 -24 957 -2 999 18 35 64 78
96 91 16 6 284 10 720 10 662 1 697 0 737 -18z m-2602 -339 c432 -94 773 -394
909 -802 54 -161 66 -259 66 -535 l0 -240 -59 3 -58 4 -6 58 c-11 99 -37 211
-62 260 -29 57 -112 135 -171 161 -30 14 -94 26 -187 35 -258 27 -486 84 -713
179 -117 49 -172 56 -230 29 -19 -9 -44 -28 -55 -43 -79 -100 -193 -54 -393
158 -64 67 -110 91 -176 91 -92 0 -150 -47 -256 -211 -95 -145 -104 -197 -40
-228 49 -23 73 -6 135 96 78 130 130 193 159 193 15 0 52 -29 115 -93 156
-157 267 -215 389 -204 64 6 133 40 166 82 11 14 27 25 35 25 8 0 52 -16 96
-35 231 -98 519 -169 778 -190 155 -13 212 -64 243 -216 27 -129 44 -345 36
-460 -20 -315 -197 -611 -483 -806 l-91 -63 -49 23 c-47 22 -57 22 -470 25
l-423 3 65 94 c87 127 99 175 70 272 -17 58 -70 119 -130 148 -57 28 -165 27
-221 -2 -49 -26 -77 -57 -169 -186 l-69 -99 -28 34 c-97 118 -179 309 -204
471 -19 124 -13 325 17 495 23 139 24 160 2 184 -22 24 -84 24 -107 -1 -18
-20 -42 -119 -52 -218 l-7 -62 -91 -3 c-50 -2 -94 -2 -97 -1 -4 2 -10 148 -14
326 -6 279 -5 331 9 385 44 173 158 290 352 362 22 8 48 36 88 94 161 238 418
393 703 426 43 5 193 7 333 5 205 -3 273 -8 345 -23z m-1645 -1804 c1 -80 10
-170 25 -250 l7 -38 -94 0 c-115 0 -153 16 -186 80 -26 52 -30 142 -8 194 14
35 66 80 101 89 11 2 50 5 88 6 l67 1 0 -82z m2667 46 c45 -34 63 -78 63 -152
0 -120 -60 -182 -177 -182 -35 0 -63 2 -63 3 0 2 7 48 15 103 8 54 15 137 15
183 l0 84 56 -6 c39 -4 66 -14 91 -33z m-1850 -589 c50 -50 43 -79 -58 -221
-89 -128 -103 -168 -75 -222 32 -62 29 -62 521 -62 497 0 493 0 521 -66 14
-32 13 -39 -3 -72 -28 -58 -45 -62 -258 -62 -268 0 -279 -9 -287 -215 -5 -134
-19 -174 -80 -231 -69 -66 -81 -68 -330 -74 -247 -5 -253 -7 -300 -71 -10 -13
-63 -199 -121 -419 l-102 -395 -249 -3 c-197 -2 -247 0 -243 10 2 7 80 303
172 657 l167 645 295 409 c163 225 305 413 317 417 45 18 77 11 113 -25z m773
-880 c0 -34 24 -91 56 -133 15 -19 22 -37 18 -42 -24 -24 -134 -82 -188 -99
-54 -18 -196 -44 -203 -38 -1 2 9 32 24 67 19 49 27 88 31 167 l5 103 128 0
129 0 0 -25z"/>
<path d="M3924 4736 c-51 -16 -123 -65 -159 -108 -56 -66 -93 -192 -73 -249 9
-25 44 -49 72 -49 31 0 64 40 71 87 11 72 40 120 93 154 43 28 53 30 114 27
56 -3 73 -8 105 -34 76 -60 102 -157 64 -239 -35 -76 -102 -115 -196 -115 -46
0 -60 -4 -80 -25 -24 -24 -25 -28 -25 -180 0 -152 1 -156 25 -180 31 -32 69
-32 100 0 23 22 25 31 25 128 l0 105 38 7 c218 40 343 287 247 489 -33 71
-117 148 -190 175 -64 24 -166 27 -231 7z"/>
<path d="M3953 3680 c-28 -11 -43 -40 -43 -82 0 -73 86 -107 129 -52 36 46 27
105 -20 129 -32 17 -35 17 -66 5z"/>
<path d="M1356 2929 c-24 -19 -26 -26 -26 -98 0 -65 3 -81 20 -96 28 -25 76
-23 103 4 19 18 22 33 22 92 0 65 -2 73 -28 95 -34 29 -56 30 -91 3z"/>
<path d="M2476 2929 c-24 -19 -26 -26 -26 -94 0 -81 14 -109 62 -121 22 -5 33
0 58 24 27 27 30 37 30 92 0 55 -3 65 -29 91 -35 34 -59 36 -95 8z"/>
<path d="M1883 2525 c-64 -18 -134 -52 -150 -74 -28 -37 -10 -93 35 -109 23
-8 40 -5 87 15 94 40 147 41 238 4 77 -30 97 -31 130 -3 23 20 23 84 -1 105
-64 58 -241 90 -339 62z"/>
</g>
</svg>
