<?xml version="1.0" encoding="UTF-8"?>
<svg version="1.1" xmlns="http://www.w3.org/2000/svg" width="512" height="512">
<path d="M0 0 C7.0723165 3.22038984 13.52928279 7.73172424 20 12 C54.44820516 34.27038929 92.91636462 49.57265669 133 58 C133.79583496 58.16870605 134.59166992 58.33741211 135.41162109 58.51123047 C147.95626345 61.06860873 160.68144143 61.67235177 173.44140625 62.26660156 C193.39455976 63.23345146 193.39455976 63.23345146 200 70 C201.96808827 73.15629318 202.25095975 75.57115554 202.25396729 79.26295471 C202.25960693 80.33066101 202.26524658 81.39836731 202.27105713 82.49842834 C202.26498444 84.2501963 202.26498444 84.2501963 202.25878906 86.03735352 C202.26404602 87.89044632 202.26404602 87.89044632 202.26940918 89.78097534 C202.27672155 93.18289996 202.27497 96.58458211 202.26865101 99.98649335 C202.26354793 103.59947335 202.26829912 107.21244373 202.27142334 110.82542419 C202.27507238 116.94312352 202.27026215 123.06077479 202.26074219 129.1784668 C202.25124442 135.35037425 202.25093398 141.52218482 202.26074219 147.6940918 C202.5157129 312.39185205 202.5157129 312.39185205 180 353 C179.48977295 353.93924316 179.48977295 353.93924316 178.96923828 354.89746094 C173.12781355 365.55910171 165.88576153 374.77992584 158 384 C157.23171875 384.91136719 156.4634375 385.82273437 155.671875 386.76171875 C152.057241 390.95270187 148.26372442 394.70839173 144.03125 398.2734375 C142.6905946 399.41299459 141.3767368 400.58494784 140.09375 401.7890625 C105.35470678 434.25670674 56.49099629 451.105531 11.1875 462 C10.35976074 462.20786133 9.53202148 462.41572266 8.67919922 462.62988281 C-4.85609599 465.71209759 -17.06346922 463.53979683 -30.1875 460.0625 C-31.77674717 459.65223946 -33.36602166 459.24208474 -34.95532227 458.83203125 C-56.28315867 453.26105224 -76.98619184 446.28016769 -97 437 C-97.82516113 436.62294922 -98.65032227 436.24589844 -99.50048828 435.85742188 C-125.924206 423.67375332 -152.44357956 405.74410124 -171 383 C-171.88901081 381.95806696 -172.77836507 380.9164269 -173.66796875 379.875 C-202.67160915 345.36687958 -208.75196365 307.27637916 -211.6875 263.625 C-211.74834778 262.7306424 -211.80919556 261.83628479 -211.87188721 260.91482544 C-213.72570903 233.11546948 -214.17168355 205.28574764 -214.23828125 177.43359375 C-214.24235055 175.95429026 -214.2464679 174.4749869 -214.25063133 172.99568367 C-214.26945806 166.073835 -214.28376673 159.15199586 -214.2922433 152.2301268 C-214.30211834 144.30827386 -214.32879307 136.38669263 -214.36874419 128.46493572 C-214.39887958 122.27403236 -214.41370718 116.08320775 -214.41702431 109.89223248 C-214.41936496 106.21919637 -214.42820718 102.54645869 -214.45348549 98.87350273 C-214.48105944 94.80668344 -214.47694345 90.74049074 -214.4699707 86.67358398 C-214.48278076 85.47215759 -214.49559082 84.2707312 -214.50878906 83.03289795 C-214.46924676 76.72456734 -214.33076595 72.74645692 -210 68 C-203.71985187 62.83632265 -197.16803385 62.93681733 -189.37719727 62.70996094 C-127.07524994 60.87024285 -68.59347489 37.24500169 -17.10546875 3.046875 C-11.33503902 -0.75652774 -6.8509821 -1.41435179 0 0 Z M-13.5 39.875 C-38.70870001 55.18872459 -65.01494378 68.55139012 -93 78 C-94.53140625 78.52134521 -94.53140625 78.52134521 -96.09375 79.05322266 C-118.94901955 86.72939688 -142.02789493 91.4927035 -165.9375 94.171875 C-167.50721456 94.35158759 -169.0768764 94.5317612 -170.64648438 94.71240234 C-174.43040611 95.14689176 -178.21497535 95.57523042 -182 96 C-181.91406625 109.88718352 -181.81866329 123.7742708 -181.71247292 137.66131496 C-181.6633875 144.1157428 -181.61708428 150.57016067 -181.578125 157.0246582 C-181.41694936 183.38490607 -181.14153015 209.72214234 -180.046875 236.0625 C-180.00598377 237.05449842 -179.96509254 238.04649685 -179.92296219 239.06855583 C-177.63383862 293.39744721 -172.5771784 337.56897121 -130.95458984 376.25683594 C-120.92504601 385.20149531 -109.69760474 392.45336276 -98 399 C-97.34451172 399.3722168 -96.68902344 399.74443359 -96.01367188 400.12792969 C-72.98829596 413.12541089 -47.6290708 421.41927439 -22.125 428.0625 C-20.38766602 428.52958374 -20.38766602 428.52958374 -18.61523438 429.00610352 C-7.60965889 431.76469999 1.09929868 430.25725449 11.9375 427.5 C12.96673584 427.23864258 13.99597168 426.97728516 15.05639648 426.70800781 C48.43921172 417.98657483 81.48702754 405.20936738 109 384 C109.91523438 383.30777344 110.83046875 382.61554688 111.7734375 381.90234375 C141.88325635 358.28247119 159.09612767 329.80392586 164 292 C166.22094828 273.42048107 167.29193275 254.75076964 168.078125 236.0625 C168.1218008 235.02693026 168.16547661 233.99136051 168.21047592 232.92440987 C169.29626528 206.37154742 169.23278142 179.8230721 169.1373291 153.25292969 C169.11634937 146.76043073 169.10762762 140.26791417 169.09765625 133.77539062 C169.07662001 121.18355039 169.04279174 108.59178389 169 96 C168.07855698 95.89322937 167.15711395 95.78645874 166.20774841 95.67645264 C162.71182173 95.26893931 159.21648174 94.85692256 155.72142029 94.44207764 C154.22315074 94.26512524 152.72468198 94.08984964 151.22599792 93.91644287 C127.1540857 91.12763301 103.95881918 85.81599952 81 78 C80.01257813 77.66661621 79.02515625 77.33323242 78.0078125 76.98974609 C49.93918326 67.37140116 21.41076474 53.76213095 -3.171875 37.109375 C-7.1734467 34.68107081 -10.00394757 37.70594574 -13.5 39.875 Z " fill="#372412" transform="translate(262,16)"/>
<path d="M0 0 C9.49189586 7.50689863 14.81977813 19.65862046 20.8046875 29.9375 C21.54510661 31.20545203 22.28575298 32.47327137 23.02661133 33.7409668 C24.56205047 36.36864398 26.0965236 38.99688173 27.63037109 41.62548828 C29.85673754 45.43941214 32.08933377 49.2496566 34.32421875 53.05859375 C34.68056396 53.66592346 35.03690918 54.27325317 35.40405273 54.89898682 C36.11890145 56.11725756 36.83376547 57.33551932 37.54864502 58.55377197 C43.58882479 68.84867825 49.61186346 79.15348523 55.62182617 89.46606445 C60.21171919 97.33902865 64.81874168 105.20185677 69.4296875 113.0625 C75.17398585 122.85525873 80.90464667 132.65579022 86.62109375 142.46484375 C90.84977253 149.71813559 95.09256577 156.96305186 99.34054565 164.20504761 C100.42110694 166.04786647 101.50084901 167.89116276 102.58032227 169.73461914 C106.05821392 175.67287633 109.54458308 181.60574593 113.05078125 187.52734375 C114.32292122 189.68489315 115.59505686 191.8424451 116.8671875 194 C117.45242188 194.98226562 118.03765625 195.96453125 118.640625 196.9765625 C124.80681113 207.46055762 126.91186041 217.49435567 124.27734375 229.546875 C120.91184226 238.84894778 114.74244858 245.05878083 105.89559937 249.30692291 C97.37563601 252.43912394 87.4674965 251.390462 78.54296875 251.33886719 C76.17645298 251.34700698 73.80994482 251.35769543 71.44345093 251.37072754 C65.04254245 251.39798755 58.64221682 251.38751369 52.24129868 251.36845303 C48.23763046 251.35936466 44.2340452 251.35981062 40.2303772 251.36539459 C39.2305569 251.36677369 39.2305569 251.36677369 38.21053821 251.36818065 C36.85607135 251.37009918 35.50160454 251.37204446 34.14713776 251.3740162 C21.47366508 251.39108785 8.80045364 251.37151294 -3.87297618 251.339214 C-14.72566952 251.31241067 -25.57797767 251.31706788 -36.43066406 251.34472656 C-49.06161357 251.3769026 -61.69233466 251.38944025 -74.32331944 251.37105298 C-75.67254699 251.36914187 -77.02177458 251.36725564 -78.3710022 251.36539459 C-79.03468848 251.36446894 -79.69837477 251.36354329 -80.38217276 251.36258958 C-85.03848017 251.35742901 -89.69463578 251.36640642 -94.35092163 251.38027191 C-100.62867895 251.39766154 -106.90571211 251.38547709 -113.18339157 251.35090637 C-115.48108089 251.34300331 -117.77883162 251.34519902 -120.07649612 251.35848236 C-144.23894481 251.48524464 -144.23894481 251.48524464 -154.26972961 242.61826706 C-162.24363036 234.62140815 -163.51417814 225.52316013 -163.6015625 214.6875 C-162.90131911 205.87906207 -157.87804274 198.11625623 -153.3828125 190.75 C-152.2166901 188.80774645 -151.05136665 186.86501307 -149.88671875 184.921875 C-149.26812988 183.89384766 -148.64954102 182.86582031 -148.01220703 181.80664062 C-144.93575734 176.66710536 -141.91226866 171.49675162 -138.88842773 166.32617188 C-137.44941526 163.8658717 -136.00858054 161.40664077 -134.56777954 158.9473877 C-133.46933031 157.07244797 -132.37113701 155.19735849 -131.27294922 153.32226562 C-129.08312281 149.58380387 -126.89137779 145.8464693 -124.69921875 142.109375 C-117.57747866 129.96778127 -110.46571212 117.8205418 -103.37817383 105.65893555 C-98.42552412 97.16374108 -93.45241701 88.68062992 -88.47705078 80.19873047 C-83.66394498 71.99295627 -78.86089466 63.78145283 -74.0703125 55.5625 C-72.94402693 53.63280286 -71.81772459 51.70311551 -70.69140625 49.7734375 C-68.39084849 45.8309105 -66.09619385 41.88502883 -63.80581665 37.93658447 C-62.28932483 35.32432206 -60.76911573 32.71423392 -59.24829102 30.10449219 C-58.51786536 28.84922796 -57.78896455 27.59307491 -57.06176758 26.3359375 C-41.02583657 -1.37919039 -41.02583657 -1.37919039 -29.59765625 -5 C-18.85481012 -6.85965806 -9.07663809 -6.30226947 0 0 Z M-20.0703125 27.5625 C-20.48168457 28.28501953 -20.89305664 29.00753906 -21.31689453 29.75195312 C-29.09797501 43.41144899 -36.90907966 57.0506392 -44.84814453 70.61914062 C-49.11685205 77.91760406 -53.35067347 85.23556854 -57.5703125 92.5625 C-62.94937405 101.90117741 -68.36290727 111.21890369 -73.80078125 120.5234375 C-78.08253396 127.85533764 -82.33235941 135.20520807 -86.5703125 142.5625 C-93.1090765 153.9123298 -99.69660007 165.23298331 -106.30566406 176.54199219 C-109.37586499 181.79718393 -112.44155741 187.05500535 -115.5078125 192.3125 C-116.61065718 194.20313661 -117.71352108 196.09376201 -118.81640625 197.984375 C-119.34089355 198.88607422 -119.86538086 199.78777344 -120.40576172 200.71679688 C-121.60685938 202.77018414 -122.81809197 204.81765481 -124.03564453 206.86132812 C-124.67743652 207.94349609 -125.31922852 209.02566406 -125.98046875 210.140625 C-126.57093994 211.1296582 -127.16141113 212.11869141 -127.76977539 213.13769531 C-129.22786407 215.39765614 -129.22786407 215.39765614 -129.0703125 217.5625 C-114.36211457 217.74168383 -99.65377915 217.90694176 -84.9453125 218.0625 C-83.82296581 218.07437725 -82.70061913 218.0862545 -81.54426193 218.09849167 C-41.23966526 218.52076639 -0.93910316 218.65127101 39.3671875 218.625 C40.35899127 218.62436365 40.35899127 218.62436365 41.37083149 218.62371445 C58.22379834 218.61271639 75.07674397 218.5924489 91.9296875 218.5625 C90.98523106 216.82727373 90.0403169 215.09229659 89.09521484 213.35742188 C88.56906586 212.39122925 88.04291687 211.42503662 87.50082397 210.42956543 C85.22825248 206.28249657 82.90160053 202.1678525 80.5546875 198.0625 C80.04848877 197.17651123 79.54229004 196.29052246 79.02075195 195.37768555 C74.45789097 187.42401811 69.78376601 179.53806328 65.09558105 171.6578064 C59.46308052 162.18784244 53.92380194 152.66685802 48.42993164 143.11572266 C38.82822789 126.42335544 29.08231641 109.81512688 19.33999634 93.20458984 C14.46452682 84.8919369 9.59714808 76.57465557 4.7421875 68.25 C3.90421631 66.81466919 3.90421631 66.81466919 3.04931641 65.3503418 C0.05083764 60.2117672 -2.93596409 55.06673638 -5.91015625 49.9140625 C-6.86015503 48.27304565 -6.86015503 48.27304565 -7.8293457 46.59887695 C-9.04091202 44.50562388 -10.24927271 42.41051091 -11.45385742 40.31323242 C-12.00017822 39.37068604 -12.54649902 38.42813965 -13.109375 37.45703125 C-13.82407959 36.21723511 -13.82407959 36.21723511 -14.55322266 34.95239258 C-16.2199745 32.32673538 -18.08931742 29.95733491 -20.0703125 27.5625 Z " fill="#372412" transform="translate(275.0703125,101.4375)"/>
<path d="M0 0 C4.6413483 2.15491171 8.07137126 5.20342786 10 10 C10.59970881 14.49879151 10.56031934 18.96691901 10.53125 23.5 C10.5350769 24.80904297 10.53890381 26.11808594 10.54284668 27.46679688 C10.54872605 30.23066196 10.54023041 32.99400802 10.52148438 35.7578125 C10.49869442 39.28862831 10.51182609 42.81822777 10.53577423 46.34899902 C10.55375956 49.73276177 10.54114232 53.11620276 10.53125 56.5 C10.53934692 57.76263672 10.54744385 59.02527344 10.55578613 60.32617188 C10.43994781 71.18018545 10.43994781 71.18018545 6 76 C2.18069828 79.62833663 -0.88279006 80.31000458 -6 80.5 C-11.11720994 80.31000458 -14.18069828 79.62833663 -18 76 C-23.30101051 70.24545317 -22.57940296 64.00898761 -22.53125 56.5 C-22.5350769 55.19095703 -22.53890381 53.88191406 -22.54284668 52.53320312 C-22.54872605 49.76933804 -22.54023041 47.00599198 -22.52148438 44.2421875 C-22.49869442 40.71137169 -22.51182609 37.18177223 -22.53577423 33.65100098 C-22.55375956 30.26723823 -22.54114232 26.88379724 -22.53125 23.5 C-22.53934692 22.23736328 -22.54744385 20.97472656 -22.55578613 19.67382812 C-22.43994781 8.81981455 -22.43994781 8.81981455 -18 4 C-12.72867143 -1.00776214 -6.89190982 -0.92775709 0 0 Z " fill="#382413" transform="translate(262,176)"/>
<path d="M0 0 C4.8846525 2.26787438 7.73212562 5.1153475 10 10 C10.75381535 15.5997712 10.77303575 20.33499991 8.375 25.5 C3.80134327 30.3143755 0.6912538 32.25156236 -6 32.5 C-12.6912538 32.25156236 -15.80134327 30.3143755 -20.375 25.5 C-22.77303575 20.33499991 -22.75381535 15.5997712 -22 10 C-17.52212837 0.3553534 -9.85292056 -1.32635469 0 0 Z " fill="#382413" transform="translate(262,272)"/>
</svg>
