<?xml version="1.0" encoding="utf-8"?>
<svg xmlns="http://www.w3.org/2000/svg" viewBox="0 -1.3 325.689 352.433" xmlns:bx="https://boxy-svg.com">
  <desc>Created with Fabric.js 5.2.4</desc>
  <g transform="matrix(1, 0, 0, 1, 247.564529, 253.51474)" id="e51f3511-3d3d-4983-a87b-81d944e254dc">
    <rect style="stroke: none; stroke-width: 1; stroke-dasharray: none; stroke-linecap: butt; stroke-dashoffset: 0; stroke-linejoin: miter; stroke-miterlimit: 4; fill: rgb(255,255,255); fill-rule: nonzero; opacity: 1; visibility: hidden;" vector-effect="non-scaling-stroke" x="-250" y="-250" rx="0" ry="0" width="500" height="500"/>
  </g>
  <g id="52041676-53f4-415e-b3a6-7315148d1b9c" transform="matrix(1, 0, 0, 1, -2.435472, 3.514727)"/>
  <g transform="matrix(1, 0, 0, 1, -2.435472, 3.514727)">
    <g style=""/>
  </g>
  <g transform="matrix(1, 0, 0, 1, -2.435472, 3.514727)">
    <g style=""/>
  </g>
  <g transform="matrix(1, 0, 0, 1, -0.000078, 0.001054)">
    <g transform="matrix(0.067107, 0, 0, -0.065553, 11.823236, 346.208282)" style="" fill="#000000" stroke="none">
      <path d="M 2091.82 5087.25 C 1626 4884.17 1134.91 4777.19 567.955 4753.41 C 389.999 4746.46 386.108 4745.48 339.431 4716.76 C 311.23 4698.92 282.055 4668.21 263.58 4639.48 L 234.405 4590.94 L 231.488 3614.16 C 229.543 2944.47 231.488 2598.74 239.268 2514.53 C 291.78 1926.09 530.033 1404.02 934.584 992.89 C 1003.62 921.554 1108.65 827.448 1166.03 782.869 C 1224.38 737.299 1487.91 559.971 1752.42 387.598 C 2144.32 132.011 2237.68 75.544 2260.04 78.515 C 2284.36 82.477 3001.05 543.132 3229.6 701.636 C 3706.09 1032.52 4055.2 1540.72 4197.18 2110.34 C 4272.06 2414.48 4270.12 2370.88 4270.12 3544.8 L 4270.12 4590.94 L 4240.95 4639.48 C 4222.46 4668.21 4193.3 4698.92 4165.1 4716.76 C 4118.41 4745.48 4114.52 4746.46 3936.56 4753.41 C 3355.04 4778.17 2850.33 4891.1 2356.32 5110.05 C 2307.7 5130.85 2259.08 5147.68 2248.38 5147.68 C 2236.71 5146.7 2166.7 5119.94 2091.82 5087.25 Z M 2397.17 4921.81 C 2879.5 4723.68 3368.66 4617.69 3900.59 4597.87 C 4065.91 4590.94 4075.64 4589.95 4097.99 4567.16 L 4120.36 4544.38 L 4116.47 3517.07 C 4113.55 2378.81 4115.5 2429.33 4047.42 2152.94 C 3946.29 1745.78 3737.22 1378.24 3442.55 1087.01 C 3263.63 910.658 3250.98 900.755 2656.81 513.412 C 2398.14 344.01 2253.24 255.842 2243.51 259.805 C 2212.39 272.683 1353.71 836.365 1272.03 898.775 C 1167 979.015 976.399 1165.26 893.739 1270.27 C 685.635 1531.8 536.84 1834.94 457.099 2152.94 C 389.026 2429.33 390.972 2378.81 388.054 3517.07 L 384.164 4544.38 L 406.531 4567.16 C 428.897 4589.95 438.621 4590.94 603.935 4597.87 C 1123.23 4617.69 1612.39 4720.71 2081.11 4909.93 C 2149.18 4937.66 2211.42 4964.41 2221.14 4969.37 C 2245.46 4984.23 2243.51 4985.22 2397.17 4921.81 Z" fill="#000000" stroke="none" style="stroke-width: 0.944;"/>
      <path d="M 1868.15 4498.8 C 1638.64 4423.51 1357.61 4359.12 1099.9 4322.46 C 998.768 4307.61 799.415 4286.81 761.482 4286.81 C 751.758 4286.81 733.282 4275.91 720.647 4262.04 L 696.328 4238.27 L 696.328 3427.91 C 696.328 2961.31 700.22 2579.91 706.052 2528.41 C 769.264 1938.97 1062.95 1430.76 1531.68 1098.89 C 1583.21 1062.24 1613.36 1047.38 1636.71 1047.38 C 1679.48 1047.38 1707.68 1077.1 1707.68 1122.67 C 1707.68 1164.28 1703.8 1168.24 1556.96 1279.19 C 1438.32 1368.35 1269.1 1544.67 1179.64 1671.49 C 1051.28 1855.75 935.554 2126.2 890.818 2350.08 C 855.806 2523.45 851.924 2618.55 851.924 3382.34 L 851.924 4134.24 L 971.537 4146.13 C 1287.59 4179.81 1646.42 4257.08 1943.03 4355.16 C 2073.33 4398.74 2096.67 4415.59 2096.67 4465.13 C 2095.7 4493.85 2081.11 4516.64 2050.96 4532.49 C 2021.78 4549.32 2020.82 4548.34 1868.15 4498.8 Z" fill="#000000" stroke="none" style="stroke-width: 0.944;"/>
      <path d="M 2451.62 4532.49 C 2406.88 4507.72 2394.25 4459.19 2422.45 4417.57 C 2449.68 4378.94 2854.21 4260.06 3152.77 4203.6 C 3292.8 4176.85 3572.86 4138.21 3623.44 4138.21 L 3652.61 4138.21 L 3652.61 3385.3 C 3652.61 2609.64 3648.73 2522.46 3611.76 2345.13 C 3564.12 2114.3 3453.25 1855.75 3324.89 1671.49 C 3211.11 1511.01 3026.34 1325.74 2868.81 1217.77 C 2805.59 1175.16 2796.84 1162.29 2796.84 1115.73 C 2796.84 1077.1 2827.96 1047.38 2868.81 1047.38 C 2924.24 1047.38 3125.54 1202.91 3267.51 1355.47 C 3540.78 1647.71 3701.24 1970.66 3780.97 2389.7 C 3801.4 2494.72 3802.37 2528.41 3805.28 3367.49 L 3809.17 4237.27 L 3785.84 4261.04 C 3766.39 4280.86 3748.88 4285.81 3680.81 4290.77 C 3333.64 4319.5 2953.41 4395.78 2618.88 4503.76 C 2482.74 4548.34 2479.82 4548.34 2451.62 4532.49 Z" fill="#000000" stroke="none" style="stroke-width: 0.944;"/>
    </g>
    <path d="M 165.025 121.27 C 167.058 122.653 168.56 124.607 169.406 127.685 C 169.668 130.57 169.651 133.437 169.638 136.344 C 169.64 137.183 169.642 138.023 169.644 138.889 C 169.646 140.662 169.643 142.434 169.634 144.207 C 169.624 146.473 169.63 148.735 169.64 151.001 C 169.649 153.171 169.643 155.341 169.638 157.512 C 169.642 158.322 169.645 159.131 169.65 159.966 C 169.599 166.928 169.599 166.928 167.653 170.02 C 165.98 172.347 164.638 172.784 162.396 172.906 C 160.153 172.784 158.811 172.347 157.138 170.02 C 154.814 166.329 155.13 162.328 155.152 157.512 C 155.151 156.672 155.149 155.833 155.148 154.967 C 155.144 153.194 155.148 151.422 155.156 149.649 C 155.166 147.384 155.16 145.12 155.15 142.855 C 155.142 140.684 155.148 138.515 155.152 136.344 C 155.148 135.534 155.145 134.725 155.142 133.89 C 155.192 126.927 155.192 126.927 157.138 123.835 C 159.448 120.623 162.005 120.675 165.025 121.27 Z" style="stroke-width: 0.704;" fill="#000000" stroke="none"/>
    <path d="M 165.983 179.427 C 168.862 180.882 170.54 182.708 171.876 185.841 C 172.321 189.434 172.332 192.47 170.919 195.784 C 168.224 198.871 166.391 200.115 162.448 200.274 C 158.504 200.115 156.671 198.871 153.977 195.784 C 152.563 192.47 152.574 189.434 153.019 185.841 C 155.658 179.655 160.177 178.576 165.983 179.427 Z" style="stroke-width: 0.704;" fill="#000000" stroke="none"/>
    <path d="M 162.92 80.009 L 230.522 210.014 L 95.317 210.014 L 162.92 80.009 Z" bx:shape="triangle 95.317 80.009 135.205 130.005 0.5 0 1@980ea3dd" style="stroke: rgb(0, 0, 0); fill: rgba(216, 216, 216, 0); paint-order: fill; stroke-linejoin: round; stroke-width: 10px;" stroke="none"/>
  </g>
  <g transform="matrix(1, 0, 0, 1, 530.183655, 135.263077)" id="group-1" fill="#000000" stroke="none">
    <rect style="stroke: none; stroke-width: 1; stroke-dasharray: none; stroke-linecap: butt; stroke-dashoffset: 0; stroke-linejoin: miter; stroke-miterlimit: 4; fill: rgb(255,255,255); fill-rule: nonzero; opacity: 1; visibility: hidden;" vector-effect="non-scaling-stroke" x="-250" y="-250" rx="0" ry="0" width="500" height="500"/>
  </g>
  <g id="group-2" transform="matrix(1, 0, 0, 0.999999, 280.183624, -114.736961)" fill="#000000" stroke="none"/>
  <g transform="matrix(1, 0, 0, 0.999999, 280.183624, -114.736961)" fill="#000000" stroke="none">
    <g style=""/>
  </g>
  <g transform="matrix(1, 0, 0, 0.999999, 280.183624, -114.736961)" fill="#000000" stroke="none">
    <g style=""/>
  </g>
</svg>