<?xml version="1.0" encoding="UTF-8" standalone="no" ?>
<!DOCTYPE svg PUBLIC "-//W3C//DTD SVG 1.1//EN" "http://www.w3.org/Graphics/SVG/1.1/DTD/svg11.dtd">
<svg xmlns="http://www.w3.org/2000/svg" xmlns:xlink="http://www.w3.org/1999/xlink" version="1.1" width="500" height="500" viewBox="0 0 500 500" xml:space="preserve">
<desc>Created with Fabric.js 5.2.4</desc>
<defs>
</defs>
<g transform="matrix(1 0 0 1 250 250)" id="3f934758-cda1-408c-ace4-58f69b96e4fb"  >
<rect style="stroke: none; stroke-width: 1; stroke-dasharray: none; stroke-linecap: butt; stroke-dashoffset: 0; stroke-linejoin: miter; stroke-miterlimit: 4; fill: rgb(255,255,255); fill-rule: nonzero; opacity: 1; visibility: hidden;" vector-effect="non-scaling-stroke"  x="-250" y="-250" rx="0" ry="0" width="500" height="500" />
</g>
<g transform="matrix(0 0 0 0 0 0)" id="c3c11f27-42c9-4a6e-9210-a138385cdad2"  >
</g>
<g transform="matrix(0.95 0 0 0.95 250 250)"  >
<path style="stroke: none; stroke-width: 1; stroke-dasharray: none; stroke-linecap: butt; stroke-dashoffset: 0; stroke-linejoin: miter; stroke-miterlimit: 4; fill: rgb(56,37,18); fill-rule: nonzero; opacity: 1;" vector-effect="non-scaling-stroke"  transform=" translate(16.67, -234.75)" d="M 0 0 C 3.56766889 1.65275833 7.16112913 3.24755285 10.75354004 4.84564209 C 11.4831192 5.17109009 12.21269836 5.49653809 12.96438599 5.83184814 C 69.36836608 30.86187539 133.06766292 49.19948153 194.3223877 56.62200928 C 198.87548901 57.21717264 202.57410523 58.01780898 206.38244629 60.64642334 C 208.26466117 65.0414008 208.63183455 68.84115551 208.62968445 73.59111023 C 208.63209886 74.26604556 208.63451328 74.94098089 208.63700086 75.63636881 C 208.64261173 77.8858328 208.63399398 80.13500946 208.62536621 82.38446045 C 208.62643992 84.00317969 208.62837992 85.62189856 208.63111877 87.24061584 C 208.63596267 91.63426473 208.62831173 96.02781187 208.61816573 100.42144847 C 208.6093513 105.04181338 208.61114351 109.6621754 208.61152649 114.282547 C 208.61058967 122.05937384 208.60191273 129.83616171 208.58825684 137.61297607 C 208.57262513 146.54674328 208.56725555 155.48046755 208.56799239 164.41424745 C 208.56867426 173.97918867 208.56168733 183.54411375 208.55254579 193.10905004 C 208.55043584 195.83440353 208.54970749 198.55975434 208.54930687 201.28510857 C 208.52972158 269.36465667 200.87401989 334.46429454 152.37463379 386.50189209 C 150.5755084 388.43859766 148.88535433 390.4279107 147.19494629 392.45892334 C 128.58797232 413.66320947 104.10335713 429.52920534 79.38244629 442.64642334 C 78.73227539 442.99414795 78.08210449 443.34187256 77.41223145 443.70013428 C 52.87260917 456.72945976 26.39699452 466.31198003 -0.61755371 472.70892334 C -1.45818359 472.91299805 -2.29881348 473.11707275 -3.16491699 473.32733154 C -13.65645003 475.64474263 -23.45316362 474.95326392 -33.80505371 472.33392334 C -34.85459229 472.07393555 -35.90413086 471.81394775 -36.98547363 471.54608154 C -58.8218101 465.92623864 -80.38688643 458.62942418 -100.61755371 448.64642334 C -102.04048173 447.96101021 -103.46365605 447.27610815 -104.88708496 446.59173584 C -128.09372176 435.31713494 -149.709706 421.25967967 -168.61755371 403.64642334 C -170.00900037 402.43304115 -171.4046401 401.22444531 -172.80505371 400.02142334 C -180.23652782 393.51145202 -186.47833128 386.38586932 -192.61755371 378.64642334 C -193.8279834 377.144021 -193.8279834 377.144021 -195.06286621 375.61126709 C -224.23598055 338.96698932 -239.19777537 293.74045507 -241.16955566 247.17987061 C -241.21159528 246.1909485 -241.25363489 245.20202639 -241.29694843 244.18313694 C -241.76648332 232.16139626 -241.7817619 220.14054636 -241.78552246 208.11126709 C -241.78874593 205.64744549 -241.79211076 203.18362408 -241.79560852 200.71980286 C -241.80153476 195.60964513 -241.80345461 190.49950417 -241.80285645 185.38934326 C -241.8027538 178.84501562 -241.81653927 172.30079399 -241.83362865 165.75649166 C -241.84472945 160.69248456 -241.84677644 155.62850357 -241.84624672 150.56448555 C -241.84742458 148.14956857 -241.85183547 145.73465087 -241.85957909 143.31974602 C -241.86936382 139.96103136 -241.86650963 136.60255383 -241.86047363 133.24383545 C -241.86609314 132.25425842 -241.87171265 131.2646814 -241.87750244 130.24511719 C -241.85509509 125.34431001 -241.68763174 121.19188672 -239.61755371 116.64642334 C -237.43005371 114.64642334 -237.43005371 114.64642334 -234.61755371 113.64642334 C -230.38230513 114.37663861 -227.2446596 115.15528504 -224.61755371 118.64642334 C -224.24117279 121.041255 -224.24117279 121.041255 -224.23901367 123.93284607 C -224.230811 125.02978287 -224.22260834 126.12671967 -224.2141571 127.25689697 C -224.22030533 128.46140503 -224.22645355 129.66591309 -224.23278809 130.90692139 C -224.22453877 132.85512852 -224.21628882 134.80333565 -224.20801544 136.75154269 C -224.20200903 138.84983343 -224.20340327 140.94800546 -224.2068634 143.04630089 C -224.21369188 147.44288081 -224.19776335 151.83920088 -224.1784668 156.23573303 C -224.14056851 165.60178228 -224.127857 174.9678093 -224.11755371 184.33392334 C -224.10644399 194.37598109 -224.09052429 204.41791751 -224.04684114 214.45989448 C -224.03169847 218.10143555 -224.02247838 221.74277145 -224.02824402 225.3843441 C -224.11245705 281.76666031 -210.60472367 334.19616918 -171.57067871 376.50579834 C -169.98852763 378.23983592 -168.50808491 379.99341716 -167.05505371 381.83392334 C -163.87340952 385.50505126 -160.32088052 388.51422647 -156.61755371 391.64642334 C -155.67911621 392.4727124 -154.74067871 393.29900146 -153.77380371 394.15032959 C -118.64704288 424.89249712 -74.27258539 444.29371195 -29.36755371 455.64642334 C -28.11821045 455.97658447 -28.11821045 455.97658447 -26.84362793 456.31341553 C -0.46887697 462.64335576 37.03037418 444.19577978 60.38244629 432.64642334 C 61.34875977 432.16947021 62.31507324 431.69251709 63.31066895 431.20111084 C 76.21222684 424.77703296 88.72136934 418.13712494 100.38244629 409.64642334 C 101.03503418 409.17881592 101.68762207 408.7112085 102.35998535 408.22943115 C 111.60312724 401.58715439 120.20747669 394.57984259 128.38244629 386.64642334 C 129.27794189 385.78959961 129.27794189 385.78959961 130.19152832 384.91546631 C 167.02702358 349.58384429 189.08251567 299.9731126 190.48840523 248.78876686 C 190.55673829 244.18138219 190.5717784 239.57380992 190.58776855 234.96600342 C 190.59736455 233.20085429 190.60737559 231.43570737 190.61776733 229.67056274 C 190.64463617 224.90898358 190.66574247 220.14739468 190.68576932 215.38578248 C 190.70774099 210.3983195 190.73507462 205.41088588 190.76182556 200.42344666 C 190.81160209 190.99255702 190.85659628 181.56165095 190.89984792 172.13072938 C 190.94934941 161.38821669 191.00421937 150.6457335 191.05952752 139.90324938 C 191.17311647 117.81766821 191.28000516 95.73205885 191.38244629 73.64642334 C 190.21681561 73.51261041 189.05118494 73.37879747 187.85023212 73.2409296 C 186.30483447 73.06180343 184.7594461 72.88259712 183.21406555 72.70332336 C 182.44770295 72.6155609 181.68134034 72.52779843 180.89175463 72.4373765 C 175.39661924 71.79764811 169.99327958 70.95615333 164.58166504 69.79876709 C 163.74895081 69.62639526 162.91623657 69.45402344 162.05828857 69.27642822 C 159.3935305 68.72121105 156.73160995 68.15377679 154.06994629 67.58392334 C 153.14368439 67.38767365 152.21742249 67.19142395 151.26309204 66.98922729 C 123.62377805 61.12432057 96.22945383 54.50649945 69.38244629 45.64642334 C 68.05156738 45.21051119 66.72067484 44.77464067 65.38977051 44.33880615 C 39.44288299 35.81344323 14.03534794 26.09011422 -10.85192871 14.81829834 C -15.39929022 12.76128163 -15.39929022 12.76128163 -20.17492676 13.48822021 C -21.14986084 13.94261475 -22.12479492 14.39700928 -23.12927246 14.86517334 C -24.25849121 15.37781738 -25.38770996 15.89046143 -26.55114746 16.41864014 C -27.46356201 16.83960464 -27.46356201 16.83960464 -28.39440918 17.26907349 C -48.00248401 26.27291554 -68.27600848 33.49933764 -88.61755371 40.64642334 C -89.35671021 40.90612915 -90.0958667 41.16583496 -90.85742188 41.43341064 C -105.70675165 46.63570673 -120.59576193 51.44190196 -135.88317871 55.19720459 C -139.14714537 55.99921813 -142.38778084 56.8565158 -145.61901855 57.7802124 C -156.58111748 60.91301393 -167.57625171 63.48026192 -178.74255371 65.77142334 C -180.35594091 66.1081557 -181.96922243 66.44539476 -183.58239746 66.78314209 C -213.11605537 72.93976348 -213.11605537 72.93976348 -224.61755371 73.64642334 C -224.59136963 74.22609863 -224.56518555 74.80577393 -224.53820801 75.40301514 C -224.43384759 78.04637209 -224.36911044 80.68929533 -224.30505371 83.33392334 C -224.26315918 84.24593506 -224.22126465 85.15794678 -224.17810059 86.09759521 C -224.09308442 90.77348418 -224.05541599 92.91332141 -226.98083496 96.72845459 C -229.75920243 98.74945967 -231.18758496 99.64642334 -234.61755371 99.64642334 C -237.84605074 98.37004079 -239.24682774 97.42906706 -240.74255371 94.27142334 C -241.99766075 89.07169416 -241.94621506 84.03893583 -241.93005371 78.70892334 C -241.95422363 77.12047607 -241.95422363 77.12047607 -241.97888184 75.49993896 C -241.98262008 69.5075343 -241.8354375 64.79924378 -238.61755371 59.64642334 C -234.70393759 57.6476616 -230.76306924 57.08010343 -226.44177246 56.45501709 C -224.97998058 56.23610336 -223.51831639 56.01633572 -222.0567627 55.7958374 C -221.28468475 55.68082886 -220.51260681 55.56582031 -219.71713257 55.44732666 C -156.42788498 45.91218122 -94.28539462 26.85449852 -35.67224121 1.31048584 C -34.11134766 0.63227783 -34.11134766 0.63227783 -32.5189209 -0.05963135 C -30.69760612 -0.87189728 -28.88834783 -1.71238328 -27.09899902 -2.59283447 C -16.663833 -7.6700041 -10.02106971 -4.65504848 0 0 Z" stroke-linecap="round" />
</g>
<g transform="matrix(0.95 0 0 0.95 250 251.76)"  >
<path style="stroke: rgb(0,0,0); stroke-width: 1; stroke-dasharray: none; stroke-linecap: butt; stroke-dashoffset: 0; stroke-linejoin: miter; stroke-miterlimit: 4; fill: rgb(59,39,20); fill-rule: nonzero; opacity: 1;" vector-effect="non-scaling-stroke"  transform=" translate(-14.98, -80.45)" d="M 0 0 C 1.73618591 -0.00006042 1.73618591 -0.00006042 3.50744629 -0.00012207 C 5.95179684 0.00523347 8.39614694 0.02281732 10.84033203 0.05175781 C 14.58028833 0.09359939 18.31844293 0.09282635 22.05859375 0.0859375 C 24.43490834 0.09643055 26.81121365 0.10936926 29.1875 0.125 C 30.3053186 0.12520142 31.42313721 0.12540283 32.5748291 0.12561035 C 34.14170471 0.14947815 34.14170471 0.14947815 35.74023438 0.17382812 C 36.6555896 0.18224731 37.57094482 0.1906665 38.51403809 0.19934082 C 41.63433226 0.676399 43.54257635 1.76301627 46.09375 3.59375 C 47.24785254 5.90195508 47.2147797 7.20159276 47.20727539 9.76806641 C 47.20716209 11.05917831 47.20716209 11.05917831 47.20704651 12.37637329 C 47.20188522 13.30662323 47.19672394 14.23687317 47.19140625 15.1953125 C 47.1899913 16.14691254 47.18857635 17.09851257 47.18711853 18.07894897 C 47.18151012 21.12558097 47.16895619 24.17214013 47.15625 27.21875 C 47.15123608 29.28124894 47.14667299 31.34374903 47.14257812 33.40625 C 47.13153796 38.46877817 47.11426767 43.53125173 47.09375 48.59375 C 48.33987061 48.57803955 49.58599121 48.5623291 50.86987305 48.54614258 C 55.50099198 48.49176927 60.13208278 48.45737289 64.76342773 48.42895508 C 66.76640572 48.41388535 68.7693508 48.3934259 70.7722168 48.36743164 C 73.65421681 48.33096873 76.53577984 48.31400539 79.41796875 48.30078125 C 80.31086105 48.28529739 81.20375336 48.26981354 82.123703 48.25386047 C 86.92848067 48.25256513 90.21655859 48.41183247 94.09375 51.59375 C 95.34331796 54.09288591 95.23417304 55.81015175 95.25488281 58.60668945 C 95.26449036 59.65149979 95.2740979 60.69631012 95.28399658 61.77278137 C 95.2903714 63.47273506 95.2903714 63.47273506 95.296875 65.20703125 C 95.30257507 66.36873337 95.30827515 67.53043549 95.31414795 68.7273407 C 95.32360796 71.18955573 95.33013589 73.65178348 95.33398438 76.11401367 C 95.3436831 79.88027073 95.37469508 83.64598065 95.40625 87.41210938 C 95.41278055 89.80208009 95.41803082 92.19205471 95.421875 94.58203125 C 95.4342218 95.70926102 95.4465686 96.83649078 95.45928955 97.99787903 C 95.45628845 99.05214584 95.45328735 100.10641266 95.45019531 101.19262695 C 95.45566376 102.57923271 95.45566376 102.57923271 95.46124268 103.99385071 C 95.01274027 107.16686932 94.00648083 109.03811993 92.09375 111.59375 C 89.33789648 112.51236784 87.7341431 112.71579322 84.89770508 112.70727539 C 84.05706009 112.70719986 83.2164151 112.70712433 82.35029602 112.70704651 C 81.44708115 112.70188522 80.54386627 112.69672394 79.61328125 112.69140625 C 78.22129768 112.68928383 78.22129768 112.68928383 76.80119324 112.68711853 C 73.83617942 112.68151937 70.87124101 112.66896704 67.90625 112.65625 C 65.89648547 112.65123489 63.88671975 112.646672 61.87695312 112.64257812 C 56.94918968 112.63155021 52.02148263 112.61428617 47.09375 112.59375 C 47.10946045 113.83987061 47.1251709 115.08599121 47.14135742 116.36987305 C 47.19573073 121.00099198 47.23012711 125.63208278 47.25854492 130.26342773 C 47.27361465 132.26640572 47.2940741 134.2693508 47.32006836 136.2722168 C 47.35653127 139.15421681 47.37349461 142.03577984 47.38671875 144.91796875 C 47.40220261 145.81086105 47.41768646 146.70375336 47.43363953 147.623703 C 47.43492575 152.39463712 47.33403887 155.79327077 44.09375 159.59375 C 41.10007982 160.59164006 39.07986991 160.731735 35.95141602 160.75488281 C 34.90345352 160.76449036 33.85549103 160.7740979 32.77577209 160.78399658 C 31.64449387 160.78824646 30.51321564 160.79249634 29.34765625 160.796875 C 28.18499741 160.80257507 27.02233856 160.80827515 25.82444763 160.81414795 C 23.36401276 160.8235985 20.90356524 160.83013215 18.44311523 160.83398438 C 14.67474403 160.84370231 10.90691532 160.87473101 7.13867188 160.90625 C 4.75000324 160.9127788 2.36133071 160.91802975 -0.02734375 160.921875 C -1.15659775 160.9342218 -2.28585175 160.9465686 -3.44932556 160.95928955 C -4.50044022 160.95628845 -5.55155487 160.95328735 -6.63452148 160.95019531 C -8.01993385 160.95566376 -8.01993385 160.95566376 -9.43333435 160.96124268 C -12.40517716 160.51960591 -13.75266834 159.66308457 -15.90625 157.59375 C -16.82486784 154.83789648 -17.02829322 153.2341431 -17.01977539 150.39770508 C -17.01969986 149.55706009 -17.01962433 148.7164151 -17.01954651 147.85029602 C -17.01438522 146.94708115 -17.00922394 146.04386627 -17.00390625 145.11328125 C -17.0024913 144.18529221 -17.00107635 143.25730316 -16.99961853 142.30119324 C -16.99401937 139.33617942 -16.98146704 136.37124101 -16.96875 133.40625 C -16.96373489 131.39648547 -16.959172 129.38671975 -16.95507812 127.37695312 C -16.94405021 122.44918968 -16.92678617 117.52148263 -16.90625 112.59375 C -18.82872559 112.61731567 -18.82872559 112.61731567 -20.79003906 112.64135742 C -25.54599725 112.69566556 -30.30192802 112.73010342 -35.05810547 112.75854492 C -37.11642059 112.7736295 -39.17470358 112.79409987 -41.23291016 112.82006836 C -44.19181244 112.85646585 -47.15028967 112.87347966 -50.109375 112.88671875 C -51.48926605 112.90994453 -51.48926605 112.90994453 -52.89703369 112.93363953 C -59.25182306 112.93531274 -59.25182306 112.93531274 -62.45605469 111.26293945 C -65.07535034 108.2481037 -65.0457351 105.28553348 -65.09912109 101.46728516 C -65.12321548 99.90018295 -65.12321548 99.90018295 -65.14779663 98.30142212 C -65.19227343 93.53363736 -65.23329304 88.76599045 -65.25634766 83.99804688 C -65.27292624 81.48200239 -65.30024082 78.96600536 -65.33837891 76.45019531 C -65.39307216 72.82331909 -65.41500922 69.19754524 -65.4296875 65.5703125 C -65.45235687 64.44621979 -65.47502625 63.32212708 -65.49838257 62.16397095 C -65.48561757 57.4564833 -65.42884024 54.47224279 -62.99194336 50.37573242 C -58.60274314 47.84097711 -54.99510928 47.96488253 -50.01171875 48.10546875 C -49.06436356 48.11254349 -48.11700836 48.11961823 -47.14094543 48.12690735 C -44.12439979 48.15482666 -41.1097316 48.21756085 -38.09375 48.28125 C -36.04494874 48.30633604 -33.9961183 48.32914867 -31.94726562 48.34960938 C -26.93287379 48.40464541 -21.91987986 48.49090144 -16.90625 48.59375 C -16.93243408 47.31733643 -16.95861816 46.04092285 -16.9855957 44.72583008 C -17.07620416 39.9830076 -17.13353827 35.24026138 -17.1809082 30.49682617 C -17.20602806 28.44526294 -17.24013036 26.39378899 -17.28344727 24.3425293 C -17.34421002 21.39088909 -17.37248492 18.4404335 -17.39453125 15.48828125 C -17.42033768 14.57351517 -17.4461441 13.65874908 -17.47273254 12.71626282 C -17.47455725 8.55854056 -17.23535095 6.16141204 -15.11987305 2.51245117 C -10.19862138 -0.42579367 -5.62964546 -0.08257111 0 0 Z" stroke-linecap="round" />
</g>
<g transform="matrix(0.95 0 0 0.95 250 249.21)"  >
<path style="stroke: none; stroke-width: 1; stroke-dasharray: none; stroke-linecap: butt; stroke-dashoffset: 0; stroke-linejoin: miter; stroke-miterlimit: 4; fill: rgb(59,39,20); fill-rule: nonzero; opacity: 1;" vector-effect="non-scaling-stroke"  transform=" translate(94.36, -109.36)" d="M 0 0 C 23.41455338 20.6888408 39.21834285 46.76055205 46.61914062 77.15258789 C 46.78285156 77.80453125 46.9465625 78.45647461 47.11523438 79.12817383 C 53.52095123 105.61131315 50.25273937 134.94200135 40.68164062 160.21508789 C 40.35800537 161.07086426 40.03437012 161.92664063 39.70092773 162.80834961 C 33.86720522 177.65387816 33.86720522 177.65387816 28.61914062 181.15258789 C 25.74414062 181.59008789 25.74414062 181.59008789 22.61914062 181.15258789 C 19.74414062 179.02758789 19.74414062 179.02758789 17.61914062 176.15258789 C 16.83741013 170.52246507 18.98909206 166.51958909 21.36914062 161.59008789 C 24.7717275 154.25069157 27.56049008 146.99506616 29.61914062 139.15258789 C 29.83183594 138.36883789 30.04453125 137.58508789 30.26367188 136.77758789 C 34.75680406 118.6757604 33.97066798 98.166771 29.61914062 80.15258789 C 29.37550781 78.97180664 29.131875 77.79102539 28.88085938 76.57446289 C 22.77245066 49.82484367 5.60492929 24.41291076 -16.38085938 8.15258789 C -17.14398438 7.56348633 -17.90710938 6.97438477 -18.69335938 6.36743164 C -45.4052569 -13.44088426 -79.75021404 -21.26702357 -112.56835938 -17.15991211 C -114.84649538 -16.76218528 -117.11741957 -16.32168054 -119.38085938 -15.84741211 C -120.07147461 -15.7073877 -120.76208984 -15.56736328 -121.47363281 -15.4230957 C -143.62490451 -10.77971855 -163.56980199 -0.478666 -180.06445312 15.01196289 C -182.38085937 17.15258789 -182.38085937 17.15258789 -185.27929688 19.44946289 C -205.52903992 36.23927359 -218.11239005 67.25928847 -220.94335938 92.81665039 C -222.37759547 108.32178777 -222.18713403 124.01064521 -218.38085938 139.15258789 C -218.13940186 140.12470215 -218.13940186 140.12470215 -217.89306641 141.11645508 C -212.58403218 161.64880071 -202.3272619 182.12723701 -186.70556641 196.69848633 C -185.38085938 198.15258789 -185.38085938 198.15258789 -185.38085938 200.15258789 C -184.52234375 200.52383789 -184.52234375 200.52383789 -183.64648438 200.90258789 C -181.030514 202.34588189 -179.2656695 204.06256399 -177.13085938 206.15258789 C -152.21021663 228.88400872 -118.43223582 237.64073027 -85.38085938 236.15258789 C -58.01949922 234.4149756 -28.13534847 223.26507889 -8.63867188 203.35180664 C -6.38085938 201.15258789 -6.38085938 201.15258789 -4.38085938 201.15258789 C -4.13335937 200.55446289 -3.88585937 199.95633789 -3.63085938 199.34008789 C -2.12659197 196.70761994 -1.05578029 195.59849109 1.61914062 194.15258789 C 5.49954152 193.66753778 7.69530182 193.58407171 11.05664062 195.65258789 C 13.21079644 199.09923719 13.36034835 202.24007323 12.61914062 206.15258789 C 10.80183126 208.69314347 9.31810908 210.41327269 7.05664062 212.46508789 C 6.47309814 213.01777344 5.88955566 213.57045898 5.28833008 214.13989258 C -14.28643554 232.25842646 -37.65874876 243.64051101 -63.38085938 250.15258789 C -64.03715332 250.31919922 -64.69344727 250.48581055 -65.36962891 250.6574707 C -99.22717242 258.83611212 -137.3045275 251.55621348 -167.05664062 234.02758789 C -199.83293518 213.98258131 -225.29143889 182.74520272 -234.47070312 144.94555664 C -235.21359321 141.35676923 -235.82273328 137.77411284 -236.38085938 134.15258789 C -236.68443359 132.68499023 -236.68443359 132.68499023 -236.99414062 131.18774414 C -243.73424213 96.2951098 -234.09674437 59.74817425 -215.38085938 30.15258789 C -193.62663182 -1.81771338 -160.63239331 -25.41371633 -122.38085938 -32.84741211 C -78.79242097 -40.85962218 -33.55875941 -29.01225084 0 0 Z" stroke-linecap="round" />
</g>
<g transform="matrix(0.46 0 0 0.46 993.06 721.87)"  >
<path style="stroke: none; stroke-width: 1; stroke-dasharray: none; stroke-linecap: butt; stroke-dashoffset: 0; stroke-linejoin: miter; stroke-miterlimit: 4; fill: rgb(255,255,255); fill-rule: nonzero; opacity: 1;" vector-effect="non-scaling-stroke"  transform=" translate(-16, -64)" d="M 0 0 C 10.56 0 21.12 0 32 0 C 32.04898438 2.98546875 32.09796875 5.9709375 32.1484375 9.046875 C 32.20245311 11.93950396 32.25975835 14.83205033 32.31738281 17.72460938 C 32.35565669 19.73431238 32.39051236 21.74408351 32.421875 23.75390625 C 32.46755991 26.6434768 32.52554887 29.53257896 32.5859375 32.421875 C 32.59748871 33.31992859 32.60903992 34.21798218 32.62094116 35.14324951 C 32.64081085 35.98381897 32.66068054 36.82438843 32.68115234 37.69042969 C 32.69447601 38.42767273 32.70779968 39.16491577 32.7215271 39.92449951 C 33.04356236 42.32467683 33.73251435 43.94330668 35 46 C 37.2831244 47.1415622 38.63479305 47.15334372 41.17431641 47.20532227 C 42.03505768 47.22526749 42.89579895 47.24521271 43.78262329 47.26576233 C 44.71287323 47.28247482 45.64312317 47.29918732 46.6015625 47.31640625 C 47.55316254 47.33718735 48.50476257 47.35796844 49.48519897 47.37937927 C 52.53172432 47.44488133 55.57833743 47.5037628 58.625 47.5625 C 60.68750916 47.60568459 62.75000937 47.64929886 64.8125 47.69335938 C 69.87491127 47.80137379 74.93738701 47.90044234 80 48 C 80 58.56 80 69.12 80 80 C 75.41351563 80.03867187 75.41351563 80.03867187 70.734375 80.078125 C 67.7722046 80.11654032 64.81020858 80.16170224 61.84814453 80.20751953 C 59.78996102 80.23574049 57.7316689 80.25694941 55.67333984 80.27099609 C 52.71395215 80.2924099 49.7558718 80.33905221 46.796875 80.390625 C 45.41698395 80.39246796 45.41698395 80.39246796 44.00921631 80.39434814 C 40.28806429 80.47961057 37.71209249 80.60559369 34.42578125 82.42578125 C 32.20274358 86.43943008 32.39666019 90.27809837 32.390625 94.796875 C 32.37408875 95.74564514 32.35755249 96.69441528 32.34051514 97.67193604 C 32.29198561 100.69802288 32.27065305 103.72360701 32.25 106.75 C 32.22184449 108.80341078 32.19191765 110.85679808 32.16015625 112.91015625 C 32.08289398 117.94033652 32.04242055 122.96892253 32 128 C 21.44 128 10.88 128 0 128 C -0.04898438 124.93074219 -0.09796875 121.86148438 -0.1484375 118.69921875 C -0.20242901 115.73050001 -0.25974371 112.76186278 -0.31738281 109.79321289 C -0.35569348 107.72817035 -0.39054266 105.6630606 -0.421875 103.59790039 C -0.46748014 100.63142862 -0.52548201 97.6654204 -0.5859375 94.69921875 C -0.59748871 93.7741301 -0.60903992 92.84904144 -0.62094116 91.8959198 C -0.64081085 91.03525406 -0.66068054 90.17458832 -0.68115234 89.2878418 C -0.69447601 88.53061325 -0.70779968 87.7733847 -0.7215271 86.99320984 C -0.89708612 84.68394812 -0.89708612 84.68394812 -3 82 C -5.70948975 81.09683675 -7.40135334 80.853425 -10.19604492 80.79467773 C -11.03668991 80.77473251 -11.8773349 80.75478729 -12.74345398 80.73423767 C -13.64666885 80.71752518 -14.54988373 80.70081268 -15.48046875 80.68359375 C -16.87245232 80.6524221 -16.87245232 80.6524221 -18.29255676 80.62062073 C -21.2574624 80.55522677 -24.22245672 80.49628738 -27.1875 80.4375 C -29.1972748 80.39430513 -31.20704063 80.35069053 -33.21679688 80.30664062 C -38.14444167 80.19876571 -43.07215361 80.09961668 -48 80 C -48 69.44 -48 58.88 -48 48 C -45.01453125 47.95101562 -42.0290625 47.90203125 -38.953125 47.8515625 C -36.06049604 47.79754689 -33.16794967 47.74024165 -30.27539062 47.68261719 C -28.26568762 47.64434331 -26.25591649 47.60948764 -24.24609375 47.578125 C -21.3565232 47.53244009 -18.46742104 47.47445113 -15.578125 47.4140625 C -14.68007141 47.40251129 -13.78201782 47.39096008 -12.85675049 47.37905884 C -12.01618103 47.35918915 -11.17561157 47.33931946 -10.30957031 47.31884766 C -9.57232727 47.30552399 -8.83508423 47.29220032 -8.07550049 47.2784729 C -5.64791155 46.95275978 -4.05202154 46.33612941 -2 45 C -1.09683675 42.29051025 -0.853425 40.59864666 -0.79467773 37.80395508 C -0.7647599 36.54298759 -0.7647599 36.54298759 -0.73423767 35.25654602 C -0.70916893 33.90172371 -0.70916893 33.90172371 -0.68359375 32.51953125 C -0.66281265 31.59154221 -0.64203156 30.66355316 -0.62062073 29.70744324 C -0.55522677 26.7425376 -0.49628738 23.77754328 -0.4375 20.8125 C -0.39430513 18.8027252 -0.35069053 16.79295937 -0.30664062 14.78320312 C -0.19876571 9.85555833 -0.09961668 4.92784639 0 0 Z" stroke-linecap="round" />
</g>
<g transform="matrix(0 0 0 0 -40 -70)"  >
<g style=""   >
</g>
</g>
<g transform="matrix(0 0 0 0 0 0)"  >
<g style=""   >
</g>
</g>
</svg>