<?xml version="1.0" encoding="utf-8"?>
<svg xmlns="http://www.w3.org/2000/svg" viewBox="0 -1.3 325.689 352.433">
  <desc>Created with Fabric.js 5.2.4</desc>
  <g transform="matrix(1, 0, 0, 1, 247.564529, 253.51474)" id="e51f3511-3d3d-4983-a87b-81d944e254dc">
    <rect style="stroke: none; stroke-width: 1; stroke-dasharray: none; stroke-linecap: butt; stroke-dashoffset: 0; stroke-linejoin: miter; stroke-miterlimit: 4; fill: rgb(255,255,255); fill-rule: nonzero; opacity: 1; visibility: hidden;" vector-effect="non-scaling-stroke" x="-250" y="-250" rx="0" ry="0" width="500" height="500"/>
  </g>
  <g id="52041676-53f4-415e-b3a6-7315148d1b9c" transform="matrix(1, 0, 0, 1, -2.435472, 3.514727)"/>
  <g transform="matrix(1, 0, 0, 1, -2.435472, 3.514727)">
    <g style=""/>
  </g>
  <g transform="matrix(1, 0, 0, 1, -2.435472, 3.514727)">
    <g style=""/>
  </g>
  <g transform="matrix(0.067107, 0, 0, -0.065553, 11.823158, 346.209351)" style="" fill="#000000" stroke="none">
    <desc>Created with Fabric.js 5.2.4</desc>
  </g>
  <g transform="matrix(1, 0, 0, 1, 530.183655, 135.263077)" id="group-1" fill="#000000" stroke="none">
    <rect style="stroke: none; stroke-width: 1; stroke-dasharray: none; stroke-linecap: butt; stroke-dashoffset: 0; stroke-linejoin: miter; stroke-miterlimit: 4; fill: rgb(255,255,255); fill-rule: nonzero; opacity: 1; visibility: hidden;" vector-effect="non-scaling-stroke" x="-250" y="-250" rx="0" ry="0" width="500" height="500"/>
  </g>
  <g id="group-2" transform="matrix(1, 0, 0, 0.999999, 280.183624, -114.736961)" fill="#000000" stroke="none"/>
  <g transform="matrix(1, 0, 0, 0.999999, 280.183624, -114.736961)" fill="#000000" stroke="none">
    <g style=""/>
  </g>
  <g transform="matrix(1, 0, 0, 0.999999, 280.183624, -114.736961)" fill="#000000" stroke="none">
    <g style=""/>
  </g>
  <desc>Created with Fabric.js 5.2.4</desc>
  <g transform="matrix(1, 0, 0, 1, 245.4729, 246.417297)" id="group-3">
    <rect style="stroke: none; stroke-width: 1; stroke-dasharray: none; stroke-linecap: butt; stroke-dashoffset: 0; stroke-linejoin: miter; stroke-miterlimit: 4; fill: rgb(255,255,255); fill-rule: nonzero; opacity: 1; visibility: hidden;" vector-effect="non-scaling-stroke" x="-250" y="-250" rx="0" ry="0" width="500" height="500"/>
  </g>
  <g id="group-4" transform="matrix(1, 0, 0, 1, -4.527103, -3.582715)"/>
  <g transform="matrix(1, 0, 0, 1, -4.527103, -3.582715)">
    <g style=""/>
  </g>
  <g transform="matrix(1, 0, 0, 1, -4.527103, -3.582715)">
    <g style=""/>
  </g>
  <path d="M 173.648 12.969 C 175.96 14.107 178.289 15.211 180.617 16.315 C 181.09 16.536 181.562 16.763 182.05 16.993 C 218.603 34.26 259.885 46.911 299.583 52.031 C 302.533 52.442 304.931 52.994 307.399 54.808 C 308.618 57.84 308.857 60.461 308.855 63.737 C 308.857 64.203 308.858 64.669 308.86 65.149 C 308.863 66.7 308.858 68.252 308.852 69.804 C 308.853 70.92 308.854 72.037 308.856 73.154 C 308.859 76.185 308.854 79.216 308.848 82.247 C 308.842 85.434 308.843 88.621 308.843 91.809 C 308.842 97.174 308.837 102.539 308.828 107.904 C 308.818 114.067 308.815 120.23 308.815 126.393 C 308.815 132.992 308.811 139.59 308.805 146.188 C 308.804 148.069 308.803 149.949 308.803 151.829 C 308.79 198.795 303.829 243.705 272.397 279.603 C 271.231 280.939 270.136 282.311 269.041 283.712 C 256.982 298.341 241.114 309.286 225.093 318.335 C 224.672 318.575 224.251 318.815 223.817 319.062 C 207.913 328.051 190.755 334.661 173.247 339.074 C 172.702 339.215 172.158 339.355 171.597 339.501 C 164.797 341.099 158.449 340.623 151.74 338.815 C 151.059 338.636 150.379 338.456 149.678 338.272 C 135.527 334.395 121.551 329.361 108.44 322.474 C 107.518 322.001 106.596 321.529 105.673 321.057 C 90.634 313.279 76.625 303.581 64.368 291.431 C 63.468 290.593 62.568 289.76 61.658 288.93 C 56.838 284.439 52.798 279.523 48.818 274.184 C 48.028 273.147 48.028 273.147 47.238 272.09 C 28.328 246.81 18.628 215.611 17.348 183.49 C 17.328 182.808 17.298 182.125 17.268 181.422 C 16.968 173.13 16.958 164.837 16.958 156.538 C 16.948 154.839 16.948 153.139 16.948 151.439 C 16.948 147.914 16.938 144.389 16.938 140.863 C 16.938 136.348 16.928 131.834 16.918 127.319 C 16.918 123.826 16.918 120.332 16.918 116.839 C 16.918 115.173 16.908 113.507 16.908 111.841 C 16.898 109.524 16.898 107.207 16.908 104.89 C 16.898 104.207 16.898 103.525 16.888 102.821 C 16.908 99.441 17.018 96.576 18.358 93.44 C 19.778 92.06 19.778 92.06 21.598 91.371 C 24.338 91.874 26.378 92.412 28.078 94.82 C 28.328 96.472 28.328 96.472 28.328 98.466 C 28.328 99.223 28.338 99.98 28.338 100.76 C 28.338 101.591 28.328 102.421 28.328 103.278 C 28.338 104.621 28.338 105.966 28.348 107.31 C 28.348 108.757 28.348 110.204 28.348 111.652 C 28.338 114.685 28.348 117.718 28.368 120.751 C 28.388 127.212 28.398 133.674 28.398 140.135 C 28.408 147.062 28.418 153.99 28.448 160.918 C 28.458 163.43 28.468 165.942 28.458 168.454 C 28.408 207.35 37.158 243.519 62.458 272.707 C 63.488 273.903 64.438 275.113 65.388 276.383 C 67.448 278.915 69.748 280.992 72.148 283.152 C 72.757 283.722 73.364 284.292 73.991 284.88 C 96.756 306.087 125.514 319.471 154.615 327.303 C 155.425 327.531 155.425 327.531 156.251 327.764 C 173.344 332.13 197.646 319.404 212.78 311.437 C 213.406 311.108 214.033 310.778 214.677 310.439 C 223.039 306.007 231.146 301.427 238.703 295.57 C 239.126 295.247 239.548 294.925 239.985 294.592 C 245.975 290.009 251.551 285.176 256.849 279.703 C 257.429 279.112 257.429 279.112 258.021 278.509 C 281.894 254.135 296.187 219.91 297.098 184.6 C 297.142 181.422 297.152 178.243 297.162 175.064 C 297.169 173.846 297.175 172.629 297.182 171.411 C 297.199 168.126 297.213 164.842 297.226 161.556 C 297.24 158.116 297.258 154.675 297.275 151.235 C 297.307 144.729 297.337 138.223 297.365 131.716 C 297.397 124.306 297.432 116.895 297.468 109.484 C 297.542 94.248 297.611 79.012 297.677 63.776 C 296.922 63.684 296.167 63.591 295.388 63.496 C 294.387 63.372 293.385 63.249 292.384 63.126 C 291.887 63.065 291.39 63.004 290.878 62.942 C 287.317 62.5 283.816 61.92 280.308 61.121 C 279.769 61.003 279.229 60.883 278.673 60.761 C 276.946 60.378 275.221 59.987 273.497 59.593 C 272.896 59.458 272.296 59.323 271.677 59.184 C 253.765 55.138 236.011 50.572 218.612 44.46 C 217.75 44.159 216.887 43.858 216.025 43.558 C 199.21 37.676 182.744 30.968 166.615 23.193 C 163.668 21.774 163.668 21.774 160.573 22.275 C 159.941 22.589 159.309 22.902 158.658 23.225 C 157.926 23.578 157.195 23.932 156.441 24.297 C 155.849 24.587 155.849 24.587 155.246 24.883 C 142.538 31.095 129.4 36.08 116.217 41.011 C 115.738 41.189 115.259 41.369 114.765 41.554 C 105.142 45.142 95.493 48.458 85.585 51.049 C 83.47 51.602 81.37 52.193 79.276 52.831 C 72.172 54.991 65.048 56.763 57.808 58.343 C 56.768 58.575 55.718 58.808 54.668 59.041 C 35.538 63.288 35.538 63.288 28.078 63.776 C 28.098 64.175 28.108 64.576 28.128 64.987 C 28.198 66.811 28.238 68.635 28.278 70.459 C 28.308 71.088 28.338 71.717 28.368 72.366 C 28.418 75.591 28.448 77.068 26.548 79.699 C 24.748 81.094 23.818 81.712 21.598 81.712 C 19.508 80.832 18.598 80.182 17.628 78.004 C 16.818 74.417 16.848 70.945 16.858 67.268 C 16.838 66.173 16.838 66.173 16.828 65.054 C 16.828 60.921 16.918 57.673 19.008 54.118 C 21.548 52.739 24.098 52.347 26.898 51.916 C 27.848 51.765 28.788 51.614 29.738 51.461 C 30.238 51.382 30.738 51.303 31.258 51.221 C 72.271 44.643 112.544 31.496 150.529 13.873 C 151.541 13.404 151.541 13.404 152.573 12.928 C 153.753 12.369 154.926 11.789 156.086 11.182 C 162.848 7.678 167.154 9.761 173.648 12.969 Z" style="stroke-width: 0.669;"/>
  <path d="M 153.135 119.416 C 154.261 119.416 154.261 119.416 155.409 119.416 C 156.992 119.419 158.577 119.431 160.161 119.451 C 162.585 119.48 165.007 119.48 167.431 119.475 C 168.971 119.482 170.511 119.491 172.051 119.502 C 172.776 119.502 173.5 119.502 174.246 119.502 C 175.262 119.518 175.262 119.518 176.298 119.536 C 176.891 119.541 177.484 119.547 178.095 119.553 C 180.118 119.882 181.354 120.632 183.007 121.895 C 183.755 123.487 183.734 124.384 183.729 126.154 C 183.729 127.045 183.729 127.045 183.729 127.953 C 183.725 128.596 183.722 129.237 183.719 129.898 C 183.718 130.555 183.717 131.211 183.716 131.888 C 183.712 133.99 183.704 136.091 183.696 138.193 C 183.693 139.615 183.69 141.039 183.687 142.461 C 183.68 145.954 183.669 149.446 183.655 152.939 C 184.463 152.928 185.27 152.917 186.103 152.906 C 189.104 152.868 192.105 152.844 195.107 152.825 C 196.405 152.815 197.703 152.8 199.001 152.782 C 200.869 152.757 202.736 152.746 204.604 152.737 C 205.182 152.726 205.761 152.715 206.357 152.704 C 209.471 152.703 211.602 152.813 214.115 155.008 C 214.925 156.732 214.854 157.917 214.867 159.846 C 214.874 160.566 214.88 161.287 214.886 162.03 C 214.891 163.203 214.891 163.203 214.895 164.399 C 214.898 165.201 214.902 166.002 214.906 166.828 C 214.912 168.527 214.917 170.225 214.918 171.924 C 214.925 174.522 214.945 177.12 214.966 179.718 C 214.97 181.367 214.973 183.015 214.976 184.664 C 214.984 185.442 214.992 186.219 215 187.021 C 214.998 187.748 214.996 188.475 214.994 189.225 C 214.998 190.181 214.998 190.181 215.001 191.157 C 214.71 193.346 214.058 194.637 212.819 196.4 C 211.033 197.033 209.994 197.174 208.155 197.168 C 207.61 197.168 207.066 197.168 206.505 197.168 C 205.919 197.164 205.333 197.161 204.731 197.157 C 203.829 197.155 203.829 197.155 202.908 197.154 C 200.987 197.151 199.065 197.142 197.144 197.133 C 195.841 197.129 194.539 197.126 193.236 197.124 C 190.043 197.116 186.849 197.104 183.655 197.09 C 183.666 197.949 183.676 198.809 183.687 199.695 C 183.722 202.89 183.744 206.084 183.762 209.279 C 183.772 210.661 183.785 212.043 183.802 213.424 C 183.826 215.413 183.837 217.401 183.845 219.389 C 183.856 220.005 183.865 220.621 183.876 221.256 C 183.876 224.547 183.811 226.891 181.711 229.513 C 179.771 230.202 178.462 230.298 176.435 230.314 C 175.755 230.321 175.076 230.327 174.376 230.334 C 173.643 230.337 172.91 230.34 172.155 230.343 C 171.401 230.347 170.648 230.351 169.872 230.355 C 168.277 230.362 166.682 230.366 165.087 230.369 C 162.646 230.376 160.204 230.397 157.762 230.418 C 156.213 230.423 154.666 230.427 153.118 230.43 C 152.386 230.438 151.654 230.447 150.9 230.455 C 150.219 230.453 149.538 230.451 148.836 230.449 C 147.938 230.453 147.938 230.453 147.022 230.456 C 145.096 230.152 144.223 229.561 142.827 228.134 C 142.232 226.232 142.1 225.126 142.106 223.169 C 142.106 222.589 142.106 222.009 142.106 221.412 C 142.109 220.789 142.112 220.166 142.115 219.524 C 142.117 218.883 142.117 218.243 142.118 217.584 C 142.122 215.538 142.13 213.493 142.139 211.447 C 142.142 210.061 142.144 208.675 142.147 207.288 C 142.154 203.888 142.166 200.489 142.179 197.09 C 140.933 197.106 140.933 197.106 139.662 197.122 C 136.579 197.16 133.497 197.184 130.415 197.204 C 129.081 197.214 127.747 197.228 126.413 197.246 C 124.496 197.271 122.578 197.282 120.661 197.292 C 119.766 197.308 119.766 197.308 118.854 197.324 C 114.736 197.325 114.736 197.325 112.659 196.172 C 110.962 194.092 110.981 192.048 110.946 189.414 C 110.931 188.333 110.931 188.333 110.915 187.23 C 110.886 183.941 110.859 180.652 110.844 177.363 C 110.833 175.627 110.816 173.891 110.791 172.155 C 110.756 169.653 110.741 167.153 110.732 164.65 C 110.717 163.874 110.703 163.099 110.688 162.3 C 110.696 159.052 110.733 156.994 112.312 154.168 C 115.157 152.419 117.494 152.505 120.724 152.601 C 121.338 152.607 121.952 152.612 122.584 152.617 C 124.54 152.636 126.493 152.679 128.448 152.723 C 129.775 152.74 131.103 152.756 132.431 152.77 C 135.681 152.808 138.929 152.868 142.179 152.939 C 142.162 152.058 142.145 151.177 142.128 150.27 C 142.069 146.998 142.032 143.726 142.001 140.454 C 141.984 139.039 141.962 137.624 141.934 136.209 C 141.895 134.172 141.877 132.137 141.863 130.1 C 141.846 129.47 141.829 128.838 141.812 128.188 C 141.811 125.32 141.966 123.666 143.336 121.148 C 146.526 119.122 149.487 119.358 153.135 119.416 Z" style="stroke-width: 0.669;"/>
  <path d="M 223.993 99.476 C 239.168 113.748 249.409 131.734 254.206 152.701 C 254.312 153.15 254.418 153.6 254.527 154.063 C 258.679 172.333 256.561 192.567 250.358 210.002 C 250.148 210.593 249.938 211.183 249.722 211.792 C 245.941 222.033 245.941 222.033 242.54 224.446 C 240.677 224.748 240.677 224.748 238.652 224.446 C 236.789 222.98 236.789 222.98 235.411 220.997 C 234.905 217.113 236.299 214.352 237.842 210.951 C 240.047 205.888 241.854 200.882 243.188 195.472 C 243.326 194.931 243.464 194.39 243.606 193.834 C 246.518 181.346 246.009 167.197 243.188 154.77 C 243.03 153.956 242.873 153.141 242.71 152.302 C 238.751 133.848 227.626 116.317 213.377 105.1 C 212.883 104.694 212.388 104.288 211.879 103.869 C 194.567 90.203 172.309 84.804 151.041 87.638 C 149.564 87.912 148.093 88.216 146.625 88.543 C 146.178 88.64 145.731 88.737 145.269 88.836 C 130.914 92.039 117.988 99.145 107.298 109.832 C 105.797 111.309 105.797 111.309 103.919 112.894 C 90.795 124.476 82.641 145.875 80.806 163.507 C 79.876 174.203 80 185.026 82.466 195.472 C 82.623 196.143 82.623 196.143 82.783 196.827 C 86.223 210.991 92.87 225.118 102.994 235.171 C 103.853 236.174 103.853 236.174 103.853 237.554 C 104.409 237.81 104.409 237.81 104.976 238.071 C 106.672 239.067 107.816 240.251 109.199 241.693 C 125.35 257.374 147.241 263.415 168.66 262.389 C 186.392 261.19 205.76 253.498 218.394 239.761 C 219.858 238.244 219.858 238.244 221.154 238.244 C 221.315 237.831 221.475 237.418 221.64 236.993 C 222.615 235.177 223.309 234.412 225.042 233.415 C 227.557 233.08 228.98 233.022 231.159 234.449 C 232.555 236.827 232.651 238.993 232.171 241.693 C 230.994 243.445 230.032 244.632 228.567 246.047 C 228.188 246.429 227.81 246.81 227.42 247.203 C 214.735 259.702 199.587 267.554 182.918 272.047 C 182.492 272.161 182.067 272.277 181.629 272.395 C 159.687 278.037 135.009 273.015 115.728 260.923 C 94.487 247.095 77.988 225.545 72.039 199.469 C 71.557 196.993 71.163 194.521 70.801 192.023 C 70.607 191.01 70.607 191.01 70.407 189.977 C 66.037 165.906 72.281 140.694 84.41 120.277 C 98.509 98.222 119.892 81.944 144.681 76.816 C 172.93 71.289 202.244 79.461 223.993 99.476 Z" style="stroke-width: 0.669;"/>
</svg>