<?xml version="1.0" standalone="no"?>
<!DOCTYPE svg PUBLIC "-//W3C//DTD SVG 20010904//EN"
 "http://www.w3.org/TR/2001/REC-SVG-20010904/DTD/svg10.dtd">
<svg version="1.0" xmlns="http://www.w3.org/2000/svg"
 width="512.000000pt" height="512.000000pt" viewBox="0 0 512.000000 512.000000"
 preserveAspectRatio="xMidYMid meet">

<g transform="translate(0.000000,512.000000) scale(0.100000,-0.100000)"
fill="#000000" stroke="none">
<path d="M2340 5089 c-133 -13 -325 -53 -457 -94 -124 -39 -153 -62 -153 -122
0 -33 -2 -34 -105 -83 -115 -55 -135 -77 -135 -147 0 -34 -5 -41 -39 -60 -71
-41 -235 -169 -324 -253 -182 -172 -332 -378 -442 -605 -136 -280 -195 -527
-211 -877 l-7 -157 -38 -6 c-80 -14 -163 -88 -194 -174 -54 -154 48 -334 201
-357 l43 -6 3 -217 c3 -205 4 -218 25 -247 36 -51 74 -63 229 -70 76 -4 150
-10 163 -13 18 -5 29 -23 51 -81 15 -41 43 -109 62 -150 l34 -75 -105 -118
c-111 -124 -130 -153 -130 -202 -1 -64 34 -108 285 -357 330 -326 325 -325
520 -152 60 53 116 103 125 111 14 12 25 9 85 -21 38 -18 105 -46 149 -62 44
-15 81 -28 82 -29 1 0 7 -74 12 -164 13 -193 23 -224 91 -258 43 -23 51 -23
400 -23 500 0 472 -20 496 353 4 70 9 97 19 97 18 0 234 87 263 106 21 14 26
14 40 1 10 -8 66 -58 126 -111 123 -109 157 -125 226 -106 39 10 76 42 293
258 249 248 287 296 287 358 -1 48 -20 78 -131 201 l-105 118 34 75 c19 41 47
109 62 150 22 58 33 76 51 81 13 3 87 9 164 13 161 8 197 20 232 82 21 37 23
50 23 245 l0 207 44 6 c153 23 255 203 201 357 -31 86 -114 160 -195 174 l-38
6 -7 157 c-15 352 -76 605 -214 887 -165 337 -452 659 -748 838 -48 29 -52 35
-53 70 0 70 -21 92 -135 147 -102 49 -105 51 -105 84 0 56 -30 82 -137 116
-215 69 -399 99 -643 105 -96 2 -218 -1 -270 -6z m431 -79 c134 -14 318 -51
442 -90 95 -30 97 -31 97 -62 0 -46 -178 -1445 -191 -1502 -14 -59 -66 -121
-124 -147 -37 -17 -74 -19 -435 -19 -362 0 -398 2 -435 19 -50 23 -93 66 -113
111 -13 32 -202 1465 -202 1537 0 32 1 32 95 62 112 36 307 77 426 90 121 12
320 13 440 1z m-1027 -297 c3 -21 38 -288 76 -593 38 -305 72 -570 75 -587 l6
-33 -71 0 c-61 0 -74 3 -94 23 -13 13 -27 41 -30 63 -23 142 -136 1070 -132
1081 5 12 139 83 157 83 4 0 10 -17 13 -37z m1739 -5 c32 -16 60 -35 63 -42 4
-10 -109 -935 -132 -1080 -4 -22 -17 -50 -30 -63 -20 -20 -33 -23 -94 -23
l-71 0 6 33 c3 17 37 282 75 587 38 305 73 572 76 593 7 44 11 44 107 -5z
m-1973 -203 c0 -44 122 -959 131 -982 27 -72 86 -103 192 -103 l73 0 16 -70
c27 -113 92 -188 197 -225 36 -12 109 -15 442 -15 365 0 403 2 448 19 103 39
170 120 192 233 l11 56 87 4 c77 3 92 6 123 30 19 15 42 42 51 60 10 22 39
213 78 519 34 266 63 486 65 488 2 2 23 -9 46 -24 176 -116 377 -306 501 -473
269 -362 406 -782 407 -1239 l0 -83 -619 0 -620 0 -7 23 c-3 12 -13 30 -22 40
-17 19 -700 247 -740 247 -14 0 -184 -52 -378 -115 -294 -96 -356 -120 -373
-142 -12 -14 -21 -32 -21 -39 0 -12 -103 -14 -620 -14 l-620 0 0 83 c1 689
324 1310 880 1692 72 49 80 52 80 30z m1401 -1686 l339 -112 0 -436 c0 -361
-3 -447 -15 -496 -43 -163 -193 -314 -419 -420 -186 -88 -252 -100 -359 -64
-298 99 -521 288 -572 484 -12 49 -15 135 -15 496 l0 436 333 111 c182 60 340
110 351 111 10 1 171 -49 357 -110z m-1121 -399 l0 -190 -675 0 c-643 0 -678
1 -713 19 -67 34 -102 93 -102 171 0 53 24 113 56 141 57 50 32 48 757 49
l677 0 0 -190z m2931 170 c58 -30 99 -99 99 -167 0 -81 -34 -139 -102 -174
-35 -18 -70 -19 -713 -19 l-675 0 0 190 0 190 675 0 c661 0 677 0 716 -20z
m-2931 -603 c0 -178 11 -243 57 -335 88 -175 322 -350 585 -437 97 -32 160
-32 256 1 243 81 444 219 547 374 78 117 88 157 93 373 l4 187 150 0 151 0 -6
-112 c-7 -135 -33 -245 -85 -365 -110 -256 -336 -473 -596 -574 -240 -93 -532
-93 -772 0 -193 75 -397 239 -509 410 -103 157 -162 337 -172 529 l-6 112 152
0 151 0 0 -163z m-380 73 c0 -272 130 -570 340 -779 542 -541 1454 -406 1824
270 80 146 136 356 136 509 l0 80 425 0 425 0 0 -195 c0 -195 0 -196 -25 -220
-14 -15 -36 -25 -52 -25 -96 -1 -328 -21 -338 -30 -7 -6 -27 -52 -45 -103 -17
-50 -52 -133 -76 -183 -24 -51 -44 -94 -44 -98 0 -3 48 -60 108 -127 119 -134
142 -165 142 -194 0 -22 -481 -511 -517 -526 -36 -14 -59 1 -198 125 -71 64
-135 116 -142 116 -8 0 -53 -20 -101 -44 -48 -23 -129 -58 -179 -76 -51 -18
-97 -38 -102 -44 -5 -6 -14 -92 -20 -191 -11 -174 -12 -181 -37 -203 -25 -22
-26 -22 -374 -22 -348 0 -349 0 -374 22 -25 22 -26 29 -37 203 -7 114 -15 185
-23 193 -7 7 -55 27 -107 46 -51 18 -131 52 -176 75 -46 22 -88 41 -96 41 -7
0 -71 -52 -142 -116 -139 -124 -162 -139 -197 -125 -37 15 -518 504 -518 526
0 29 23 60 143 194 59 67 107 124 107 127 0 4 -20 47 -44 98 -24 50 -59 133
-76 183 -18 51 -38 97 -45 103 -10 9 -242 29 -338 30 -16 0 -38 10 -52 25 -25
24 -25 25 -25 220 l0 195 425 0 425 0 0 -80z"/>
<path d="M2277 2736 c-193 -63 -283 -97 -293 -111 -13 -17 -15 -79 -12 -420
l3 -400 33 -66 c23 -47 53 -87 106 -137 87 -82 177 -137 317 -194 121 -48 144
-48 269 4 195 79 352 203 412 327 l33 66 3 400 c3 376 2 402 -15 422 -12 15
-97 47 -278 106 -143 46 -269 87 -280 89 -11 3 -142 -34 -298 -86z m545 -77
l249 -81 -3 -381 c-3 -380 -3 -382 -27 -427 -30 -56 -118 -144 -196 -195 -67
-44 -223 -114 -271 -122 -74 -12 -347 135 -434 235 -88 99 -85 78 -88 508 l-3
381 243 81 c134 44 252 80 262 81 10 1 131 -35 268 -80z"/>
<path d="M2440 2498 c-38 -21 -50 -55 -50 -150 l0 -88 -99 0 c-96 0 -100 -1
-120 -26 -18 -24 -21 -41 -21 -141 0 -108 1 -115 25 -138 22 -23 32 -25 119
-25 l94 0 4 -101 c4 -136 8 -139 168 -139 160 0 163 2 168 139 l4 101 95 0
c86 0 96 2 118 25 24 23 25 30 25 138 0 100 -3 117 -21 141 -20 25 -24 26
-119 26 l-98 0 -4 100 c-4 138 -11 144 -156 148 -73 2 -115 -1 -132 -10z m208
-183 c2 -89 6 -112 19 -122 11 -9 53 -13 120 -13 l103 0 0 -85 0 -85 -104 0
c-57 0 -111 -3 -120 -6 -13 -5 -16 -25 -16 -120 l0 -114 -90 0 -90 0 0 114 c0
95 -3 115 -16 120 -9 3 -63 6 -120 6 l-104 0 0 85 0 85 101 0 c142 0 139 -2
139 129 0 59 3 111 7 115 4 4 43 5 88 4 l80 -3 3 -110z"/>
</g>
</svg>
