<?xml version="1.0" encoding="UTF-8" standalone="no" ?>
<!DOCTYPE svg PUBLIC "-//W3C//DTD SVG 1.1//EN" "http://www.w3.org/Graphics/SVG/1.1/DTD/svg11.dtd">
<svg xmlns="http://www.w3.org/2000/svg" xmlns:xlink="http://www.w3.org/1999/xlink" version="1.1" width="500" height="200" viewBox="0 0 500 200" xml:space="preserve">
<desc>Created with Fabric.js 5.2.4</desc>
<defs>
</defs>
<rect x="0" y="0" width="100%" height="100%" fill="transparent"></rect>
<g transform="matrix(1 0 0 1 250 100)" id="29938bf5-fbb0-453b-9aef-93dfb6c7383c"  >
<rect style="stroke: none; stroke-width: 1; stroke-dasharray: none; stroke-linecap: butt; stroke-dashoffset: 0; stroke-linejoin: miter; stroke-miterlimit: 4; fill: rgb(255,255,255); fill-rule: nonzero; opacity: 1; visibility: hidden;" vector-effect="non-scaling-stroke"  x="-250" y="-100" rx="0" ry="0" width="500" height="200" />
</g>
<g transform="matrix(Infinity NaN NaN Infinity 0 0)" id="be376ae6-e89b-45ff-87df-78ad3e9dc546"  >
</g>
<g transform="matrix(1.04 0 0 1.04 250 100)"  >
<g style="" vector-effect="non-scaling-stroke"   >
		<g transform="matrix(1.11 0 0 1.11 -185.15 -31.7)"  >
<path style="stroke: none; stroke-width: 1; stroke-dasharray: none; stroke-linecap: butt; stroke-dashoffset: 0; stroke-linejoin: miter; stroke-miterlimit: 4; fill: rgb(255,255,255); fill-rule: nonzero; opacity: 1;" vector-effect="non-scaling-stroke"  transform=" translate(-29.5, -29.5)" d="M 45.5 45.5 L 45.004 45.5 C 27.918 45.5 13.5 32.309 13.5 15.219 L 13.5 13.5 L 15.339 13.5 C 32.425 13.5 45.5 27.802 45.5 44.892 L 45.5 45.5 z M 16.692 16.572 C 17.38 31.13 29.097 42.851 43.65 43.539 C 42.963 28.98 31.247 17.26 16.692 16.572 z" stroke-linecap="round" />
</g>
		<g transform="matrix(1.11 0 0 1.11 -191.23 -14.6)"  >
<path style="stroke: none; stroke-width: 1; stroke-dasharray: none; stroke-linecap: butt; stroke-dashoffset: 0; stroke-linejoin: miter; stroke-miterlimit: 4; fill: rgb(255,255,255); fill-rule: nonzero; opacity: 1;" vector-effect="non-scaling-stroke"  transform=" translate(-24.03, -44.89)" d="M 24.027 54.907 C 15.753000000000002 54.907 7.971 51.681 2.1129999999999995 45.82599999999999 L 1.1779999999999995 44.891999999999996 L 2.1129999999999995 43.956999999999994 C 7.970999999999999 38.099 15.753 34.87199999999999 24.027 34.87199999999999 C 32.301 34.87199999999999 40.082 38.09899999999999 45.937 43.956999999999994 L 46.873 44.891999999999996 L 45.937 45.82599999999999 C 40.083 51.682 32.3 54.907 24.027 54.907 z M 4.961 44.892 C 10.193000000000001 49.655 16.912 52.265 24.027 52.265 C 31.142000000000003 52.265 37.86 49.656 43.09 44.892 C 37.86 40.125 31.141000000000005 37.516000000000005 24.027000000000005 37.516000000000005 C 16.912 37.516 10.193 40.125 4.961 44.892 z" stroke-linecap="round" />
</g>
		<g transform="matrix(1.11 0 0 1.11 -184.69 1.63)"  >
<path style="stroke: none; stroke-width: 1; stroke-dasharray: none; stroke-linecap: butt; stroke-dashoffset: 0; stroke-linejoin: miter; stroke-miterlimit: 4; fill: rgb(255,255,255); fill-rule: nonzero; opacity: 1;" vector-effect="non-scaling-stroke"  transform=" translate(-29.91, -59.5)" d="M 15.339 75.5 L 13.5 75.5 L 13.5 74.557 C 13.5 57.471 27.914 43.5 44.994 43.5 L 46.315 43.5 L 46.324999999999996 44.667 C 46.325 61.752 32.425 75.5 15.339 75.5 z M 43.65 46.245 C 29.092 46.933 17.38 58.649 16.692 73.203 C 31.246 72.515 42.962 60.799 43.65 46.245 z" stroke-linecap="round" />
</g>
		<g transform="matrix(1.11 0 0 1.11 -167.91 8.71)"  >
<path style="stroke: none; stroke-width: 1; stroke-dasharray: none; stroke-linecap: butt; stroke-dashoffset: 0; stroke-linejoin: miter; stroke-miterlimit: 4; fill: rgb(255,255,255); fill-rule: nonzero; opacity: 1;" vector-effect="non-scaling-stroke"  transform=" translate(-45.02, -65.87)" d="M 45.003 88.712 L 44.069 87.777 C 31.989000000000004 75.694 31.989000000000004 56.036 44.069 43.957 L 45.003 43.022 L 45.937 43.957 C 51.796 49.813 55.022999999999996 57.593 55.022999999999996 65.867 C 55.022999999999996 74.141 51.796 81.922 45.937 87.777 L 45.003 88.712 z M 45.004 46.806 C 35.199 57.580999999999996 35.199 74.151 45.004 84.929 C 49.769999999999996 79.7 52.379999999999995 72.983 52.379999999999995 65.867 C 52.381 58.753 49.771 52.035 45.004 46.806 z" stroke-linecap="round" />
</g>
		<g transform="matrix(1.11 0 0 1.11 -151.82 1.63)"  >
<path style="stroke: none; stroke-width: 1; stroke-dasharray: none; stroke-linecap: butt; stroke-dashoffset: 0; stroke-linejoin: miter; stroke-miterlimit: 4; fill: rgb(255,255,255); fill-rule: nonzero; opacity: 1;" vector-effect="non-scaling-stroke"  transform=" translate(-59.5, -59.5)" d="M 75.5 75.5 L 74.672 75.5 C 57.585 75.5 43.5 61.978 43.5 44.892 L 43.5 43.5 L 45.003 43.5 C 62.096 43.5 75.5 57.471 75.5 74.557 L 75.5 75.5 z M 46.356 46.245 C 47.044000000000004 60.799 58.763000000000005 72.515 73.319 73.203 C 72.631 58.646 60.913 46.928 46.356 46.245 z" stroke-linecap="round" />
</g>
		<g transform="matrix(1.11 0 0 1.11 -144.61 -14.84)"  >
<path style="stroke: none; stroke-width: 1; stroke-dasharray: none; stroke-linecap: butt; stroke-dashoffset: 0; stroke-linejoin: miter; stroke-miterlimit: 4; fill: rgb(255,255,255); fill-rule: nonzero; opacity: 1;" vector-effect="non-scaling-stroke"  transform=" translate(-65.98, -44.67)" d="M 65.98 54.5 C 65.97800000000001 54.5 65.98 54.5 65.97800000000001 54.5 C 57.70800000000001 54.5 49.92700000000001 51.479 44.06900000000001 45.623 L 43.13400000000001 44.79 L 44.06900000000001 43.907 C 49.92700000000001 38.047999999999995 57.71100000000001 34.846999999999994 65.98600000000002 34.846999999999994 C 74.25700000000002 34.846999999999994 82.03900000000002 38.083999999999996 87.89400000000002 43.94 L 88.82800000000002 44.881 L 87.89400000000002 45.615 C 82.036 51.473 74.252 54.5 65.98 54.5 z M 46.918 44.892 C 52.147999999999996 49.655 58.867 52.264 65.979 52.264 C 73.095 52.264 79.814 49.654 85.04599999999999 44.887 C 79.817 40.123 73.101 37.515 65.98599999999999 37.515 C 58.87 37.515 52.149 40.125 46.918 44.892 z" stroke-linecap="round" />
</g>
		<g transform="matrix(1.11 0 0 1.11 -151.82 -31.7)"  >
<path style="stroke: none; stroke-width: 1; stroke-dasharray: none; stroke-linecap: butt; stroke-dashoffset: 0; stroke-linejoin: miter; stroke-miterlimit: 4; fill: rgb(255,255,255); fill-rule: nonzero; opacity: 1;" vector-effect="non-scaling-stroke"  transform=" translate(-59.5, -29.5)" d="M 45.004 45.5 L 43.5 45.5 L 43.5 44.892 C 43.5 27.802000000000003 57.583 13.500000000000004 74.668 13.500000000000004 L 75.5 13.500000000000004 L 75.5 15.219000000000003 C 75.5 32.309 62.09 45.5 45.004 45.5 z M 73.315 16.572 C 58.76 17.26 47.045 28.98 46.356 43.539 C 60.911 42.851 72.627 31.13 73.315 16.572 z" stroke-linecap="round" />
</g>
		<g transform="matrix(1.11 0 0 1.11 -167.92 -37.91)"  >
<path style="stroke: none; stroke-width: 1; stroke-dasharray: none; stroke-linecap: butt; stroke-dashoffset: 0; stroke-linejoin: miter; stroke-miterlimit: 4; fill: rgb(255,255,255); fill-rule: nonzero; opacity: 1;" vector-effect="non-scaling-stroke"  transform=" translate(-45, -23.91)" d="M 45.004 46.761 L 44.07 45.826 C 31.988 33.74 31.988 14.078 44.07 1.9960000000000022 L 45.004 1.0610000000000022 L 45.937999999999995 1.9960000000000022 C 58.020999999999994 14.082000000000003 58.020999999999994 33.744 45.937999999999995 45.826 L 45.004 46.761 z M 45.004 4.846 C 35.199 15.623 35.199 32.196 45.004 42.977000000000004 C 54.809 32.2 54.809 15.627 45.004 4.846 z" stroke-linecap="round" />
</g>
		<g transform="matrix(1.11 0 0 1.11 -188.9 -24.98)"  >
<path style="stroke: none; stroke-width: 1; stroke-dasharray: none; stroke-linecap: butt; stroke-dashoffset: 0; stroke-linejoin: miter; stroke-miterlimit: 4; fill: rgb(255,255,255); fill-rule: nonzero; opacity: 1;" vector-effect="non-scaling-stroke"  transform=" translate(-26.13, -35.55)" d="M 35.263 47.5 C 35.260999999999996 47.5 35.260999999999996 47.5 35.26 47.5 C 22.083 47.5 10.323999999999998 39.307 5.9979999999999976 26.843 L 5.563999999999997 25.686 L 6.812999999999997 25.298 C 10.109999999999998 24.153 13.533999999999997 23.595 16.989999999999995 23.595 C 30.164999999999996 23.595 41.92399999999999 31.982 46.251999999999995 44.447 L 46.687 45.702000000000005 L 45.437 45.95700000000001 C 42.14 47.101 38.716 47.5 35.263 47.5 z M 8.968 27.066 C 13.262 37.763 23.661 44.5 35.26 44.5 C 35.26 44.5 35.260999999999996 44.5 35.263 44.5 C 37.974 44.5 40.664 44.47 43.282 43.697 C 38.987 32.998 28.587 25.901 16.99 25.901 C 14.277 25.901 11.585 26.292 8.968 27.066 z" stroke-linecap="round" />
</g>
		<g transform="matrix(1.11 0 0 1.11 -189.94 -7.22)"  >
<path style="stroke: none; stroke-width: 1; stroke-dasharray: none; stroke-linecap: butt; stroke-dashoffset: 0; stroke-linejoin: miter; stroke-miterlimit: 4; fill: rgb(255,255,255); fill-rule: nonzero; opacity: 1;" vector-effect="non-scaling-stroke"  transform=" translate(-25.19, -51.53)" d="M 18.297 62.5 C 18.296 62.5 18.295 62.5 18.295 62.5 C 13.599000000000002 62.5 9.058000000000002 61.681 4.798000000000002 59.615 L 3.6090000000000018 59.152 L 4.185000000000001 58.021 C 9.41 47.232 20.096 40.559 32.075 40.559 C 36.773 40.559 41.31700000000001 41.620999999999995 45.581 43.689 L 46.769000000000005 44.272 L 46.193000000000005 45.236 C 40.966 56.024 30.277 62.5 18.297 62.5 z M 7.181 58.027 C 10.718 59.543 14.45 60.311 18.295 60.311 C 28.802 60.312 38.223 54.678 43.197 45.518 C 39.656000000000006 44 35.922000000000004 43.230000000000004 32.074000000000005 43.230000000000004 C 21.57 43.231 12.153 48.865 7.181 58.027 z" stroke-linecap="round" />
</g>
		<g transform="matrix(1.11 0 0 1.11 -178.08 6.38)"  >
<path style="stroke: none; stroke-width: 1; stroke-dasharray: none; stroke-linecap: butt; stroke-dashoffset: 0; stroke-linejoin: miter; stroke-miterlimit: 4; fill: rgb(255,255,255); fill-rule: nonzero; opacity: 1;" vector-effect="non-scaling-stroke"  transform=" translate(-35.86, -63.77)" d="M 25.898 84.326 L 25.464 83.07799999999999 C 22.746 75.25399999999999 23.235 66.84499999999998 26.842 59.39999999999999 C 30.448 51.95399999999999 36.744 46.35799999999999 44.57 43.642999999999994 L 45.819 43.208999999999996 L 46.252 44.458 C 48.97 52.28 48.481 60.687 44.875 68.132 C 41.269 75.57700000000001 34.972 81.17500000000001 27.147 83.89200000000001 L 25.898 84.326 z M 44.17 46.614 C 37.6 49.241 32.323 54.149 29.221000000000004 60.552 C 26.120000000000005 66.954 25.539000000000005 74.138 27.548000000000002 80.923 C 34.118 78.292 39.394000000000005 73.384 42.496 66.981 C 45.597 60.578 46.177 53.396 44.17 46.614 z" stroke-linecap="round" />
</g>
		<g transform="matrix(1.11 0 0 1.11 -160.27 7.42)"  >
<path style="stroke: none; stroke-width: 1; stroke-dasharray: none; stroke-linecap: butt; stroke-dashoffset: 0; stroke-linejoin: miter; stroke-miterlimit: 4; fill: rgb(255,255,255); fill-rule: nonzero; opacity: 1;" vector-effect="non-scaling-stroke"  transform=" translate(-51.89, -64.71)" d="M 59.384 86.287 L 58.195 85.71000000000001 C 50.739 82.10000000000001 45.137 75.807 42.422 67.99100000000001 C 39.706999999999994 60.177000000000014 40.202 51.76600000000001 43.815 44.31500000000001 L 44.391999999999996 43.12700000000001 L 45.581999999999994 43.70300000000001 C 53.035 47.31400000000001 58.635999999999996 53.60700000000001 61.35199999999999 61.42200000000001 C 64.06599999999999 69.23600000000002 63.57199999999999 77.64500000000001 59.96199999999999 85.09800000000001 L 59.384 86.287 z M 45.631 46.7 C 42.844 53.201 42.583 60.402 44.918 67.124 C 47.252 73.84599999999999 51.922 79.336 58.144 82.714 C 60.928 76.211 61.189 69.00999999999999 58.854 62.289 C 56.519 55.56800000000001 51.85 50.077 45.631 46.7 z" stroke-linecap="round" />
</g>
		<g transform="matrix(1.11 0 0 1.11 -146.95 -4.82)"  >
<path style="stroke: none; stroke-width: 1; stroke-dasharray: none; stroke-linecap: butt; stroke-dashoffset: 0; stroke-linejoin: miter; stroke-miterlimit: 4; fill: rgb(255,255,255); fill-rule: nonzero; opacity: 1;" vector-effect="non-scaling-stroke"  transform=" translate(-63.88, -53.69)" d="M 73.019 65.5 C 73.01700000000001 65.5 73.01700000000001 65.5 73.01700000000001 65.5 C 59.84300000000001 65.5 48.08400000000001 57.457 43.756000000000014 44.998000000000005 L 43.32100000000001 43.914 L 44.570000000000014 43.562000000000005 C 47.868000000000016 42.414 51.29700000000001 41.874 54.75500000000002 41.874 C 67.92600000000002 41.874 79.68300000000002 50.268 84.01000000000002 62.728 L 84.44500000000002 63.988 L 83.19600000000003 64.099 C 79.897 65.243 76.474 65.5 73.019 65.5 z M 46.727 45.721 C 51.021 56.414 61.42 63.5 73.017 63.5 C 73.017 63.5 73.017 63.5 73.01899999999999 63.5 C 75.731 63.5 78.422 63.115 81.03999999999999 62.342 C 76.74699999999999 51.647 66.35 44.552 54.75599999999999 44.552 C 52.04 44.552 49.346 44.944 46.727 45.721 z" stroke-linecap="round" />
</g>
		<g transform="matrix(1.11 0 0 1.11 -145.9 -22.25)"  >
<path style="stroke: none; stroke-width: 1; stroke-dasharray: none; stroke-linecap: butt; stroke-dashoffset: 0; stroke-linejoin: miter; stroke-miterlimit: 4; fill: rgb(255,255,255); fill-rule: nonzero; opacity: 1;" vector-effect="non-scaling-stroke"  transform=" translate(-64.82, -38.01)" d="M 57.925 49.192 C 57.925 49.192 57.926 49.192 57.925 49.192 C 53.23 49.191 48.69 48.145 44.428 46.082 L 43.239 45.505 L 43.815 44.316 C 49.04 33.524 59.732 26.82 71.716 26.82 C 76.41199999999999 26.82 80.95299999999999 27.867 85.21499999999999 29.931 L 86.40299999999999 30.507 L 85.827 31.696 C 80.599 42.487 69.905 49.192 57.925 49.192 z M 46.811 44.264 C 50.348 45.78 54.081 46.54900000000001 57.925 46.54900000000001 C 68.431 46.54900000000001 77.85499999999999 40.912000000000006 82.83 31.748000000000005 C 79.29299999999999 30.231000000000005 75.56 29.464000000000006 71.716 29.464000000000006 C 61.207 29.463 51.784 35.101 46.811 44.264 z" stroke-linecap="round" />
</g>
		<g transform="matrix(1.11 0 0 1.11 -157.76 -35.58)"  >
<path style="stroke: none; stroke-width: 1; stroke-dasharray: none; stroke-linecap: butt; stroke-dashoffset: 0; stroke-linejoin: miter; stroke-miterlimit: 4; fill: rgb(255,255,255); fill-rule: nonzero; opacity: 1;" vector-effect="non-scaling-stroke"  transform=" translate(-54.15, -26.01)" d="M 44.189 46.573 L 43.756 45.325 C 38.15 29.181 46.721 11.487 62.861 5.881 L 64.109 5.447 L 64.54299999999999 6.696 C 70.14699999999999 22.835 61.57699999999999 40.528999999999996 45.43799999999999 46.138999999999996 L 44.189 46.573 z M 62.461 8.853 C 48.939 14.277999999999999 41.714 29.192999999999998 45.839 43.169000000000004 C 59.359 37.74 66.584 22.824 62.461 8.853 z" stroke-linecap="round" />
</g>
		<g transform="matrix(1.11 0 0 1.11 -175.57 -36.62)"  >
<path style="stroke: none; stroke-width: 1; stroke-dasharray: none; stroke-linecap: butt; stroke-dashoffset: 0; stroke-linejoin: miter; stroke-miterlimit: 4; fill: rgb(255,255,255); fill-rule: nonzero; opacity: 1;" vector-effect="non-scaling-stroke"  transform=" translate(-38.12, -25.07)" d="M 45.616 46.658 L 44.428 46.082 C 29.048 38.625 22.597 20.051 30.048 4.676 L 30.624 3.487 L 31.813 4.063 C 47.19 11.516 53.64 30.089 46.193 45.468 L 45.616 46.658 z M 31.865 7.061 C 26.137999999999998 20.457 31.575 36.114000000000004 44.376 43.083 C 50.101 29.684 44.663 14.028 31.865 7.061 z" stroke-linecap="round" />
</g>
		<g transform="matrix(1 0 0 1 -38.22 -56.4)"  >
<path style="stroke: none; stroke-width: 1; stroke-dasharray: none; stroke-linecap: butt; stroke-dashoffset: 0; stroke-linejoin: miter; stroke-miterlimit: 4; fill: rgb(255,255,255); fill-rule: nonzero; opacity: 1;" vector-effect="non-scaling-stroke"  transform=" translate(97.23, 39.77)" d="M -110.04 -24.36 C -113.95 -24.36 -116.47 -23.22 -116.47 -20.53 C -116.47 -16.53 -110.04 -10.83 -98.14 -10.83 C -85.34 -10.83 -78 -17.02 -78 -26.32 C -78 -45.14 -108.41 -40.66 -108.41 -54.19 C -108.41 -59.65 -103.52 -64.05 -97.08 -64.05 C -91.61 -64.05 -87.7 -60.63 -86.15 -56.31 C -82.08 -56.31 -79.71 -56.96 -79.71 -59.41 C -79.71 -63.08 -85.91 -68.7 -96.75 -68.7 C -108.89 -68.7 -115.74 -62.18 -115.74 -53.7 C -115.74 -35.85 -85.58 -40.09 -85.58 -25.34 C -85.58 -19.06 -90.96 -15.48 -97.73 -15.48 C -104 -15.48 -108.24 -18.82 -110.04 -24.36 Z" stroke-linecap="round" />
</g>
		<g transform="matrix(1 0 0 1 6.61 -47.44)"  >
<path style="stroke: none; stroke-width: 1; stroke-dasharray: none; stroke-linecap: butt; stroke-dashoffset: 0; stroke-linejoin: miter; stroke-miterlimit: 4; fill: rgb(255,255,255); fill-rule: nonzero; opacity: 1;" vector-effect="non-scaling-stroke"  transform=" translate(52.41, 30.8)" d="M -44.34 -15.96 C -44.34 -11.64 -42.87 -10.91 -41.16 -10.91 C -39.61 -10.91 -37.25 -11.24 -35.46 -12.05 C -36.68 -13.03 -36.84 -14.99 -36.84 -18.25 L -36.84 -38.54 C -36.84 -45.71 -42.95 -50.77 -52.17 -50.77 C -62.6 -50.77 -68.14 -45.63 -68.14 -42.37 C -68.14 -40.01 -66.02 -39.03 -62.27 -39.03 C -62.27 -42.7 -58.44 -46.29 -53.22 -46.29 C -48.01 -46.29 -44.34 -43.02 -44.34 -38.13 L -44.34 -34.79 C -59.17 -33.57 -69.36 -29.49 -69.36 -20.85 C -69.36 -14.82 -64.55 -10.83 -57.71 -10.83 C -50.37 -10.83 -46.05 -15.8 -44.34 -20.53 Z M -44.34 -27.95 C -44.34 -22.57 -48.99 -15.48 -55.26 -15.48 C -59.09 -15.48 -61.95 -17.84 -61.95 -21.51 C -61.95 -27.78 -54.45 -30.23 -44.34 -31.12 Z" stroke-linecap="round" />
</g>
		<g transform="matrix(1 0 0 1 46.34 -57.46)"  >
<path style="stroke: none; stroke-width: 1; stroke-dasharray: none; stroke-linecap: butt; stroke-dashoffset: 0; stroke-linejoin: miter; stroke-miterlimit: 4; fill: rgb(255,255,255); fill-rule: nonzero; opacity: 1;" vector-effect="non-scaling-stroke"  transform=" translate(12.68, 40.82)" d="M -4.48 -46.04 C -0.16 -46.04 0.57 -46.86 0.57 -47.92 C 0.57 -48.81 0.33 -49.87 -0.49 -51.09 C -1.47 -50.52 -3.59 -50.36 -6.85 -50.36 L -13.86 -50.36 L -13.86 -58.27 C -13.86 -62.99 -11.49 -66.25 -8.15 -66.25 C -5.87 -66.25 -4.08 -64.54 -3.42 -62.1 C 0 -62.1 2.04 -62.99 2.04 -65.19 C 2.04 -67.4 -1.79 -70.74 -8.31 -70.74 C -16.22 -70.74 -21.27 -65.28 -21.27 -57.45 L -21.27 -50.28 C -23.47 -50.28 -25.51 -50.12 -27.39 -50.03 C -27.39 -48.24 -27.06 -46.37 -26.65 -45.23 C -24.7 -45.47 -22.99 -45.71 -21.27 -45.8 L -21.27 -15.96 C -21.27 -11.73 -19.81 -10.91 -18.18 -10.91 C -16.46 -10.91 -14.67 -11.07 -13.12 -11.89 C -13.61 -12.87 -13.86 -14.99 -13.86 -18.25 L -13.86 -46.04 Z" stroke-linecap="round" />
</g>
		<g transform="matrix(1 0 0 1 81.67 -47.44)"  >
<path style="stroke: none; stroke-width: 1; stroke-dasharray: none; stroke-linecap: butt; stroke-dashoffset: 0; stroke-linejoin: miter; stroke-miterlimit: 4; fill: rgb(255,255,255); fill-rule: nonzero; opacity: 1;" vector-effect="non-scaling-stroke"  transform=" translate(-22.66, 30.8)" d="M 5.05 -30.31 C 5.05 -18.74 12.47 -10.83 24.21 -10.83 C 31.14 -10.83 37 -14.09 39.86 -18.9 L 38.72 -19.55 C 38.15 -19.96 37.49 -20.2 37 -20.2 C 35.54 -20.2 33.5 -15.31 25.51 -15.31 C 18.01 -15.31 13.04 -21.51 12.88 -30.55 L 38.8 -30.55 C 39.69 -31.53 40.26 -32.51 40.26 -34.14 C 40.26 -44.17 34.31 -50.77 23.64 -50.77 C 12.63 -50.77 5.05 -42.45 5.05 -30.31 Z M 23.39 -46.29 C 28.94 -46.29 32.44 -42.13 33.01 -34.63 L 13.12 -34.63 C 14.1 -41.72 18.01 -46.29 23.39 -46.29 Z" stroke-linecap="round" />
</g>
		<g transform="matrix(1 0 0 1 118.44 -51.67)"  >
<path style="stroke: none; stroke-width: 1; stroke-dasharray: none; stroke-linecap: butt; stroke-dashoffset: 0; stroke-linejoin: miter; stroke-miterlimit: 4; fill: rgb(255,255,255); fill-rule: nonzero; opacity: 1;" vector-effect="non-scaling-stroke"  transform=" translate(-59.42, 35.03)" d="M 66.27 -46.04 C 70.5 -46.04 71.24 -46.86 71.24 -47.92 C 71.24 -48.81 70.99 -49.87 70.18 -51.09 C 69.2 -50.52 67.16 -50.36 63.82 -50.36 L 58.12 -50.36 C 58.03 -53.46 57.95 -56.39 57.71 -59.24 C 55.1 -59.24 53.06 -59 51.68 -58.67 C 51.76 -54.92 51.11 -52.81 50.78 -50.28 C 48.82 -50.28 47.03 -50.12 45.32 -50.03 C 45.32 -48.24 45.64 -46.37 46.05 -45.23 C 47.76 -45.47 49.23 -45.63 50.7 -45.71 L 50.7 -21.26 C 50.7 -15.15 55.51 -10.83 63.01 -10.83 C 67.73 -10.83 71.65 -13.44 73.52 -17.43 L 72.38 -18.08 C 71.81 -18.49 71.16 -18.74 70.67 -18.74 C 69.85 -18.74 68.87 -15.31 64.15 -15.31 C 60.56 -15.31 58.12 -17.92 58.12 -21.67 L 58.12 -46.04 Z" stroke-linecap="round" />
</g>
		<g transform="matrix(1 0 0 1 156.05 -38.18)"  >
<path style="stroke: none; stroke-width: 1; stroke-dasharray: none; stroke-linecap: butt; stroke-dashoffset: 0; stroke-linejoin: miter; stroke-miterlimit: 4; fill: rgb(255,255,255); fill-rule: nonzero; opacity: 1;" vector-effect="non-scaling-stroke"  transform=" translate(-97.03, 21.55)" d="M 93.49 -7 C 91.13 -0.89 86.89 3.11 80.69 3.11 C 80.69 5.96 82.32 7.51 84.69 7.51 C 90.56 7.51 96.51 2.05 100.17 -7.81 L 112.64 -39.36 C 114.11 -43.19 115.5 -47.1 116.47 -50.52 C 113.95 -50.52 111.58 -50.44 109.71 -50.12 C 108.24 -45.06 107.35 -42.05 105.8 -38.13 L 98.05 -18.57 L 89.5 -41.31 C 88.27 -44.33 86.72 -47.59 84.93 -50.6 C 81.67 -50.6 78.98 -50.2 77.6 -49.79 C 79.96 -45.23 80.77 -43.43 83.06 -38.13 L 92.27 -15.88 C 93.25 -13.11 94.14 -11.81 95.12 -11.24 Z" stroke-linecap="round" />
</g>
		<g transform="matrix(1 0 0 1 -72.86 17.32)"  >
<path style="stroke: none; stroke-width: 1; stroke-dasharray: none; stroke-linecap: butt; stroke-dashoffset: 0; stroke-linejoin: miter; stroke-miterlimit: 4; fill: rgb(255,255,255); fill-rule: nonzero; opacity: 1;" vector-effect="non-scaling-stroke"  transform=" translate(131.88, -33.96)" d="M -116.68 57.72 C -114.97 62.04 -113.09 62.77 -111.3 62.77 C -109.67 62.77 -107.14 62.45 -105.67 61.63 C -107.14 60.65 -108.12 58.78 -109.42 55.44 L -124.83 16.39 C -126.38 12.56 -128.01 8.57 -129.72 5.15 C -133.06 5.15 -136.24 5.55 -137.54 5.88 C -138.69 10.36 -140.07 14.44 -141.38 17.62 L -157.19 57.72 C -157.84 59.51 -158.08 60.65 -158.08 61.39 C -158.08 62.45 -157.35 62.77 -156.45 62.77 C -155.15 62.77 -153.03 62.45 -151.24 61.63 C -151.24 60.33 -150.75 58.37 -149.61 55.44 L -145.94 45.74 L -121.41 45.74 Z M -132.41 17.62 L -123.2 41.17 L -144.15 41.17 L -133.8 14.19 C -133.31 15.25 -132.9 16.39 -132.41 17.62 Z" stroke-linecap="round" />
</g>
		<g transform="matrix(1 0 0 1 -25.22 16.3)"  >
<path style="stroke: none; stroke-width: 1; stroke-dasharray: none; stroke-linecap: butt; stroke-dashoffset: 0; stroke-linejoin: miter; stroke-miterlimit: 4; fill: rgb(255,255,255); fill-rule: nonzero; opacity: 1;" vector-effect="non-scaling-stroke"  transform=" translate(84.24, -32.94)" d="M -75.35 3.84 C -74.7 8.49 -74.54 11.5 -74.54 15.58 L -74.54 25.28 C -76.58 23.81 -79.1 22.92 -82.45 22.92 C -94.92 22.92 -102.74 31.96 -102.74 44.68 C -102.74 55.68 -96.46 62.85 -87.74 62.85 C -80.49 62.85 -76.25 57.8 -74.54 52.58 L -74.54 57.72 C -74.54 62.04 -73.07 62.77 -71.44 62.77 C -69.89 62.77 -67.53 62.45 -65.74 61.63 C -66.88 60.65 -67.12 58.7 -67.12 55.44 L -67.12 14.36 C -67.12 10.53 -67.2 6.45 -67.61 3.03 C -70.71 3.03 -73.97 3.43 -75.35 3.84 Z M -85.38 58.37 C -90.51 58.37 -94.67 52.83 -94.67 43.78 C -94.67 34.24 -90.03 27.4 -82.53 27.4 C -79.35 27.4 -76.74 28.13 -74.54 30.41 L -74.54 43.86 C -74.54 50.3 -79.1 58.37 -85.38 58.37 Z" stroke-linecap="round" />
</g>
		<g transform="matrix(1 0 0 1 20.63 26.25)"  >
<path style="stroke: none; stroke-width: 1; stroke-dasharray: none; stroke-linecap: butt; stroke-dashoffset: 0; stroke-linejoin: miter; stroke-miterlimit: 4; fill: rgb(255,255,255); fill-rule: nonzero; opacity: 1;" vector-effect="non-scaling-stroke"  transform=" translate(38.39, -42.89)" d="M -42.83 57.72 C -41.28 61.88 -39.9 62.77 -38.1 62.77 C -36.47 62.77 -35.01 62.61 -33.7 61.79 C -33.62 60.73 -33.05 58.37 -31.75 55.44 L -22.13 32.29 C -20.83 29.27 -19.85 26.18 -19.11 23.16 C -21.72 23.16 -23.6 23.32 -25.47 23.57 C -26.61 27.97 -28 31.88 -29.38 35.55 L -37.05 54.95 L -45.77 32.29 C -46.99 29.35 -48.46 26.09 -50.33 23 C -53.59 23 -56.28 23.4 -57.67 23.81 C -55.22 28.46 -54.41 30.25 -52.12 35.55 Z" stroke-linecap="round" />
</g>
		<g transform="matrix(1 0 0 1 53.72 17.16)"  >
<path style="stroke: none; stroke-width: 1; stroke-dasharray: none; stroke-linecap: butt; stroke-dashoffset: 0; stroke-linejoin: miter; stroke-miterlimit: 4; fill: rgb(255,255,255); fill-rule: nonzero; opacity: 1;" vector-effect="non-scaling-stroke"  transform=" translate(5.3, -33.8)" d="M -9.25 57.72 C -9.25 62.04 -7.87 62.77 -6.15 62.77 C -4.69 62.77 -2.24 62.45 -0.45 61.63 C -1.59 60.65 -1.83 58.7 -1.83 55.44 L -1.83 34.33 C -1.83 30.5 -2 26.42 -2.4 23 C -5.5 23 -8.68 23.4 -10.07 23.81 C -9.41 28.38 -9.25 31.47 -9.25 35.55 Z M -10.15 9.38 C -10.15 11.75 -8.52 13.46 -6.07 13.46 C -3.38 13.46 -1.51 11.59 -1.51 8.98 C -1.51 6.53 -3.22 4.82 -5.58 4.82 C -8.27 4.82 -10.15 6.78 -10.15 9.38 Z" stroke-linecap="round" />
</g>
		<g transform="matrix(1 0 0 1 81.92 26.25)"  >
<path style="stroke: none; stroke-width: 1; stroke-dasharray: none; stroke-linecap: butt; stroke-dashoffset: 0; stroke-linejoin: miter; stroke-miterlimit: 4; fill: rgb(255,255,255); fill-rule: nonzero; opacity: 1;" vector-effect="non-scaling-stroke"  transform=" translate(-22.91, -42.89)" d="M 14.06 52.58 C 10.64 52.58 8.68 53.56 8.68 55.6 C 8.68 58.62 13.49 62.85 22.37 62.85 C 31.67 62.85 37.13 58.45 37.13 51.93 C 37.13 39.38 16.51 41.74 16.51 33.19 C 16.51 29.92 19.52 27.4 23.52 27.4 C 26.86 27.4 29.55 29.44 30.69 32.29 C 34.19 32.29 36.07 31.72 36.07 29.84 C 36.07 26.99 31.34 22.92 23.35 22.92 C 14.3 22.92 9.33 27.72 9.33 33.59 C 9.33 45.33 29.71 43.29 29.71 52.5 C 29.71 56.17 26.45 58.37 22.21 58.37 C 18.22 58.37 15.28 56.17 14.06 52.58 Z" stroke-linecap="round" />
</g>
		<g transform="matrix(1 0 0 1 123.33 26.25)"  >
<path style="stroke: none; stroke-width: 1; stroke-dasharray: none; stroke-linecap: butt; stroke-dashoffset: 0; stroke-linejoin: miter; stroke-miterlimit: 4; fill: rgb(255,255,255); fill-rule: nonzero; opacity: 1;" vector-effect="non-scaling-stroke"  transform=" translate(-64.31, -42.89)" d="M 45.28 43.46 C 45.28 55.03 52.69 62.85 63.54 62.85 C 75.35 62.85 83.34 54.46 83.34 42.31 C 83.34 30.74 75.92 22.92 65 22.92 C 53.27 22.92 45.28 31.31 45.28 43.46 Z M 53.27 42.64 C 53.27 33.59 57.59 27.4 64.02 27.4 C 70.71 27.4 75.27 33.76 75.27 43.13 C 75.27 52.18 70.95 58.37 64.51 58.37 C 57.83 58.37 53.27 52.01 53.27 42.64 Z" stroke-linecap="round" />
</g>
		<g transform="matrix(1 0 0 1 165.88 26.21)"  >
<path style="stroke: none; stroke-width: 1; stroke-dasharray: none; stroke-linecap: butt; stroke-dashoffset: 0; stroke-linejoin: miter; stroke-miterlimit: 4; fill: rgb(255,255,255); fill-rule: nonzero; opacity: 1;" vector-effect="non-scaling-stroke"  transform=" translate(-106.86, -42.84)" d="M 93.69 57.72 C 93.69 62.04 95.08 62.77 96.79 62.77 C 98.5 62.77 100.21 62.61 101.84 61.79 C 101.36 60.82 101.11 58.7 101.11 55.44 L 101.11 43.86 C 101.27 36.2 105.35 27.4 110.4 27.4 C 112.85 27.4 114.8 30.09 114.97 34 C 118.72 34 120.84 33.19 120.84 30.9 C 120.84 27.24 118.06 22.92 113.26 22.92 C 106.98 22.92 102.66 28.21 101.11 33.92 L 101.11 32.29 C 101.11 29.27 100.78 26.09 100.13 23 C 97.04 23 94.26 23.4 92.88 23.81 C 93.53 28.46 93.69 31.47 93.69 35.55 Z" stroke-linecap="round" />
</g>
		<g transform="matrix(1 0 0 1 202.39 26.25)"  >
<path style="stroke: none; stroke-width: 1; stroke-dasharray: none; stroke-linecap: butt; stroke-dashoffset: 0; stroke-linejoin: miter; stroke-miterlimit: 4; fill: rgb(255,255,255); fill-rule: nonzero; opacity: 1;" vector-effect="non-scaling-stroke"  transform=" translate(-143.38, -42.89)" d="M 134.53 52.58 C 131.11 52.58 129.15 53.56 129.15 55.6 C 129.15 58.62 133.96 62.85 142.84 62.85 C 152.13 62.85 157.6 58.45 157.6 51.93 C 157.6 39.38 136.97 41.74 136.97 33.19 C 136.97 29.92 139.99 27.4 143.98 27.4 C 147.33 27.4 150.02 29.44 151.16 32.29 C 154.66 32.29 156.54 31.72 156.54 29.84 C 156.54 26.99 151.81 22.92 143.82 22.92 C 134.77 22.92 129.8 27.72 129.8 33.59 C 129.8 45.33 150.18 43.29 150.18 52.5 C 150.18 56.17 146.92 58.37 142.68 58.37 C 138.69 58.37 135.75 56.17 134.53 52.58 Z" stroke-linecap="round" />
</g>
		<g transform="matrix(1 0 0 1 -100.53 76.44)"  >
<path style="stroke: none; stroke-width: 1; stroke-dasharray: none; stroke-linecap: butt; stroke-dashoffset: 0; stroke-linejoin: miter; stroke-miterlimit: 4; fill: rgb(255,255,255); fill-rule: nonzero; opacity: 1;" vector-effect="non-scaling-stroke"  transform=" translate(159.55, 0.67)" d="M -160.49 4.83 C -160.49 5.83 -160.15 6 -159.76 6 C -159.4 6 -158.83 5.92 -158.42 5.73 C -158.68 5.51 -158.72 5.05 -158.72 4.3 L -158.72 -4.73 C -158.72 -5.62 -158.76 -6.56 -158.85 -7.35 C -159.59 -7.35 -160.36 -7.26 -160.68 -7.16 C -160.53 -6.09 -160.49 -5.39 -160.49 -4.45 Z" stroke-linecap="round" />
</g>
		<g transform="matrix(1 0 0 1 -85.13 78.51)"  >
<path style="stroke: none; stroke-width: 1; stroke-dasharray: none; stroke-linecap: butt; stroke-dashoffset: 0; stroke-linejoin: miter; stroke-miterlimit: 4; fill: rgb(255,255,255); fill-rule: nonzero; opacity: 1;" vector-effect="non-scaling-stroke"  transform=" translate(144.15, -1.39)" d="M -141.94 4.83 C -141.94 5.83 -141.6 6 -141.23 6 C -140.87 6 -140.32 5.92 -139.91 5.73 C -140.17 5.51 -140.23 5.05 -140.23 4.3 L -140.23 -0.49 C -140.23 -2.07 -141.36 -3.22 -142.94 -3.22 C -144.75 -3.22 -146.01 -2.07 -146.49 -0.9 L -146.49 -1.05 C -146.49 -1.75 -146.56 -2.49 -146.71 -3.2 C -147.43 -3.2 -148.07 -3.11 -148.39 -3.01 C -148.24 -1.94 -148.2 -1.24 -148.2 -0.3 L -148.2 4.83 C -148.2 5.83 -147.88 6 -147.48 6 C -147.09 6 -146.69 5.96 -146.32 5.77 C -146.43 5.55 -146.49 5.05 -146.49 4.3 L -146.49 1.1 C -146.49 -0.36 -145.26 -2.18 -143.73 -2.18 C -142.68 -2.18 -141.94 -1.34 -141.94 -0.07 Z" stroke-linecap="round" />
</g>
		<g transform="matrix(1 0 0 1 -66.78 80.16)"  >
<path style="stroke: none; stroke-width: 1; stroke-dasharray: none; stroke-linecap: butt; stroke-dashoffset: 0; stroke-linejoin: miter; stroke-miterlimit: 4; fill: rgb(255,255,255); fill-rule: nonzero; opacity: 1;" vector-effect="non-scaling-stroke"  transform=" translate(125.79, -3.04)" d="M -129.95 -0.02 C -129.95 0.95 -129.54 1.76 -128.8 2.28 C -129.29 2.64 -129.71 3.13 -129.71 4.02 C -129.71 4.96 -129.27 5.43 -128.61 5.66 L -128.8 5.68 C -129.41 5.73 -130.42 6.53 -130.42 7.84 C -130.42 9.35 -129.03 10.26 -126.33 10.26 C -123.13 10.26 -121.47 9.03 -121.47 7.15 C -121.47 3.26 -128.39 6.26 -128.39 3.75 C -128.39 3.3 -128.18 2.96 -127.9 2.74 C -127.44 2.89 -126.94 2.96 -126.35 2.96 C -124.11 2.96 -122.47 1.68 -122.47 -0.2 C -122.47 -1.26 -122.98 -2.13 -123.84 -2.66 C -123.58 -2.98 -123.3 -3.2 -122.96 -3.2 C -122.54 -3.2 -122.17 -2.88 -122.07 -2.33 C -121.49 -2.33 -121.17 -2.54 -121.17 -2.99 C -121.17 -3.45 -121.53 -4.18 -122.51 -4.18 C -123.28 -4.18 -123.92 -3.69 -124.33 -2.9 C -124.84 -3.11 -125.45 -3.22 -126.11 -3.22 C -128.37 -3.22 -129.95 -1.9 -129.95 -0.02 Z M -123.26 7.39 C -123.26 8.52 -124.22 9.41 -126.07 9.41 C -127.9 9.41 -128.73 8.58 -128.73 7.56 C -128.73 6.98 -128.43 6.22 -128.03 5.81 C -126.11 6.11 -123.26 5.39 -123.26 7.39 Z M -128.27 -0.15 C -128.27 -1.34 -127.5 -2.24 -126.24 -2.24 C -124.99 -2.24 -124.11 -1.41 -124.11 -0.09 C -124.11 1.06 -124.86 2 -126.14 2 C -127.39 2 -128.27 1.15 -128.27 -0.15 Z" stroke-linecap="round" />
</g>
		<g transform="matrix(1 0 0 1 -49.25 78.52)"  >
<path style="stroke: none; stroke-width: 1; stroke-dasharray: none; stroke-linecap: butt; stroke-dashoffset: 0; stroke-linejoin: miter; stroke-miterlimit: 4; fill: rgb(255,255,255); fill-rule: nonzero; opacity: 1;" vector-effect="non-scaling-stroke"  transform=" translate(108.27, -1.4)" d="M -112.34 1.51 C -112.34 4.19 -110.63 6.02 -107.91 6.02 C -106.31 6.02 -104.95 5.26 -104.3 4.15 L -104.56 4 C -104.69 3.9 -104.84 3.85 -104.95 3.85 C -105.29 3.85 -105.77 4.98 -107.61 4.98 C -109.35 4.98 -110.5 3.55 -110.54 1.45 L -104.54 1.45 C -104.33 1.23 -104.2 1 -104.2 0.62 C -104.2 -1.69 -105.58 -3.22 -108.05 -3.22 C -110.59 -3.22 -112.34 -1.3 -112.34 1.51 Z M -108.1 -2.18 C -106.82 -2.18 -106.01 -1.22 -105.88 0.51 L -110.48 0.51 C -110.25 -1.13 -109.35 -2.18 -108.1 -2.18 Z" stroke-linecap="round" />
</g>
		<g transform="matrix(1 0 0 1 -31.18 78.51)"  >
<path style="stroke: none; stroke-width: 1; stroke-dasharray: none; stroke-linecap: butt; stroke-dashoffset: 0; stroke-linejoin: miter; stroke-miterlimit: 4; fill: rgb(255,255,255); fill-rule: nonzero; opacity: 1;" vector-effect="non-scaling-stroke"  transform=" translate(90.19, -1.39)" d="M -87.99 4.83 C -87.99 5.83 -87.65 6 -87.27 6 C -86.91 6 -86.37 5.92 -85.95 5.73 C -86.22 5.51 -86.27 5.05 -86.27 4.3 L -86.27 -0.49 C -86.27 -2.07 -87.4 -3.22 -88.99 -3.22 C -90.8 -3.22 -92.06 -2.07 -92.53 -0.9 L -92.53 -1.05 C -92.53 -1.75 -92.61 -2.49 -92.76 -3.2 C -93.47 -3.2 -94.12 -3.11 -94.44 -3.01 C -94.28 -1.94 -94.25 -1.24 -94.25 -0.3 L -94.25 4.83 C -94.25 5.83 -93.93 6 -93.53 6 C -93.13 6 -92.74 5.96 -92.36 5.77 C -92.48 5.55 -92.53 5.05 -92.53 4.3 L -92.53 1.1 C -92.53 -0.36 -91.31 -2.18 -89.78 -2.18 C -88.72 -2.18 -87.99 -1.34 -87.99 -0.07 Z" stroke-linecap="round" />
</g>
		<g transform="matrix(1 0 0 1 -15.82 76.41)"  >
<path style="stroke: none; stroke-width: 1; stroke-dasharray: none; stroke-linecap: butt; stroke-dashoffset: 0; stroke-linejoin: miter; stroke-miterlimit: 4; fill: rgb(255,255,255); fill-rule: nonzero; opacity: 1;" vector-effect="non-scaling-stroke"  transform=" translate(74.84, 0.71)" d="M -75.75 4.83 C -75.75 5.83 -75.43 6 -75.04 6 C -74.7 6 -74.13 5.92 -73.72 5.73 C -73.98 5.51 -74.04 5.05 -74.04 4.3 L -74.04 -0.58 C -74.04 -1.47 -74.08 -2.41 -74.17 -3.2 C -74.89 -3.2 -75.62 -3.11 -75.94 -3.01 C -75.79 -1.96 -75.75 -1.24 -75.75 -0.3 Z M -75.96 -6.35 C -75.96 -5.8 -75.58 -5.41 -75.02 -5.41 C -74.4 -5.41 -73.96 -5.84 -73.96 -6.44 C -73.96 -7.01 -74.36 -7.41 -74.91 -7.41 C -75.53 -7.41 -75.96 -6.95 -75.96 -6.35 Z" stroke-linecap="round" />
</g>
		<g transform="matrix(1 0 0 1 -0.99 78.52)"  >
<path style="stroke: none; stroke-width: 1; stroke-dasharray: none; stroke-linecap: butt; stroke-dashoffset: 0; stroke-linejoin: miter; stroke-miterlimit: 4; fill: rgb(255,255,255); fill-rule: nonzero; opacity: 1;" vector-effect="non-scaling-stroke"  transform=" translate(60.01, -1.4)" d="M -64.08 1.51 C -64.08 4.19 -62.37 6.02 -59.65 6.02 C -58.05 6.02 -56.69 5.26 -56.03 4.15 L -56.3 4 C -56.43 3.9 -56.58 3.85 -56.69 3.85 C -57.03 3.85 -57.51 4.98 -59.35 4.98 C -61.09 4.98 -62.24 3.55 -62.27 1.45 L -56.28 1.45 C -56.07 1.23 -55.94 1 -55.94 0.62 C -55.94 -1.69 -57.32 -3.22 -59.79 -3.22 C -62.33 -3.22 -64.08 -1.3 -64.08 1.51 Z M -59.84 -2.18 C -58.56 -2.18 -57.75 -1.22 -57.62 0.51 L -62.22 0.51 C -61.99 -1.13 -61.09 -2.18 -59.84 -2.18 Z" stroke-linecap="round" />
</g>
		<g transform="matrix(1 0 0 1 16.07 78.51)"  >
<path style="stroke: none; stroke-width: 1; stroke-dasharray: none; stroke-linecap: butt; stroke-dashoffset: 0; stroke-linejoin: miter; stroke-miterlimit: 4; fill: rgb(255,255,255); fill-rule: nonzero; opacity: 1;" vector-effect="non-scaling-stroke"  transform=" translate(42.95, -1.39)" d="M -45.99 4.83 C -45.99 5.83 -45.67 6 -45.27 6 C -44.87 6 -44.48 5.96 -44.1 5.77 C -44.21 5.55 -44.27 5.05 -44.27 4.3 L -44.27 1.62 C -44.23 -0.15 -43.29 -2.18 -42.12 -2.18 C -41.56 -2.18 -41.1 -1.56 -41.07 -0.66 C -40.2 -0.66 -39.71 -0.85 -39.71 -1.37 C -39.71 -2.22 -40.35 -3.22 -41.46 -3.22 C -42.91 -3.22 -43.91 -2 -44.27 -0.68 L -44.27 -1.05 C -44.27 -1.75 -44.35 -2.49 -44.5 -3.2 C -45.21 -3.2 -45.86 -3.11 -46.18 -3.01 C -46.02 -1.94 -45.99 -1.24 -45.99 -0.3 Z" stroke-linecap="round" />
</g>
		<g transform="matrix(1 0 0 1 32.5 78.52)"  >
<path style="stroke: none; stroke-width: 1; stroke-dasharray: none; stroke-linecap: butt; stroke-dashoffset: 0; stroke-linejoin: miter; stroke-miterlimit: 4; fill: rgb(255,255,255); fill-rule: nonzero; opacity: 1;" vector-effect="non-scaling-stroke"  transform=" translate(26.52, -1.4)" d="M -30.92 1.53 C -30.92 4.21 -29.21 6.02 -26.7 6.02 C -23.97 6.02 -22.12 4.07 -22.12 1.27 C -22.12 -1.41 -23.84 -3.22 -26.36 -3.22 C -29.08 -3.22 -30.92 -1.28 -30.92 1.53 Z M -29.08 1.34 C -29.08 -0.75 -28.08 -2.18 -26.59 -2.18 C -25.04 -2.18 -23.99 -0.71 -23.99 1.45 C -23.99 3.55 -24.99 4.98 -26.48 4.98 C -28.02 4.98 -29.08 3.51 -29.08 1.34 Z" stroke-linecap="round" />
</g>
		<g transform="matrix(1 0 0 1 49.58 78.52)"  >
<path style="stroke: none; stroke-width: 1; stroke-dasharray: none; stroke-linecap: butt; stroke-dashoffset: 0; stroke-linejoin: miter; stroke-miterlimit: 4; fill: rgb(255,255,255); fill-rule: nonzero; opacity: 1;" vector-effect="non-scaling-stroke"  transform=" translate(9.44, -1.4)" d="M -11.49 3.64 C -12.28 3.64 -12.73 3.87 -12.73 4.34 C -12.73 5.04 -11.62 6.02 -9.57 6.02 C -7.42 6.02 -6.15 5 -6.15 3.49 C -6.15 0.59 -10.92 1.13 -10.92 -0.85 C -10.92 -1.6 -10.23 -2.18 -9.3 -2.18 C -8.53 -2.18 -7.91 -1.71 -7.64 -1.05 C -6.83 -1.05 -6.4 -1.19 -6.4 -1.62 C -6.4 -2.28 -7.49 -3.22 -9.34 -3.22 C -11.43 -3.22 -12.58 -2.11 -12.58 -0.75 C -12.58 1.96 -7.87 1.49 -7.87 3.62 C -7.87 4.47 -8.62 4.98 -9.6 4.98 C -10.53 4.98 -11.21 4.47 -11.49 3.64 Z" stroke-linecap="round" />
</g>
		<g transform="matrix(1 0 0 1 59.02 77.12)"  >
<path style="stroke: none; stroke-width: 1; stroke-dasharray: none; stroke-linecap: butt; stroke-dashoffset: 0; stroke-linejoin: miter; stroke-miterlimit: 4; fill: rgb(255,255,255); fill-rule: nonzero; opacity: 1;" vector-effect="non-scaling-stroke"  transform=" translate(0, 0)" d="" stroke-linecap="round" />
</g>
		<g transform="matrix(1 0 0 1 80.49 76.45)"  >
<path style="stroke: none; stroke-width: 1; stroke-dasharray: none; stroke-linecap: butt; stroke-dashoffset: 0; stroke-linejoin: miter; stroke-miterlimit: 4; fill: rgb(255,255,255); fill-rule: nonzero; opacity: 1;" vector-effect="non-scaling-stroke"  transform=" translate(-21.47, 0.67)" d="M 24.99 4.83 C 25.39 5.83 25.82 6 26.23 6 C 26.61 6 27.2 5.92 27.53 5.73 C 27.2 5.51 26.97 5.07 26.67 4.3 L 23.1 -4.73 C 22.75 -5.62 22.37 -6.54 21.97 -7.33 C 21.2 -7.33 20.47 -7.24 20.16 -7.16 C 19.9 -6.12 19.58 -5.18 19.28 -4.45 L 15.62 4.83 C 15.47 5.24 15.41 5.51 15.41 5.68 C 15.41 5.92 15.58 6 15.79 6 C 16.09 6 16.58 5.92 17 5.73 C 17 5.43 17.11 4.98 17.37 4.3 L 18.22 2.06 L 23.9 2.06 Z M 21.35 -4.45 L 23.48 1 L 18.64 1 L 21.03 -5.24 C 21.14 -4.99 21.24 -4.73 21.35 -4.45 Z" stroke-linecap="round" />
</g>
		<g transform="matrix(1 0 0 1 99.88 76.22)"  >
<path style="stroke: none; stroke-width: 1; stroke-dasharray: none; stroke-linecap: butt; stroke-dashoffset: 0; stroke-linejoin: miter; stroke-miterlimit: 4; fill: rgb(255,255,255); fill-rule: nonzero; opacity: 1;" vector-effect="non-scaling-stroke"  transform=" translate(-40.86, 0.9)" d="M 36.85 3.98 C 36.85 5.43 38.54 6.02 40.28 6.02 C 43.14 6.02 45.07 3.96 45.07 0.98 C 45.07 -1.54 43.65 -3.22 41.6 -3.22 C 39.94 -3.22 38.94 -2.2 38.56 -1.2 L 38.56 -5.2 C 38.56 -6.09 38.52 -7.03 38.43 -7.82 C 37.71 -7.82 36.98 -7.73 36.66 -7.63 C 36.81 -6.56 36.85 -5.86 36.85 -4.92 Z M 38.56 0.81 C 38.56 -0.69 39.56 -2.18 40.98 -2.18 C 42.3 -2.18 43.2 -0.86 43.2 1.17 C 43.2 3.28 42.26 4.98 40.32 4.98 C 39.62 4.98 39.11 4.87 38.68 4.56 C 38.58 4.32 38.56 3.94 38.56 3.45 Z" stroke-linecap="round" />
</g>
		<g transform="matrix(1 0 0 1 117.87 78.52)"  >
<path style="stroke: none; stroke-width: 1; stroke-dasharray: none; stroke-linecap: butt; stroke-dashoffset: 0; stroke-linejoin: miter; stroke-miterlimit: 4; fill: rgb(255,255,255); fill-rule: nonzero; opacity: 1;" vector-effect="non-scaling-stroke"  transform=" translate(-58.86, -1.4)" d="M 54.45 1.53 C 54.45 4.21 56.17 6.02 58.68 6.02 C 61.41 6.02 63.26 4.07 63.26 1.27 C 63.26 -1.41 61.54 -3.22 59.02 -3.22 C 56.3 -3.22 54.45 -1.28 54.45 1.53 Z M 56.3 1.34 C 56.3 -0.75 57.3 -2.18 58.79 -2.18 C 60.34 -2.18 61.39 -0.71 61.39 1.45 C 61.39 3.55 60.39 4.98 58.9 4.98 C 57.36 4.98 56.3 3.51 56.3 1.34 Z" stroke-linecap="round" />
</g>
		<g transform="matrix(1 0 0 1 135.93 80.16)"  >
<path style="stroke: none; stroke-width: 1; stroke-dasharray: none; stroke-linecap: butt; stroke-dashoffset: 0; stroke-linejoin: miter; stroke-miterlimit: 4; fill: rgb(255,255,255); fill-rule: nonzero; opacity: 1;" vector-effect="non-scaling-stroke"  transform=" translate(-76.92, -3.04)" d="M 72.76 -0.02 C 72.76 0.95 73.17 1.76 73.91 2.28 C 73.42 2.64 73 3.13 73 4.02 C 73 4.96 73.44 5.43 74.1 5.66 L 73.91 5.68 C 73.31 5.73 72.29 6.53 72.29 7.84 C 72.29 9.35 73.68 10.26 76.38 10.26 C 79.58 10.26 81.24 9.03 81.24 7.15 C 81.24 3.26 74.32 6.26 74.32 3.75 C 74.32 3.3 74.53 2.96 74.81 2.74 C 75.27 2.89 75.78 2.96 76.36 2.96 C 78.6 2.96 80.24 1.68 80.24 -0.2 C 80.24 -1.26 79.73 -2.13 78.87 -2.66 C 79.13 -2.98 79.41 -3.2 79.75 -3.2 C 80.17 -3.2 80.55 -2.88 80.64 -2.33 C 81.22 -2.33 81.54 -2.54 81.54 -2.99 C 81.54 -3.45 81.19 -4.18 80.21 -4.18 C 79.43 -4.18 78.79 -3.69 78.38 -2.9 C 77.87 -3.11 77.27 -3.22 76.61 -3.22 C 74.34 -3.22 72.76 -1.9 72.76 -0.02 Z M 79.45 7.39 C 79.45 8.52 78.49 9.41 76.64 9.41 C 74.81 9.41 73.98 8.58 73.98 7.56 C 73.98 6.98 74.29 6.22 74.68 5.81 C 76.61 6.11 79.45 5.39 79.45 7.39 Z M 74.44 -0.15 C 74.44 -1.34 75.21 -2.24 76.47 -2.24 C 77.72 -2.24 78.6 -1.41 78.6 -0.09 C 78.6 1.06 77.85 2 76.57 2 C 75.32 2 74.44 1.15 74.44 -0.15 Z" stroke-linecap="round" />
</g>
		<g transform="matrix(1 0 0 1 153.42 78.52)"  >
<path style="stroke: none; stroke-width: 1; stroke-dasharray: none; stroke-linecap: butt; stroke-dashoffset: 0; stroke-linejoin: miter; stroke-miterlimit: 4; fill: rgb(255,255,255); fill-rule: nonzero; opacity: 1;" vector-effect="non-scaling-stroke"  transform=" translate(-94.4, -1.4)" d="M 96.27 4.83 C 96.27 5.83 96.61 6 97 6 C 97.36 6 97.91 5.92 98.32 5.73 C 98.04 5.51 98 5.05 98 4.3 L 98 -0.39 C 98 -2.05 96.59 -3.22 94.46 -3.22 C 92.04 -3.22 90.76 -2.03 90.76 -1.28 C 90.76 -0.73 91.25 -0.51 92.12 -0.51 C 92.12 -1.35 93.01 -2.18 94.21 -2.18 C 95.42 -2.18 96.27 -1.43 96.27 -0.3 L 96.27 0.47 C 92.84 0.76 90.48 1.7 90.48 3.7 C 90.48 5.09 91.59 6.02 93.18 6.02 C 94.87 6.02 95.87 4.87 96.27 3.77 Z M 96.27 2.06 C 96.27 3.3 95.19 4.94 93.74 4.94 C 92.86 4.94 92.2 4.4 92.2 3.55 C 92.2 2.1 93.93 1.53 96.27 1.32 Z" stroke-linecap="round" />
</g>
		<g transform="matrix(1 0 0 1 171.2 76.22)"  >
<path style="stroke: none; stroke-width: 1; stroke-dasharray: none; stroke-linecap: butt; stroke-dashoffset: 0; stroke-linejoin: miter; stroke-miterlimit: 4; fill: rgb(255,255,255); fill-rule: nonzero; opacity: 1;" vector-effect="non-scaling-stroke"  transform=" translate(-112.18, 0.9)" d="M 114.23 -7.63 C 114.38 -6.56 114.42 -5.86 114.42 -4.92 L 114.42 -2.67 C 113.95 -3.01 113.37 -3.22 112.59 -3.22 C 109.71 -3.22 107.9 -1.13 107.9 1.81 C 107.9 4.36 109.35 6.02 111.37 6.02 C 113.05 6.02 114.03 4.85 114.42 3.64 L 114.42 4.83 C 114.42 5.83 114.76 6 115.14 6 C 115.5 6 116.04 5.92 116.46 5.73 C 116.19 5.51 116.14 5.05 116.14 4.3 L 116.14 -5.2 C 116.14 -6.09 116.12 -7.03 116.02 -7.82 C 115.31 -7.82 114.55 -7.73 114.23 -7.63 Z M 111.91 4.98 C 110.73 4.98 109.77 3.7 109.77 1.61 C 109.77 -0.6 110.84 -2.18 112.57 -2.18 C 113.31 -2.18 113.91 -2.01 114.42 -1.49 L 114.42 1.62 C 114.42 3.11 113.37 4.98 111.91 4.98 Z" stroke-linecap="round" />
</g>
		<g transform="matrix(1 0 0 1 189.51 78.52)"  >
<path style="stroke: none; stroke-width: 1; stroke-dasharray: none; stroke-linecap: butt; stroke-dashoffset: 0; stroke-linejoin: miter; stroke-miterlimit: 4; fill: rgb(255,255,255); fill-rule: nonzero; opacity: 1;" vector-effect="non-scaling-stroke"  transform=" translate(-130.49, -1.4)" d="M 126.09 1.53 C 126.09 4.21 127.81 6.02 130.31 6.02 C 133.05 6.02 134.89 4.07 134.89 1.27 C 134.89 -1.41 133.18 -3.22 130.65 -3.22 C 127.94 -3.22 126.09 -1.28 126.09 1.53 Z M 127.94 1.34 C 127.94 -0.75 128.94 -2.18 130.43 -2.18 C 131.97 -2.18 133.03 -0.71 133.03 1.45 C 133.03 3.55 132.03 4.98 130.54 4.98 C 128.99 4.98 127.94 3.51 127.94 1.34 Z" stroke-linecap="round" />
</g>
		<g transform="matrix(1 0 0 1 206.59 78.52)"  >
<path style="stroke: none; stroke-width: 1; stroke-dasharray: none; stroke-linecap: butt; stroke-dashoffset: 0; stroke-linejoin: miter; stroke-miterlimit: 4; fill: rgb(255,255,255); fill-rule: nonzero; opacity: 1;" vector-effect="non-scaling-stroke"  transform=" translate(-147.57, -1.4)" d="M 145.53 3.64 C 144.74 3.64 144.28 3.87 144.28 4.34 C 144.28 5.04 145.39 6.02 147.45 6.02 C 149.6 6.02 150.86 5 150.86 3.49 C 150.86 0.59 146.09 1.13 146.09 -0.85 C 146.09 -1.6 146.79 -2.18 147.71 -2.18 C 148.49 -2.18 149.11 -1.71 149.37 -1.05 C 150.18 -1.05 150.62 -1.19 150.62 -1.62 C 150.62 -2.28 149.52 -3.22 147.68 -3.22 C 145.58 -3.22 144.43 -2.11 144.43 -0.75 C 144.43 1.96 149.15 1.49 149.15 3.62 C 149.15 4.47 148.39 4.98 147.41 4.98 C 146.49 4.98 145.81 4.47 145.53 3.64 Z" stroke-linecap="round" />
</g>
</g>
</g>
</svg>