<?xml version="1.0" encoding="UTF-8" standalone="no" ?>
<!DOCTYPE svg PUBLIC "-//W3C//DTD SVG 1.1//EN" "http://www.w3.org/Graphics/SVG/1.1/DTD/svg11.dtd">
<svg xmlns="http://www.w3.org/2000/svg" xmlns:xlink="http://www.w3.org/1999/xlink" version="1.1" width="500" height="500" viewBox="0 0 500 500" xml:space="preserve">
<desc>Created with Fabric.js 5.2.4</desc>
<defs>
</defs>
<rect x="0" y="0" width="100%" height="100%" fill="transparent"></rect>
<g transform="matrix(Infinity NaN NaN Infinity 0 0)" id="87b253f2-e5b3-4c89-8b5c-7f126e3392af"  >
</g>
<g transform="matrix(1 0 0 1 250 250)" id="6b7c0ff3-b76d-46ac-bc14-17c01ba3ec90"  >
<rect style="stroke: none; stroke-width: 1; stroke-dasharray: none; stroke-linecap: butt; stroke-dashoffset: 0; stroke-linejoin: miter; stroke-miterlimit: 4; fill: rgb(255,255,255); fill-rule: nonzero; opacity: 1; visibility: hidden;" vector-effect="non-scaling-stroke"  x="-250" y="-250" rx="0" ry="0" width="500" height="500" />
</g>
<g transform="matrix(4.98 0 0 4.98 250 250)"  >
<g style="" vector-effect="non-scaling-stroke"   >
		<g transform="matrix(1.11 0 0 1.11 -17.23 -17.1)"  >
<path style="stroke: none; stroke-width: 1; stroke-dasharray: none; stroke-linecap: butt; stroke-dashoffset: 0; stroke-linejoin: miter; stroke-miterlimit: 4; fill: rgb(255,255,255); fill-rule: nonzero; opacity: 1;" vector-effect="non-scaling-stroke"  transform=" translate(-29.5, -29.5)" d="M 45.5 45.5 L 45.004 45.5 C 27.918 45.5 13.5 32.309 13.5 15.219 L 13.5 13.5 L 15.339 13.5 C 32.425 13.5 45.5 27.802 45.5 44.892 L 45.5 45.5 z M 16.692 16.572 C 17.38 31.13 29.097 42.851 43.65 43.539 C 42.963 28.98 31.247 17.26 16.692 16.572 z" stroke-linecap="round" />
</g>
		<g transform="matrix(1.11 0 0 1.11 -23.31 0)"  >
<path style="stroke: none; stroke-width: 1; stroke-dasharray: none; stroke-linecap: butt; stroke-dashoffset: 0; stroke-linejoin: miter; stroke-miterlimit: 4; fill: rgb(255,255,255); fill-rule: nonzero; opacity: 1;" vector-effect="non-scaling-stroke"  transform=" translate(-24.03, -44.89)" d="M 24.027 54.907 C 15.753000000000002 54.907 7.971 51.681 2.1129999999999995 45.82599999999999 L 1.1779999999999995 44.891999999999996 L 2.1129999999999995 43.956999999999994 C 7.970999999999999 38.099 15.753 34.87199999999999 24.027 34.87199999999999 C 32.301 34.87199999999999 40.082 38.09899999999999 45.937 43.956999999999994 L 46.873 44.891999999999996 L 45.937 45.82599999999999 C 40.083 51.682 32.3 54.907 24.027 54.907 z M 4.961 44.892 C 10.193000000000001 49.655 16.912 52.265 24.027 52.265 C 31.142000000000003 52.265 37.86 49.656 43.09 44.892 C 37.86 40.125 31.141000000000005 37.516000000000005 24.027000000000005 37.516000000000005 C 16.912 37.516 10.193 40.125 4.961 44.892 z" stroke-linecap="round" />
</g>
		<g transform="matrix(1.11 0 0 1.11 -16.77 16.24)"  >
<path style="stroke: none; stroke-width: 1; stroke-dasharray: none; stroke-linecap: butt; stroke-dashoffset: 0; stroke-linejoin: miter; stroke-miterlimit: 4; fill: rgb(255,255,255); fill-rule: nonzero; opacity: 1;" vector-effect="non-scaling-stroke"  transform=" translate(-29.91, -59.5)" d="M 15.339 75.5 L 13.5 75.5 L 13.5 74.557 C 13.5 57.471 27.914 43.5 44.994 43.5 L 46.315 43.5 L 46.324999999999996 44.667 C 46.325 61.752 32.425 75.5 15.339 75.5 z M 43.65 46.245 C 29.092 46.933 17.38 58.649 16.692 73.203 C 31.246 72.515 42.962 60.799 43.65 46.245 z" stroke-linecap="round" />
</g>
		<g transform="matrix(1.11 0 0 1.11 0.01 23.31)"  >
<path style="stroke: none; stroke-width: 1; stroke-dasharray: none; stroke-linecap: butt; stroke-dashoffset: 0; stroke-linejoin: miter; stroke-miterlimit: 4; fill: rgb(255,255,255); fill-rule: nonzero; opacity: 1;" vector-effect="non-scaling-stroke"  transform=" translate(-45.02, -65.87)" d="M 45.003 88.712 L 44.069 87.777 C 31.989000000000004 75.694 31.989000000000004 56.036 44.069 43.957 L 45.003 43.022 L 45.937 43.957 C 51.796 49.813 55.022999999999996 57.593 55.022999999999996 65.867 C 55.022999999999996 74.141 51.796 81.922 45.937 87.777 L 45.003 88.712 z M 45.004 46.806 C 35.199 57.580999999999996 35.199 74.151 45.004 84.929 C 49.769999999999996 79.7 52.379999999999995 72.983 52.379999999999995 65.867 C 52.381 58.753 49.771 52.035 45.004 46.806 z" stroke-linecap="round" />
</g>
		<g transform="matrix(1.11 0 0 1.11 16.11 16.24)"  >
<path style="stroke: none; stroke-width: 1; stroke-dasharray: none; stroke-linecap: butt; stroke-dashoffset: 0; stroke-linejoin: miter; stroke-miterlimit: 4; fill: rgb(255,255,255); fill-rule: nonzero; opacity: 1;" vector-effect="non-scaling-stroke"  transform=" translate(-59.5, -59.5)" d="M 75.5 75.5 L 74.672 75.5 C 57.585 75.5 43.5 61.978 43.5 44.892 L 43.5 43.5 L 45.003 43.5 C 62.096 43.5 75.5 57.471 75.5 74.557 L 75.5 75.5 z M 46.356 46.245 C 47.044000000000004 60.799 58.763000000000005 72.515 73.319 73.203 C 72.631 58.646 60.913 46.928 46.356 46.245 z" stroke-linecap="round" />
</g>
		<g transform="matrix(1.11 0 0 1.11 23.31 -0.24)"  >
<path style="stroke: none; stroke-width: 1; stroke-dasharray: none; stroke-linecap: butt; stroke-dashoffset: 0; stroke-linejoin: miter; stroke-miterlimit: 4; fill: rgb(255,255,255); fill-rule: nonzero; opacity: 1;" vector-effect="non-scaling-stroke"  transform=" translate(-65.98, -44.67)" d="M 65.98 54.5 C 65.97800000000001 54.5 65.98 54.5 65.97800000000001 54.5 C 57.70800000000001 54.5 49.92700000000001 51.479 44.06900000000001 45.623 L 43.13400000000001 44.79 L 44.06900000000001 43.907 C 49.92700000000001 38.047999999999995 57.71100000000001 34.846999999999994 65.98600000000002 34.846999999999994 C 74.25700000000002 34.846999999999994 82.03900000000002 38.083999999999996 87.89400000000002 43.94 L 88.82800000000002 44.881 L 87.89400000000002 45.615 C 82.036 51.473 74.252 54.5 65.98 54.5 z M 46.918 44.892 C 52.147999999999996 49.655 58.867 52.264 65.979 52.264 C 73.095 52.264 79.814 49.654 85.04599999999999 44.887 C 79.817 40.123 73.101 37.515 65.98599999999999 37.515 C 58.87 37.515 52.149 40.125 46.918 44.892 z" stroke-linecap="round" />
</g>
		<g transform="matrix(1.11 0 0 1.11 16.11 -17.1)"  >
<path style="stroke: none; stroke-width: 1; stroke-dasharray: none; stroke-linecap: butt; stroke-dashoffset: 0; stroke-linejoin: miter; stroke-miterlimit: 4; fill: rgb(255,255,255); fill-rule: nonzero; opacity: 1;" vector-effect="non-scaling-stroke"  transform=" translate(-59.5, -29.5)" d="M 45.004 45.5 L 43.5 45.5 L 43.5 44.892 C 43.5 27.802000000000003 57.583 13.500000000000004 74.668 13.500000000000004 L 75.5 13.500000000000004 L 75.5 15.219000000000003 C 75.5 32.309 62.09 45.5 45.004 45.5 z M 73.315 16.572 C 58.76 17.26 47.045 28.98 46.356 43.539 C 60.911 42.851 72.627 31.13 73.315 16.572 z" stroke-linecap="round" />
</g>
		<g transform="matrix(1.11 0 0 1.11 0 -23.31)"  >
<path style="stroke: none; stroke-width: 1; stroke-dasharray: none; stroke-linecap: butt; stroke-dashoffset: 0; stroke-linejoin: miter; stroke-miterlimit: 4; fill: rgb(255,255,255); fill-rule: nonzero; opacity: 1;" vector-effect="non-scaling-stroke"  transform=" translate(-45, -23.91)" d="M 45.004 46.761 L 44.07 45.826 C 31.988 33.74 31.988 14.078 44.07 1.9960000000000022 L 45.004 1.0610000000000022 L 45.937999999999995 1.9960000000000022 C 58.020999999999994 14.082000000000003 58.020999999999994 33.744 45.937999999999995 45.826 L 45.004 46.761 z M 45.004 4.846 C 35.199 15.623 35.199 32.196 45.004 42.977000000000004 C 54.809 32.2 54.809 15.627 45.004 4.846 z" stroke-linecap="round" />
</g>
		<g transform="matrix(1.11 0 0 1.11 -20.97 -10.38)"  >
<path style="stroke: none; stroke-width: 1; stroke-dasharray: none; stroke-linecap: butt; stroke-dashoffset: 0; stroke-linejoin: miter; stroke-miterlimit: 4; fill: rgb(255,255,255); fill-rule: nonzero; opacity: 1;" vector-effect="non-scaling-stroke"  transform=" translate(-26.13, -35.55)" d="M 35.263 47.5 C 35.260999999999996 47.5 35.260999999999996 47.5 35.26 47.5 C 22.083 47.5 10.323999999999998 39.307 5.9979999999999976 26.843 L 5.563999999999997 25.686 L 6.812999999999997 25.298 C 10.109999999999998 24.153 13.533999999999997 23.595 16.989999999999995 23.595 C 30.164999999999996 23.595 41.92399999999999 31.982 46.251999999999995 44.447 L 46.687 45.702000000000005 L 45.437 45.95700000000001 C 42.14 47.101 38.716 47.5 35.263 47.5 z M 8.968 27.066 C 13.262 37.763 23.661 44.5 35.26 44.5 C 35.26 44.5 35.260999999999996 44.5 35.263 44.5 C 37.974 44.5 40.664 44.47 43.282 43.697 C 38.987 32.998 28.587 25.901 16.99 25.901 C 14.277 25.901 11.585 26.292 8.968 27.066 z" stroke-linecap="round" />
</g>
		<g transform="matrix(1.11 0 0 1.11 -22.02 7.38)"  >
<path style="stroke: none; stroke-width: 1; stroke-dasharray: none; stroke-linecap: butt; stroke-dashoffset: 0; stroke-linejoin: miter; stroke-miterlimit: 4; fill: rgb(255,255,255); fill-rule: nonzero; opacity: 1;" vector-effect="non-scaling-stroke"  transform=" translate(-25.19, -51.53)" d="M 18.297 62.5 C 18.296 62.5 18.295 62.5 18.295 62.5 C 13.599000000000002 62.5 9.058000000000002 61.681 4.798000000000002 59.615 L 3.6090000000000018 59.152 L 4.185000000000001 58.021 C 9.41 47.232 20.096 40.559 32.075 40.559 C 36.773 40.559 41.31700000000001 41.620999999999995 45.581 43.689 L 46.769000000000005 44.272 L 46.193000000000005 45.236 C 40.966 56.024 30.277 62.5 18.297 62.5 z M 7.181 58.027 C 10.718 59.543 14.45 60.311 18.295 60.311 C 28.802 60.312 38.223 54.678 43.197 45.518 C 39.656000000000006 44 35.922000000000004 43.230000000000004 32.074000000000005 43.230000000000004 C 21.57 43.231 12.153 48.865 7.181 58.027 z" stroke-linecap="round" />
</g>
		<g transform="matrix(1.11 0 0 1.11 -10.16 20.98)"  >
<path style="stroke: none; stroke-width: 1; stroke-dasharray: none; stroke-linecap: butt; stroke-dashoffset: 0; stroke-linejoin: miter; stroke-miterlimit: 4; fill: rgb(255,255,255); fill-rule: nonzero; opacity: 1;" vector-effect="non-scaling-stroke"  transform=" translate(-35.86, -63.77)" d="M 25.898 84.326 L 25.464 83.07799999999999 C 22.746 75.25399999999999 23.235 66.84499999999998 26.842 59.39999999999999 C 30.448 51.95399999999999 36.744 46.35799999999999 44.57 43.642999999999994 L 45.819 43.208999999999996 L 46.252 44.458 C 48.97 52.28 48.481 60.687 44.875 68.132 C 41.269 75.57700000000001 34.972 81.17500000000001 27.147 83.89200000000001 L 25.898 84.326 z M 44.17 46.614 C 37.6 49.241 32.323 54.149 29.221000000000004 60.552 C 26.120000000000005 66.954 25.539000000000005 74.138 27.548000000000002 80.923 C 34.118 78.292 39.394000000000005 73.384 42.496 66.981 C 45.597 60.578 46.177 53.396 44.17 46.614 z" stroke-linecap="round" />
</g>
		<g transform="matrix(1.11 0 0 1.11 7.65 22.02)"  >
<path style="stroke: none; stroke-width: 1; stroke-dasharray: none; stroke-linecap: butt; stroke-dashoffset: 0; stroke-linejoin: miter; stroke-miterlimit: 4; fill: rgb(255,255,255); fill-rule: nonzero; opacity: 1;" vector-effect="non-scaling-stroke"  transform=" translate(-51.89, -64.71)" d="M 59.384 86.287 L 58.195 85.71000000000001 C 50.739 82.10000000000001 45.137 75.807 42.422 67.99100000000001 C 39.706999999999994 60.177000000000014 40.202 51.76600000000001 43.815 44.31500000000001 L 44.391999999999996 43.12700000000001 L 45.581999999999994 43.70300000000001 C 53.035 47.31400000000001 58.635999999999996 53.60700000000001 61.35199999999999 61.42200000000001 C 64.06599999999999 69.23600000000002 63.57199999999999 77.64500000000001 59.96199999999999 85.09800000000001 L 59.384 86.287 z M 45.631 46.7 C 42.844 53.201 42.583 60.402 44.918 67.124 C 47.252 73.84599999999999 51.922 79.336 58.144 82.714 C 60.928 76.211 61.189 69.00999999999999 58.854 62.289 C 56.519 55.56800000000001 51.85 50.077 45.631 46.7 z" stroke-linecap="round" />
</g>
		<g transform="matrix(1.11 0 0 1.11 20.98 9.78)"  >
<path style="stroke: none; stroke-width: 1; stroke-dasharray: none; stroke-linecap: butt; stroke-dashoffset: 0; stroke-linejoin: miter; stroke-miterlimit: 4; fill: rgb(255,255,255); fill-rule: nonzero; opacity: 1;" vector-effect="non-scaling-stroke"  transform=" translate(-63.88, -53.69)" d="M 73.019 65.5 C 73.01700000000001 65.5 73.01700000000001 65.5 73.01700000000001 65.5 C 59.84300000000001 65.5 48.08400000000001 57.457 43.756000000000014 44.998000000000005 L 43.32100000000001 43.914 L 44.570000000000014 43.562000000000005 C 47.868000000000016 42.414 51.29700000000001 41.874 54.75500000000002 41.874 C 67.92600000000002 41.874 79.68300000000002 50.268 84.01000000000002 62.728 L 84.44500000000002 63.988 L 83.19600000000003 64.099 C 79.897 65.243 76.474 65.5 73.019 65.5 z M 46.727 45.721 C 51.021 56.414 61.42 63.5 73.017 63.5 C 73.017 63.5 73.017 63.5 73.01899999999999 63.5 C 75.731 63.5 78.422 63.115 81.03999999999999 62.342 C 76.74699999999999 51.647 66.35 44.552 54.75599999999999 44.552 C 52.04 44.552 49.346 44.944 46.727 45.721 z" stroke-linecap="round" />
</g>
		<g transform="matrix(1.11 0 0 1.11 22.02 -7.65)"  >
<path style="stroke: none; stroke-width: 1; stroke-dasharray: none; stroke-linecap: butt; stroke-dashoffset: 0; stroke-linejoin: miter; stroke-miterlimit: 4; fill: rgb(255,255,255); fill-rule: nonzero; opacity: 1;" vector-effect="non-scaling-stroke"  transform=" translate(-64.82, -38.01)" d="M 57.925 49.192 C 57.925 49.192 57.926 49.192 57.925 49.192 C 53.23 49.191 48.69 48.145 44.428 46.082 L 43.239 45.505 L 43.815 44.316 C 49.04 33.524 59.732 26.82 71.716 26.82 C 76.41199999999999 26.82 80.95299999999999 27.867 85.21499999999999 29.931 L 86.40299999999999 30.507 L 85.827 31.696 C 80.599 42.487 69.905 49.192 57.925 49.192 z M 46.811 44.264 C 50.348 45.78 54.081 46.54900000000001 57.925 46.54900000000001 C 68.431 46.54900000000001 77.85499999999999 40.912000000000006 82.83 31.748000000000005 C 79.29299999999999 30.231000000000005 75.56 29.464000000000006 71.716 29.464000000000006 C 61.207 29.463 51.784 35.101 46.811 44.264 z" stroke-linecap="round" />
</g>
		<g transform="matrix(1.11 0 0 1.11 10.16 -20.97)"  >
<path style="stroke: none; stroke-width: 1; stroke-dasharray: none; stroke-linecap: butt; stroke-dashoffset: 0; stroke-linejoin: miter; stroke-miterlimit: 4; fill: rgb(255,255,255); fill-rule: nonzero; opacity: 1;" vector-effect="non-scaling-stroke"  transform=" translate(-54.15, -26.01)" d="M 44.189 46.573 L 43.756 45.325 C 38.15 29.181 46.721 11.487 62.861 5.881 L 64.109 5.447 L 64.54299999999999 6.696 C 70.14699999999999 22.835 61.57699999999999 40.528999999999996 45.43799999999999 46.138999999999996 L 44.189 46.573 z M 62.461 8.853 C 48.939 14.277999999999999 41.714 29.192999999999998 45.839 43.169000000000004 C 59.359 37.74 66.584 22.824 62.461 8.853 z" stroke-linecap="round" />
</g>
		<g transform="matrix(1.11 0 0 1.11 -7.65 -22.02)"  >
<path style="stroke: none; stroke-width: 1; stroke-dasharray: none; stroke-linecap: butt; stroke-dashoffset: 0; stroke-linejoin: miter; stroke-miterlimit: 4; fill: rgb(255,255,255); fill-rule: nonzero; opacity: 1;" vector-effect="non-scaling-stroke"  transform=" translate(-38.12, -25.07)" d="M 45.616 46.658 L 44.428 46.082 C 29.048 38.625 22.597 20.051 30.048 4.676 L 30.624 3.487 L 31.813 4.063 C 47.19 11.516 53.64 30.089 46.193 45.468 L 45.616 46.658 z M 31.865 7.061 C 26.137999999999998 20.457 31.575 36.114000000000004 44.376 43.083 C 50.101 29.684 44.663 14.028 31.865 7.061 z" stroke-linecap="round" />
</g>
</g>
</g>
</svg>