<?xml version="1.0" encoding="UTF-8" standalone="no" ?>
<!DOCTYPE svg PUBLIC "-//W3C//DTD SVG 1.1//EN" "http://www.w3.org/Graphics/SVG/1.1/DTD/svg11.dtd">
<svg xmlns="http://www.w3.org/2000/svg" xmlns:xlink="http://www.w3.org/1999/xlink" version="1.1" width="500" height="500" viewBox="0 0 500 500" xml:space="preserve">
<desc>Created with Fabric.js 3.6.3</desc>
<defs>
</defs>
<g transform="matrix(1.1111111111111112 0 0 1.1111111111111112 102 235)"  >
<g style=""   >
		<g transform="matrix(1 0 0 1 -15 -15)"  >
<path style="stroke: none; stroke-width: 1; stroke-dasharray: none; stroke-linecap: butt; stroke-dashoffset: 0; stroke-linejoin: miter; stroke-miterlimit: 4; fill: rgb(56,37,19); fill-rule: nonzero; opacity: 1;"  transform=" translate(-29.5, -29.5)" d="M 45.5 45.5 h -0.496 C 27.918 45.5 13.5 32.309 13.5 15.219 V 13.5 h 1.839 C 32.425 13.5 45.5 27.802 45.5 44.892 V 45.5 z M 16.692 16.572 C 17.38 31.13 29.097 42.851 43.65 43.539 C 42.963 28.98 31.247 17.26 16.692 16.572 z" stroke-linecap="round" />
</g>
		<g transform="matrix(1 0 0 1 -20.474500000000003 0.38950000000000173)"  >
<path style="stroke: none; stroke-width: 1; stroke-dasharray: none; stroke-linecap: butt; stroke-dashoffset: 0; stroke-linejoin: miter; stroke-miterlimit: 4; fill: rgb(56,37,19); fill-rule: nonzero; opacity: 1;"  transform=" translate(-24.0255, -44.8895)" d="M 24.027 54.907 c -8.274 0 -16.056 -3.226 -21.914 -9.081 l -0.935 -0.934 l 0.935 -0.935 c 5.858 -5.858 13.64 -9.085 21.914 -9.085 s 16.055 3.227 21.91 9.085 l 0.936 0.935 l -0.936 0.934 C 40.083 51.682 32.3 54.907 24.027 54.907 z M 4.961 44.892 c 5.232 4.763 11.951 7.373 19.066 7.373 s 13.833 -2.609 19.063 -7.373 c -5.23 -4.767 -11.949 -7.376 -19.063 -7.376 C 16.912 37.516 10.193 40.125 4.961 44.892 z" stroke-linecap="round" />
</g>
		<g transform="matrix(1 0 0 1 -14.587500000000002 15)"  >
<path style="stroke: none; stroke-width: 1; stroke-dasharray: none; stroke-linecap: butt; stroke-dashoffset: 0; stroke-linejoin: miter; stroke-miterlimit: 4; fill: rgb(56,37,19); fill-rule: nonzero; opacity: 1;"  transform=" translate(-29.912499999999998, -59.5)" d="M 15.339 75.5 H 13.5 v -0.943 C 13.5 57.471 27.914 43.5 44.994 43.5 h 1.321 l 0.01 1.167 C 46.325 61.752 32.425 75.5 15.339 75.5 z M 43.65 46.245 c -14.558 0.688 -26.27 12.404 -26.958 26.958 C 31.246 72.515 42.962 60.799 43.65 46.245 z" stroke-linecap="round" />
</g>
		<g transform="matrix(1 0 0 1 0.5159999999999982 21.367000000000008)"  >
<path style="stroke: none; stroke-width: 1; stroke-dasharray: none; stroke-linecap: butt; stroke-dashoffset: 0; stroke-linejoin: miter; stroke-miterlimit: 4; fill: rgb(56,37,19); fill-rule: nonzero; opacity: 1;"  transform=" translate(-45.016, -65.867)" d="M 45.003 88.712 l -0.934 -0.935 c -12.08 -12.083 -12.08 -31.741 0 -43.82 l 0.934 -0.935 l 0.934 0.935 c 5.859 5.856 9.086 13.636 9.086 21.91 s -3.227 16.055 -9.086 21.91 L 45.003 88.712 z M 45.004 46.806 c -9.805 10.775 -9.805 27.345 0 38.123 c 4.766 -5.229 7.376 -11.946 7.376 -19.062 C 52.381 58.753 49.771 52.035 45.004 46.806 z" stroke-linecap="round" />
</g>
		<g transform="matrix(1 0 0 1 15 15)"  >
<path style="stroke: none; stroke-width: 1; stroke-dasharray: none; stroke-linecap: butt; stroke-dashoffset: 0; stroke-linejoin: miter; stroke-miterlimit: 4; fill: rgb(56,37,19); fill-rule: nonzero; opacity: 1;"  transform=" translate(-59.5, -59.5)" d="M 75.5 75.5 h -0.828 C 57.585 75.5 43.5 61.978 43.5 44.892 V 43.5 h 1.503 C 62.096 43.5 75.5 57.471 75.5 74.557 V 75.5 z M 46.356 46.245 c 0.688 14.554 12.407 26.27 26.963 26.958 C 72.631 58.646 60.913 46.928 46.356 46.245 z" stroke-linecap="round" />
</g>
		<g transform="matrix(1 0 0 1 21.481000000000005 0.1734999999999971)"  >
<path style="stroke: none; stroke-width: 1; stroke-dasharray: none; stroke-linecap: butt; stroke-dashoffset: 0; stroke-linejoin: miter; stroke-miterlimit: 4; fill: rgb(56,37,19); fill-rule: nonzero; opacity: 1;"  transform=" translate(-65.98100000000001, -44.6735)" d="M 65.98 54.5 c -0.002 0 0 0 -0.002 0 c -8.27 0 -16.051 -3.021 -21.909 -8.877 l -0.935 -0.833 l 0.935 -0.883 c 5.858 -5.859 13.642 -9.06 21.917 -9.06 c 8.271 0 16.053 3.237 21.908 9.093 l 0.934 0.941 l -0.934 0.734 C 82.036 51.473 74.252 54.5 65.98 54.5 z M 46.918 44.892 c 5.23 4.763 11.949 7.372 19.061 7.372 c 7.116 0 13.835 -2.61 19.067 -7.377 c -5.229 -4.764 -11.945 -7.372 -19.06 -7.372 C 58.87 37.515 52.149 40.125 46.918 44.892 z" stroke-linecap="round" />
</g>
		<g transform="matrix(1 0 0 1 15 -15)"  >
<path style="stroke: none; stroke-width: 1; stroke-dasharray: none; stroke-linecap: butt; stroke-dashoffset: 0; stroke-linejoin: miter; stroke-miterlimit: 4; fill: rgb(56,37,19); fill-rule: nonzero; opacity: 1;"  transform=" translate(-59.5, -29.5)" d="M 45.004 45.5 H 43.5 v -0.608 c 0 -17.09 14.083 -31.392 31.168 -31.392 H 75.5 v 1.719 C 75.5 32.309 62.09 45.5 45.004 45.5 z M 73.315 16.572 C 58.76 17.26 47.045 28.98 46.356 43.539 C 60.911 42.851 72.627 31.13 73.315 16.572 z" stroke-linecap="round" />
</g>
		<g transform="matrix(1 0 0 1 0.504374999999996 -20.58899999999999)"  >
<path style="stroke: none; stroke-width: 1; stroke-dasharray: none; stroke-linecap: butt; stroke-dashoffset: 0; stroke-linejoin: miter; stroke-miterlimit: 4; fill: rgb(56,37,19); fill-rule: nonzero; opacity: 1;"  transform=" translate(-45.004374999999996, -23.911000000000005)" d="M 45.004 46.761 l -0.934 -0.935 c -12.082 -12.086 -12.082 -31.748 0 -43.83 l 0.934 -0.935 l 0.934 0.935 c 12.083 12.086 12.083 31.748 0 43.83 L 45.004 46.761 z M 45.004 4.846 c -9.805 10.777 -9.805 27.35 0 38.131 C 54.809 32.2 54.809 15.627 45.004 4.846 z" stroke-linecap="round" />
</g>
		<g transform="matrix(1 0 0 1 -18.37450000000001 -8.9525)"  >
<path style="stroke: none; stroke-width: 1; stroke-dasharray: none; stroke-linecap: butt; stroke-dashoffset: 0; stroke-linejoin: miter; stroke-miterlimit: 4; fill: rgb(56,37,19); fill-rule: nonzero; opacity: 1;"  transform=" translate(-26.125499999999995, -35.5475)" d="M 35.263 47.5 c -0.002 0 -0.002 0 -0.003 0 c -13.177 0 -24.936 -8.193 -29.262 -20.657 l -0.434 -1.157 l 1.249 -0.388 c 3.297 -1.145 6.721 -1.703 10.177 -1.703 c 13.175 0 24.934 8.387 29.262 20.852 l 0.435 1.255 l -1.25 0.255 C 42.14 47.101 38.716 47.5 35.263 47.5 z M 8.968 27.066 C 13.262 37.763 23.661 44.5 35.26 44.5 c 0 0 0.001 0 0.003 0 c 2.711 0 5.401 -0.03 8.019 -0.803 C 38.987 32.998 28.587 25.901 16.99 25.901 C 14.277 25.901 11.585 26.292 8.968 27.066 z" stroke-linecap="round" />
</g>
		<g transform="matrix(1 0 0 1 -19.310999999999996 7.029499999999999)"  >
<path style="stroke: none; stroke-width: 1; stroke-dasharray: none; stroke-linecap: butt; stroke-dashoffset: 0; stroke-linejoin: miter; stroke-miterlimit: 4; fill: rgb(56,37,19); fill-rule: nonzero; opacity: 1;"  transform=" translate(-25.189000000000004, -51.5295)" d="M 18.297 62.5 c -0.001 0 -0.002 0 -0.002 0 c -4.696 0 -9.237 -0.819 -13.497 -2.885 l -1.189 -0.463 l 0.576 -1.131 c 5.225 -10.789 15.911 -17.462 27.89 -17.462 c 4.698 0 9.242 1.062 13.506 3.13 l 1.188 0.583 l -0.576 0.964 C 40.966 56.024 30.277 62.5 18.297 62.5 z M 7.181 58.027 c 3.537 1.516 7.269 2.284 11.114 2.284 c 10.507 0.001 19.928 -5.633 24.902 -14.793 c -3.541 -1.518 -7.275 -2.288 -11.123 -2.288 C 21.57 43.231 12.153 48.865 7.181 58.027 z" stroke-linecap="round" />
</g>
		<g transform="matrix(1 0 0 1 -8.641961264888605 19.267500000000002)"  >
<path style="stroke: none; stroke-width: 1; stroke-dasharray: none; stroke-linecap: butt; stroke-dashoffset: 0; stroke-linejoin: miter; stroke-miterlimit: 4; fill: rgb(56,37,19); fill-rule: nonzero; opacity: 1;"  transform=" translate(-35.85803873511139, -63.7675)" d="M 25.898 84.326 l -0.434 -1.248 c -2.718 -7.824 -2.229 -16.233 1.378 -23.678 c 3.606 -7.446 9.902 -13.042 17.728 -15.757 l 1.249 -0.434 l 0.433 1.249 c 2.718 7.822 2.229 16.229 -1.377 23.674 s -9.903 13.043 -17.728 15.76 L 25.898 84.326 z M 44.17 46.614 c -6.57 2.627 -11.847 7.535 -14.949 13.938 c -3.101 6.402 -3.682 13.586 -1.673 20.371 c 6.57 -2.631 11.846 -7.539 14.948 -13.942 C 45.597 60.578 46.177 53.396 44.17 46.614 z" stroke-linecap="round" />
</g>
		<g transform="matrix(1 0 0 1 7.3869049501998525 20.207000000000008)"  >
<path style="stroke: none; stroke-width: 1; stroke-dasharray: none; stroke-linecap: butt; stroke-dashoffset: 0; stroke-linejoin: miter; stroke-miterlimit: 4; fill: rgb(56,37,19); fill-rule: nonzero; opacity: 1;"  transform=" translate(-51.88690495019985, -64.70700000000001)" d="M 59.384 86.287 l -1.189 -0.577 c -7.456 -3.61 -13.058 -9.903 -15.773 -17.719 c -2.715 -7.814 -2.22 -16.225 1.393 -23.676 l 0.577 -1.188 l 1.19 0.576 c 7.453 3.611 13.054 9.904 15.77 17.719 c 2.714 7.814 2.22 16.223 -1.39 23.676 L 59.384 86.287 z M 45.631 46.7 c -2.787 6.501 -3.048 13.702 -0.713 20.424 c 2.334 6.722 7.004 12.212 13.226 15.59 c 2.784 -6.503 3.045 -13.704 0.71 -20.425 S 51.85 50.077 45.631 46.7 z" stroke-linecap="round" />
</g>
		<g transform="matrix(1 0 0 1 19.383000000000017 9.186999999999994)"  >
<path style="stroke: none; stroke-width: 1; stroke-dasharray: none; stroke-linecap: butt; stroke-dashoffset: 0; stroke-linejoin: miter; stroke-miterlimit: 4; fill: rgb(56,37,19); fill-rule: nonzero; opacity: 1;"  transform=" translate(-63.88300000000002, -53.687)" d="M 73.019 65.5 c -0.002 0 -0.002 0 -0.002 0 c -13.174 0 -24.933 -8.043 -29.261 -20.502 l -0.435 -1.084 l 1.249 -0.352 c 3.298 -1.148 6.727 -1.688 10.185 -1.688 c 13.171 0 24.928 8.394 29.255 20.854 l 0.435 1.26 l -1.249 0.111 C 79.897 65.243 76.474 65.5 73.019 65.5 z M 46.727 45.721 C 51.021 56.414 61.42 63.5 73.017 63.5 c 0 0 0 0 0.002 0 c 2.712 0 5.403 -0.385 8.021 -1.158 c -4.293 -10.695 -14.69 -17.79 -26.284 -17.79 C 52.04 44.552 49.346 44.944 46.727 45.721 z" stroke-linecap="round" />
</g>
		<g transform="matrix(1 0 0 1 20.321 -6.494)"  >
<path style="stroke: none; stroke-width: 1; stroke-dasharray: none; stroke-linecap: butt; stroke-dashoffset: 0; stroke-linejoin: miter; stroke-miterlimit: 4; fill: rgb(56,37,19); fill-rule: nonzero; opacity: 1;"  transform=" translate(-64.821, -38.006)" d="M 57.925 49.192 C 57.925 49.192 57.926 49.192 57.925 49.192 c -4.695 -0.001 -9.235 -1.047 -13.497 -3.11 l -1.189 -0.577 l 0.576 -1.189 C 49.04 33.524 59.732 26.82 71.716 26.82 c 4.696 0 9.237 1.047 13.499 3.111 l 1.188 0.576 l -0.576 1.189 C 80.599 42.487 69.905 49.192 57.925 49.192 z M 46.811 44.264 c 3.537 1.516 7.27 2.285 11.114 2.285 c 10.506 0 19.93 -5.637 24.905 -14.801 c -3.537 -1.517 -7.27 -2.284 -11.114 -2.284 C 61.207 29.463 51.784 35.101 46.811 44.264 z" stroke-linecap="round" />
</g>
		<g transform="matrix(1 0 0 1 9.649057509319082 -18.49)"  >
<path style="stroke: none; stroke-width: 1; stroke-dasharray: none; stroke-linecap: butt; stroke-dashoffset: 0; stroke-linejoin: miter; stroke-miterlimit: 4; fill: rgb(56,37,19); fill-rule: nonzero; opacity: 1;"  transform=" translate(-54.14905750931908, -26.009999999999998)" d="M 44.189 46.573 l -0.433 -1.248 C 38.15 29.181 46.721 11.487 62.861 5.881 l 1.248 -0.434 l 0.434 1.249 c 5.604 16.139 -2.966 33.833 -19.105 39.443 L 44.189 46.573 z M 62.461 8.853 c -13.522 5.425 -20.747 20.34 -16.622 34.316 C 59.359 37.74 66.584 22.824 62.461 8.853 z" stroke-linecap="round" />
</g>
		<g transform="matrix(1 0 0 1 -6.38062963709463 -19.427500000000006)"  >
<path style="stroke: none; stroke-width: 1; stroke-dasharray: none; stroke-linecap: butt; stroke-dashoffset: 0; stroke-linejoin: miter; stroke-miterlimit: 4; fill: rgb(56,37,19); fill-rule: nonzero; opacity: 1;"  transform=" translate(-38.11937036290537, -25.072499999999998)" d="M 45.616 46.658 l -1.188 -0.576 C 29.048 38.625 22.597 20.051 30.048 4.676 l 0.576 -1.189 l 1.189 0.576 c 15.377 7.453 21.827 26.026 14.38 41.405 L 45.616 46.658 z M 31.865 7.061 c -5.727 13.396 -0.29 29.053 12.511 36.022 C 50.101 29.684 44.663 14.028 31.865 7.061 z" stroke-linecap="round" />
</g>
</g>
</g>
<g transform="matrix(1 0 0 1 329.5 233.39351933335934)" style=""  ><path fill="#ffffff" opacity="1" d="M-110.04-24.36C-113.95-24.36-116.47-23.22-116.47-20.53C-116.47-16.53-110.04-10.83-98.14-10.83C-85.34-10.83-78.00-17.02-78.00-26.32C-78.00-45.14-108.41-40.66-108.41-54.19C-108.41-59.65-103.52-64.05-97.08-64.05C-91.61-64.05-87.70-60.63-86.15-56.31C-82.08-56.31-79.71-56.96-79.71-59.41C-79.71-63.08-85.91-68.70-96.75-68.70C-108.89-68.70-115.74-62.18-115.74-53.70C-115.74-35.85-85.58-40.09-85.58-25.34C-85.58-19.06-90.96-15.48-97.73-15.48C-104.00-15.48-108.24-18.82-110.04-24.36Z"/><path fill="#ffffff" opacity="1" d="M-44.34-15.96C-44.34-11.64-42.87-10.91-41.16-10.91C-39.61-10.91-37.25-11.24-35.46-12.05C-36.68-13.03-36.84-14.99-36.84-18.25L-36.84-38.54C-36.84-45.71-42.95-50.77-52.17-50.77C-62.60-50.77-68.14-45.63-68.14-42.37C-68.14-40.01-66.02-39.03-62.27-39.03C-62.27-42.70-58.44-46.29-53.22-46.29C-48.01-46.29-44.34-43.02-44.34-38.13L-44.34-34.79C-59.17-33.57-69.36-29.49-69.36-20.85C-69.36-14.82-64.55-10.83-57.71-10.83C-50.37-10.83-46.05-15.80-44.34-20.53ZM-44.34-27.95C-44.34-22.57-48.99-15.48-55.26-15.48C-59.09-15.48-61.95-17.84-61.95-21.51C-61.95-27.78-54.45-30.23-44.34-31.12Z"/><path fill="#ffffff" opacity="1" d="M-4.48-46.04C-0.16-46.04 0.57-46.86 0.57-47.92C0.57-48.81 0.33-49.87-0.49-51.09C-1.47-50.52-3.59-50.36-6.85-50.36L-13.86-50.36L-13.86-58.27C-13.86-62.99-11.49-66.25-8.15-66.25C-5.87-66.25-4.08-64.54-3.42-62.10C0.00-62.10 2.04-62.99 2.04-65.19C2.04-67.40-1.79-70.74-8.31-70.74C-16.22-70.74-21.27-65.28-21.27-57.45L-21.27-50.28C-23.47-50.28-25.51-50.12-27.39-50.03C-27.39-48.24-27.06-46.37-26.65-45.23C-24.70-45.47-22.99-45.71-21.27-45.80L-21.27-15.96C-21.27-11.73-19.81-10.91-18.18-10.91C-16.46-10.91-14.67-11.07-13.12-11.89C-13.61-12.87-13.86-14.99-13.86-18.25L-13.86-46.04Z"/><path fill="#ffffff" opacity="1" d="M5.05-30.31C5.05-18.74 12.47-10.83 24.21-10.83C31.14-10.83 37.00-14.09 39.86-18.90L38.72-19.55C38.15-19.96 37.49-20.20 37.00-20.20C35.54-20.20 33.50-15.31 25.51-15.31C18.01-15.31 13.04-21.51 12.88-30.55L38.80-30.55C39.69-31.53 40.26-32.51 40.26-34.14C40.26-44.17 34.31-50.77 23.64-50.77C12.63-50.77 5.05-42.45 5.05-30.31ZM23.39-46.29C28.94-46.29 32.44-42.13 33.01-34.63L13.12-34.63C14.10-41.72 18.01-46.29 23.39-46.29Z"/><path fill="#ffffff" opacity="1" d="M66.27-46.04C70.50-46.04 71.24-46.86 71.24-47.92C71.24-48.81 70.99-49.87 70.18-51.09C69.20-50.52 67.16-50.36 63.82-50.36L58.12-50.36C58.03-53.46 57.95-56.39 57.71-59.24C55.10-59.24 53.06-59.00 51.68-58.67C51.76-54.92 51.11-52.81 50.78-50.28C48.82-50.28 47.03-50.12 45.32-50.03C45.32-48.24 45.64-46.37 46.05-45.23C47.76-45.47 49.23-45.63 50.70-45.71L50.70-21.26C50.70-15.15 55.51-10.83 63.01-10.83C67.73-10.83 71.65-13.44 73.52-17.43L72.38-18.08C71.81-18.49 71.16-18.74 70.67-18.74C69.85-18.74 68.87-15.31 64.15-15.31C60.56-15.31 58.12-17.92 58.12-21.67L58.12-46.04Z"/><path fill="#ffffff" opacity="1" d="M93.49-7.00C91.13-0.89 86.89 3.11 80.69 3.11C80.69 5.96 82.32 7.51 84.69 7.51C90.56 7.51 96.51 2.05 100.17-7.81L112.64-39.36C114.11-43.19 115.50-47.10 116.47-50.52C113.95-50.52 111.58-50.44 109.71-50.12C108.24-45.06 107.35-42.05 105.80-38.13L98.05-18.57L89.50-41.31C88.27-44.33 86.72-47.59 84.93-50.60C81.67-50.60 78.98-50.20 77.60-49.79C79.96-45.23 80.77-43.43 83.06-38.13L92.27-15.88C93.25-13.11 94.14-11.81 95.12-11.24Z"/><path fill="#ffffff" opacity="1" d="M-116.68 57.72C-114.97 62.04-113.09 62.77-111.30 62.77C-109.67 62.77-107.14 62.45-105.67 61.63C-107.14 60.65-108.12 58.78-109.42 55.44L-124.83 16.39C-126.38 12.56-128.01 8.57-129.72 5.15C-133.06 5.15-136.24 5.55-137.54 5.88C-138.69 10.36-140.07 14.44-141.38 17.62L-157.19 57.72C-157.84 59.51-158.08 60.65-158.08 61.39C-158.08 62.45-157.35 62.77-156.45 62.77C-155.15 62.77-153.03 62.45-151.24 61.63C-151.24 60.33-150.75 58.37-149.61 55.44L-145.94 45.74L-121.41 45.74ZM-132.41 17.62L-123.20 41.17L-144.15 41.17L-133.80 14.19C-133.31 15.25-132.90 16.39-132.41 17.62Z"/><path fill="#ffffff" opacity="1" d="M-75.35 3.84C-74.70 8.49-74.54 11.50-74.54 15.58L-74.54 25.28C-76.58 23.81-79.10 22.92-82.45 22.92C-94.92 22.92-102.74 31.96-102.74 44.68C-102.74 55.68-96.46 62.85-87.74 62.85C-80.49 62.85-76.25 57.80-74.54 52.58L-74.54 57.72C-74.54 62.04-73.07 62.77-71.44 62.77C-69.89 62.77-67.53 62.45-65.74 61.63C-66.88 60.65-67.12 58.70-67.12 55.44L-67.12 14.36C-67.12 10.53-67.20 6.45-67.61 3.03C-70.71 3.03-73.97 3.43-75.35 3.84ZM-85.38 58.37C-90.51 58.37-94.67 52.83-94.67 43.78C-94.67 34.24-90.03 27.40-82.53 27.40C-79.35 27.40-76.74 28.13-74.54 30.41L-74.54 43.86C-74.54 50.30-79.10 58.37-85.38 58.37Z"/><path fill="#ffffff" opacity="1" d="M-42.83 57.72C-41.28 61.88-39.90 62.77-38.10 62.77C-36.47 62.77-35.01 62.61-33.70 61.79C-33.62 60.73-33.05 58.37-31.75 55.44L-22.13 32.29C-20.83 29.27-19.85 26.18-19.11 23.16C-21.72 23.16-23.60 23.32-25.47 23.57C-26.61 27.97-28.00 31.88-29.38 35.55L-37.05 54.95L-45.77 32.29C-46.99 29.35-48.46 26.09-50.33 23.00C-53.59 23.00-56.28 23.40-57.67 23.81C-55.22 28.46-54.41 30.25-52.12 35.55Z"/><path fill="#ffffff" opacity="1" d="M-9.25 57.72C-9.25 62.04-7.87 62.77-6.15 62.77C-4.69 62.77-2.24 62.45-0.45 61.63C-1.59 60.65-1.83 58.70-1.83 55.44L-1.83 34.33C-1.83 30.50-2.00 26.42-2.40 23.00C-5.50 23.00-8.68 23.40-10.07 23.81C-9.41 28.38-9.25 31.47-9.25 35.55ZM-10.15 9.38C-10.15 11.75-8.52 13.46-6.07 13.46C-3.38 13.46-1.51 11.59-1.51 8.98C-1.51 6.53-3.22 4.82-5.58 4.82C-8.27 4.82-10.15 6.78-10.15 9.38Z"/><path fill="#ffffff" opacity="1" d="M14.06 52.58C10.64 52.58 8.68 53.56 8.68 55.60C8.68 58.62 13.49 62.85 22.37 62.85C31.67 62.85 37.13 58.45 37.13 51.93C37.13 39.38 16.51 41.74 16.51 33.19C16.51 29.92 19.52 27.40 23.52 27.40C26.86 27.40 29.55 29.44 30.69 32.29C34.19 32.29 36.07 31.72 36.07 29.84C36.07 26.99 31.34 22.92 23.35 22.92C14.30 22.92 9.33 27.72 9.33 33.59C9.33 45.33 29.71 43.29 29.71 52.50C29.71 56.17 26.45 58.37 22.21 58.37C18.22 58.37 15.28 56.17 14.06 52.58Z"/><path fill="#ffffff" opacity="1" d="M45.28 43.46C45.28 55.03 52.69 62.85 63.54 62.85C75.35 62.85 83.34 54.46 83.34 42.31C83.34 30.74 75.92 22.92 65.00 22.92C53.27 22.92 45.28 31.31 45.28 43.46ZM53.27 42.64C53.27 33.59 57.59 27.40 64.02 27.40C70.71 27.40 75.27 33.76 75.27 43.13C75.27 52.18 70.95 58.37 64.51 58.37C57.83 58.37 53.27 52.01 53.27 42.64Z"/><path fill="#ffffff" opacity="1" d="M93.69 57.72C93.69 62.04 95.08 62.77 96.79 62.77C98.50 62.77 100.21 62.61 101.84 61.79C101.36 60.82 101.11 58.70 101.11 55.44L101.11 43.86C101.27 36.20 105.35 27.40 110.40 27.40C112.85 27.40 114.80 30.09 114.97 34.00C118.72 34.00 120.84 33.19 120.84 30.90C120.84 27.24 118.06 22.92 113.26 22.92C106.98 22.92 102.66 28.21 101.11 33.92L101.11 32.29C101.11 29.27 100.78 26.09 100.13 23.00C97.04 23.00 94.26 23.40 92.88 23.81C93.53 28.46 93.69 31.47 93.69 35.55Z"/><path fill="#ffffff" opacity="1" d="M134.53 52.58C131.11 52.58 129.15 53.56 129.15 55.60C129.15 58.62 133.96 62.85 142.84 62.85C152.13 62.85 157.60 58.45 157.60 51.93C157.60 39.38 136.97 41.74 136.97 33.19C136.97 29.92 139.99 27.40 143.98 27.40C147.33 27.40 150.02 29.44 151.16 32.29C154.66 32.29 156.54 31.72 156.54 29.84C156.54 26.99 151.81 22.92 143.82 22.92C134.77 22.92 129.80 27.72 129.80 33.59C129.80 45.33 150.18 43.29 150.18 52.50C150.18 56.17 146.92 58.37 142.68 58.37C138.69 58.37 135.75 56.17 134.53 52.58Z"/></g><g transform="matrix(1 0 0 1 329.5 327.15117822768)" style=""  ><path fill="#382513" opacity="1" d="M-160.49 4.83C-160.49 5.83-160.15 6.00-159.76 6.00C-159.40 6.00-158.83 5.92-158.42 5.73C-158.68 5.51-158.72 5.05-158.72 4.30L-158.72-4.73C-158.72-5.62-158.76-6.56-158.85-7.35C-159.59-7.35-160.36-7.26-160.68-7.16C-160.53-6.09-160.49-5.39-160.49-4.45Z"/><path fill="#382513" opacity="1" d="M-141.94 4.83C-141.94 5.83-141.60 6.00-141.23 6.00C-140.87 6.00-140.32 5.92-139.91 5.73C-140.17 5.51-140.23 5.05-140.23 4.30L-140.23-0.49C-140.23-2.07-141.36-3.22-142.94-3.22C-144.75-3.22-146.01-2.07-146.49-0.90L-146.49-1.05C-146.49-1.75-146.56-2.49-146.71-3.20C-147.43-3.20-148.07-3.11-148.39-3.01C-148.24-1.94-148.20-1.24-148.20-0.30L-148.20 4.83C-148.20 5.83-147.88 6.00-147.48 6.00C-147.09 6.00-146.69 5.96-146.32 5.77C-146.43 5.55-146.49 5.05-146.49 4.30L-146.49 1.10C-146.49-0.36-145.26-2.18-143.73-2.18C-142.68-2.18-141.94-1.34-141.94-0.07Z"/><path fill="#382513" opacity="1" d="M-129.95-0.02C-129.95 0.95-129.54 1.76-128.80 2.28C-129.29 2.64-129.71 3.13-129.71 4.02C-129.71 4.96-129.27 5.43-128.61 5.66L-128.80 5.68C-129.41 5.73-130.42 6.53-130.42 7.84C-130.42 9.35-129.03 10.26-126.33 10.26C-123.13 10.26-121.47 9.03-121.47 7.15C-121.47 3.26-128.39 6.26-128.39 3.75C-128.39 3.30-128.18 2.96-127.90 2.74C-127.44 2.89-126.94 2.96-126.35 2.96C-124.11 2.96-122.47 1.68-122.47-0.20C-122.47-1.26-122.98-2.13-123.84-2.66C-123.58-2.98-123.30-3.20-122.96-3.20C-122.54-3.20-122.17-2.88-122.07-2.33C-121.49-2.33-121.17-2.54-121.17-2.99C-121.17-3.45-121.53-4.18-122.51-4.18C-123.28-4.18-123.92-3.69-124.33-2.90C-124.84-3.11-125.45-3.22-126.11-3.22C-128.37-3.22-129.95-1.90-129.95-0.02ZM-123.26 7.39C-123.26 8.52-124.22 9.41-126.07 9.41C-127.90 9.41-128.73 8.58-128.73 7.56C-128.73 6.98-128.43 6.22-128.03 5.81C-126.11 6.11-123.26 5.39-123.26 7.39ZM-128.27-0.15C-128.27-1.34-127.50-2.24-126.24-2.24C-124.99-2.24-124.11-1.41-124.11-0.09C-124.11 1.06-124.86 2.00-126.14 2.00C-127.39 2.00-128.27 1.15-128.27-0.15Z"/><path fill="#382513" opacity="1" d="M-112.34 1.51C-112.34 4.19-110.63 6.02-107.91 6.02C-106.31 6.02-104.95 5.26-104.30 4.15L-104.56 4.00C-104.69 3.90-104.84 3.85-104.95 3.85C-105.29 3.85-105.77 4.98-107.61 4.98C-109.35 4.98-110.50 3.55-110.54 1.45L-104.54 1.45C-104.33 1.23-104.20 1.00-104.20 0.62C-104.20-1.69-105.58-3.22-108.05-3.22C-110.59-3.22-112.34-1.30-112.34 1.51ZM-108.10-2.18C-106.82-2.18-106.01-1.22-105.88 0.51L-110.48 0.51C-110.25-1.13-109.35-2.18-108.10-2.18Z"/><path fill="#382513" opacity="1" d="M-87.99 4.83C-87.99 5.83-87.65 6.00-87.27 6.00C-86.91 6.00-86.37 5.92-85.95 5.73C-86.22 5.51-86.27 5.05-86.27 4.30L-86.27-0.49C-86.27-2.07-87.40-3.22-88.99-3.22C-90.80-3.22-92.06-2.07-92.53-0.90L-92.53-1.05C-92.53-1.75-92.61-2.49-92.76-3.20C-93.47-3.20-94.12-3.11-94.44-3.01C-94.28-1.94-94.25-1.24-94.25-0.30L-94.25 4.83C-94.25 5.83-93.93 6.00-93.53 6.00C-93.13 6.00-92.74 5.96-92.36 5.77C-92.48 5.55-92.53 5.05-92.53 4.30L-92.53 1.10C-92.53-0.36-91.31-2.18-89.78-2.18C-88.72-2.18-87.99-1.34-87.99-0.07Z"/><path fill="#382513" opacity="1" d="M-75.75 4.83C-75.75 5.83-75.43 6.00-75.04 6.00C-74.70 6.00-74.13 5.92-73.72 5.73C-73.98 5.51-74.04 5.05-74.04 4.30L-74.04-0.58C-74.04-1.47-74.08-2.41-74.17-3.20C-74.89-3.20-75.62-3.11-75.94-3.01C-75.79-1.96-75.75-1.24-75.75-0.30ZM-75.96-6.35C-75.96-5.80-75.58-5.41-75.02-5.41C-74.40-5.41-73.96-5.84-73.96-6.44C-73.96-7.01-74.36-7.41-74.91-7.41C-75.53-7.41-75.96-6.95-75.96-6.35Z"/><path fill="#382513" opacity="1" d="M-64.08 1.51C-64.08 4.19-62.37 6.02-59.65 6.02C-58.05 6.02-56.69 5.26-56.03 4.15L-56.30 4.00C-56.43 3.90-56.58 3.85-56.69 3.85C-57.03 3.85-57.51 4.98-59.35 4.98C-61.09 4.98-62.24 3.55-62.27 1.45L-56.28 1.45C-56.07 1.23-55.94 1.00-55.94 0.62C-55.94-1.69-57.32-3.22-59.79-3.22C-62.33-3.22-64.08-1.30-64.08 1.51ZM-59.84-2.18C-58.56-2.18-57.75-1.22-57.62 0.51L-62.22 0.51C-61.99-1.13-61.09-2.18-59.84-2.18Z"/><path fill="#382513" opacity="1" d="M-45.99 4.83C-45.99 5.83-45.67 6.00-45.27 6.00C-44.87 6.00-44.48 5.96-44.10 5.77C-44.21 5.55-44.27 5.05-44.27 4.30L-44.27 1.62C-44.23-0.15-43.29-2.18-42.12-2.18C-41.56-2.18-41.10-1.56-41.07-0.66C-40.20-0.66-39.71-0.85-39.71-1.37C-39.71-2.22-40.35-3.22-41.46-3.22C-42.91-3.22-43.91-2.00-44.27-0.68L-44.27-1.05C-44.27-1.75-44.35-2.49-44.50-3.20C-45.21-3.20-45.86-3.11-46.18-3.01C-46.02-1.94-45.99-1.24-45.99-0.30Z"/><path fill="#382513" opacity="1" d="M-30.92 1.53C-30.92 4.21-29.21 6.02-26.70 6.02C-23.97 6.02-22.12 4.07-22.12 1.27C-22.12-1.41-23.84-3.22-26.36-3.22C-29.08-3.22-30.92-1.28-30.92 1.53ZM-29.08 1.34C-29.08-0.75-28.08-2.18-26.59-2.18C-25.04-2.18-23.99-0.71-23.99 1.45C-23.99 3.55-24.99 4.98-26.48 4.98C-28.02 4.98-29.08 3.51-29.08 1.34Z"/><path fill="#382513" opacity="1" d="M-11.49 3.64C-12.28 3.64-12.73 3.87-12.73 4.34C-12.73 5.04-11.62 6.02-9.57 6.02C-7.42 6.02-6.15 5.00-6.15 3.49C-6.15 0.59-10.92 1.13-10.92-0.85C-10.92-1.60-10.23-2.18-9.30-2.18C-8.53-2.18-7.91-1.71-7.64-1.05C-6.83-1.05-6.40-1.19-6.40-1.62C-6.40-2.28-7.49-3.22-9.34-3.22C-11.43-3.22-12.58-2.11-12.58-0.75C-12.58 1.96-7.87 1.49-7.87 3.62C-7.87 4.47-8.62 4.98-9.60 4.98C-10.53 4.98-11.21 4.47-11.49 3.64Z"/><path fill="#382513" opacity="1" d=""/><path fill="#382513" opacity="1" d="M24.99 4.83C25.39 5.83 25.82 6.00 26.23 6.00C26.61 6.00 27.20 5.92 27.53 5.73C27.20 5.51 26.97 5.07 26.67 4.30L23.10-4.73C22.75-5.62 22.37-6.54 21.97-7.33C21.20-7.33 20.47-7.24 20.16-7.16C19.90-6.12 19.58-5.18 19.28-4.45L15.62 4.83C15.47 5.24 15.41 5.51 15.41 5.68C15.41 5.92 15.58 6.00 15.79 6.00C16.09 6.00 16.58 5.92 17.00 5.73C17.00 5.43 17.11 4.98 17.37 4.30L18.22 2.06L23.90 2.06ZM21.35-4.45L23.48 1.00L18.64 1.00L21.03-5.24C21.14-4.99 21.24-4.73 21.35-4.45Z"/><path fill="#382513" opacity="1" d="M36.85 3.98C36.85 5.43 38.54 6.02 40.28 6.02C43.14 6.02 45.07 3.96 45.07 0.98C45.07-1.54 43.65-3.22 41.60-3.22C39.94-3.22 38.94-2.20 38.56-1.20L38.56-5.20C38.56-6.09 38.52-7.03 38.43-7.82C37.71-7.82 36.98-7.73 36.66-7.63C36.81-6.56 36.85-5.86 36.85-4.92ZM38.56 0.81C38.56-0.69 39.56-2.18 40.98-2.18C42.30-2.18 43.20-0.86 43.20 1.17C43.20 3.28 42.26 4.98 40.32 4.98C39.62 4.98 39.11 4.87 38.68 4.56C38.58 4.32 38.56 3.94 38.56 3.45Z"/><path fill="#382513" opacity="1" d="M54.45 1.53C54.45 4.21 56.17 6.02 58.68 6.02C61.41 6.02 63.26 4.07 63.26 1.27C63.26-1.41 61.54-3.22 59.02-3.22C56.30-3.22 54.45-1.28 54.45 1.53ZM56.30 1.34C56.30-0.75 57.30-2.18 58.79-2.18C60.34-2.18 61.39-0.71 61.39 1.45C61.39 3.55 60.39 4.98 58.90 4.98C57.36 4.98 56.30 3.51 56.30 1.34Z"/><path fill="#382513" opacity="1" d="M72.76-0.02C72.76 0.95 73.17 1.76 73.91 2.28C73.42 2.64 73.00 3.13 73.00 4.02C73.00 4.96 73.44 5.43 74.10 5.66L73.91 5.68C73.31 5.73 72.29 6.53 72.29 7.84C72.29 9.35 73.68 10.26 76.38 10.26C79.58 10.26 81.24 9.03 81.24 7.15C81.24 3.26 74.32 6.26 74.32 3.75C74.32 3.30 74.53 2.96 74.81 2.74C75.27 2.89 75.78 2.96 76.36 2.96C78.60 2.96 80.24 1.68 80.24-0.20C80.24-1.26 79.73-2.13 78.87-2.66C79.13-2.98 79.41-3.20 79.75-3.20C80.17-3.20 80.55-2.88 80.64-2.33C81.22-2.33 81.54-2.54 81.54-2.99C81.54-3.45 81.19-4.18 80.21-4.18C79.43-4.18 78.79-3.69 78.38-2.90C77.87-3.11 77.27-3.22 76.61-3.22C74.34-3.22 72.76-1.90 72.76-0.02ZM79.45 7.39C79.45 8.52 78.49 9.41 76.64 9.41C74.81 9.41 73.98 8.58 73.98 7.56C73.98 6.98 74.29 6.22 74.68 5.81C76.61 6.11 79.45 5.39 79.45 7.39ZM74.44-0.15C74.44-1.34 75.21-2.24 76.47-2.24C77.72-2.24 78.60-1.41 78.60-0.09C78.60 1.06 77.85 2.00 76.57 2.00C75.32 2.00 74.44 1.15 74.44-0.15Z"/><path fill="#382513" opacity="1" d="M96.27 4.83C96.27 5.83 96.61 6.00 97.00 6.00C97.36 6.00 97.91 5.92 98.32 5.73C98.04 5.51 98.00 5.05 98.00 4.30L98.00-0.39C98.00-2.05 96.59-3.22 94.46-3.22C92.04-3.22 90.76-2.03 90.76-1.28C90.76-0.73 91.25-0.51 92.12-0.51C92.12-1.35 93.01-2.18 94.21-2.18C95.42-2.18 96.27-1.43 96.27-0.30L96.27 0.47C92.84 0.76 90.48 1.70 90.48 3.70C90.48 5.09 91.59 6.02 93.18 6.02C94.87 6.02 95.87 4.87 96.27 3.77ZM96.27 2.06C96.27 3.30 95.19 4.94 93.74 4.94C92.86 4.94 92.20 4.40 92.20 3.55C92.20 2.10 93.93 1.53 96.27 1.32Z"/><path fill="#382513" opacity="1" d="M114.23-7.63C114.38-6.56 114.42-5.86 114.42-4.92L114.42-2.67C113.95-3.01 113.37-3.22 112.59-3.22C109.71-3.22 107.90-1.13 107.90 1.81C107.90 4.36 109.35 6.02 111.37 6.02C113.05 6.02 114.03 4.85 114.42 3.64L114.42 4.83C114.42 5.83 114.76 6.00 115.14 6.00C115.50 6.00 116.04 5.92 116.46 5.73C116.19 5.51 116.14 5.05 116.14 4.30L116.14-5.20C116.14-6.09 116.12-7.03 116.02-7.82C115.31-7.82 114.55-7.73 114.23-7.63ZM111.91 4.98C110.73 4.98 109.77 3.70 109.77 1.61C109.77-0.60 110.84-2.18 112.57-2.18C113.31-2.18 113.91-2.01 114.42-1.49L114.42 1.62C114.42 3.11 113.37 4.98 111.91 4.98Z"/><path fill="#382513" opacity="1" d="M126.09 1.53C126.09 4.21 127.81 6.02 130.31 6.02C133.05 6.02 134.89 4.07 134.89 1.27C134.89-1.41 133.18-3.22 130.65-3.22C127.94-3.22 126.09-1.28 126.09 1.53ZM127.94 1.34C127.94-0.75 128.94-2.18 130.43-2.18C131.97-2.18 133.03-0.71 133.03 1.45C133.03 3.55 132.03 4.98 130.54 4.98C128.99 4.98 127.94 3.51 127.94 1.34Z"/><path fill="#382513" opacity="1" d="M145.53 3.64C144.74 3.64 144.28 3.87 144.28 4.34C144.28 5.04 145.39 6.02 147.45 6.02C149.60 6.02 150.86 5.00 150.86 3.49C150.86 0.59 146.09 1.13 146.09-0.85C146.09-1.60 146.79-2.18 147.71-2.18C148.49-2.18 149.11-1.71 149.37-1.05C150.18-1.05 150.62-1.19 150.62-1.62C150.62-2.28 149.52-3.22 147.68-3.22C145.58-3.22 144.43-2.11 144.43-0.75C144.43 1.96 149.15 1.49 149.15 3.62C149.15 4.47 148.39 4.98 147.41 4.98C146.49 4.98 145.81 4.47 145.53 3.64Z"/></g></svg>