<?xml version="1.0" encoding="UTF-8" standalone="no" ?>
<!DOCTYPE svg PUBLIC "-//W3C//DTD SVG 1.1//EN" "http://www.w3.org/Graphics/SVG/1.1/DTD/svg11.dtd">
<svg xmlns="http://www.w3.org/2000/svg" xmlns:xlink="http://www.w3.org/1999/xlink" version="1.1" width="10" height="10" viewBox="0 0 10 10" xml:space="preserve">
<desc>Created with Fabric.js 5.2.4</desc>
<defs>
</defs>
<rect x="0" y="0" width="100%" height="100%" fill="transparent"></rect>
<g transform="matrix(1 0 0 1 5 5)" id="ae39041e-d05a-459f-b58c-72fdad2cb951"  >
<rect style="stroke: none; stroke-width: 1; stroke-dasharray: none; stroke-linecap: butt; stroke-dashoffset: 0; stroke-linejoin: miter; stroke-miterlimit: 4; fill: rgb(255,255,255); fill-rule: nonzero; opacity: 1; visibility: hidden;" vector-effect="non-scaling-stroke"  x="-5" y="-5" rx="0" ry="0" width="10" height="10" />
</g>
<g transform="matrix(Infinity NaN NaN Infinity 0 0)" id="71e70186-00d1-4c8b-b2cd-9670dc741e98"  >
</g>
<g transform="matrix(0.4 0 0 0.4 5 5)"  >
<path style="stroke: rgb(0,0,0); stroke-width: 0; stroke-dasharray: none; stroke-linecap: butt; stroke-dashoffset: 0; stroke-linejoin: miter; stroke-miterlimit: 4; fill: rgb(0,0,0); fill-rule: nonzero; opacity: 1;" vector-effect="non-scaling-stroke"  transform=" translate(-12, -12)" d="M 23.119 0.882 C 22.3898209690203 0.14397530367566924 21.328014111154108 -0.15939808428609903 20.318999999999996 0.08200000000000107 L 4.318999999999999 3.452 C 2.4395007227469616 3.709759813665231 0.868246780040308 5.009986039048575 0.26337483286523256 6.808064897790888 C -0.34149711430984286 8.6061437565332 0.12443093810771799 10.591675987350973 1.4659999999999984 11.933000000000002 L 3.184 13.65 C 3.3717945556273525 13.837737686171456 3.4772087539973295 14.092458684280478 3.4770000000000003 14.358 L 3.4770000000000003 17.526 C 3.4792068892609684 17.97143019942601 3.5817459500805473 18.410639176603205 3.7769999999999997 18.811 L 3.769 18.818 L 3.795 18.844 C 4.088013264988148 19.433129996200954 4.566582095031993 19.90959059351333 5.156999999999998 20.2 L 5.183 20.226 L 5.1899999999999995 20.218 C 5.590360823396792 20.413254049919452 6.029569800573988 20.515793110739033 6.475 20.518 L 9.643 20.518 C 9.908051361165453 20.517791336475423 10.162343660278541 20.622817293110533 10.350000000000001 20.810000000000002 L 12.067000000000002 22.527 C 12.997158006946043 23.467459206948586 14.264255832944102 23.99769645061198 15.587 24 C 16.132751971669457 23.9993215193803 16.674784101188788 23.910164832655624 17.192 23.736 C 18.973699808796386 23.150956926102115 20.26958987929759 21.606274563357555 20.536 19.75 L 23.911 3.715 C 24.164996539344827 2.6970768177353426 23.864061011226042 1.6206243541488323 23.119 0.8819999999999988 Z M 4.6 12.238 L 2.881 10.521 C 2.06380223543936 9.723484495887392 1.7822943062068572 8.524931345664799 2.159 7.447 C 2.5243310724191255 6.3408153260919 3.501126565399481 5.54922025858062 4.658999999999999 5.421000000000001 L 20.5 2.086 L 5.475 17.113 L 5.475 14.358 C 5.478058219093766 13.562856437767465 5.162998469928196 12.799511674074884 4.599999999999999 12.238 Z M 18.570999999999998 19.408 C 18.41439462863426 20.53456734928823 17.63416335997036 21.47568849846737 16.55613054143616 21.838351533509726 C 15.478097722901968 22.201014568552083 14.287681757148624 21.922842538123643 13.481999999999996 21.12 L 11.762 19.4 C 11.20122706963893 18.83614788295617 10.438230470554501 18.52000299669089 9.643 18.522 L 6.888 18.522 L 21.915 3.5 Z" stroke-linecap="round" />
</g>
</svg>